<?xml version="1.0" encoding="UTF-8" standalone="no"?>
<svg width="1400px" height="630px" viewBox="0 0 1400 630" version="1.1" xmlns="http://www.w3.org/2000/svg" xmlns:xlink="http://www.w3.org/1999/xlink">
    <!-- Generator: Sketch 41.2 (35397) - http://www.bohemiancoding.com/sketch -->
    <title>Patrick-Hamann Copy</title>
    <desc>Created with Sketch.</desc>
    <defs></defs>
    <g id="Page-1" stroke="none" stroke-width="1" fill="none" fill-rule="evenodd">
        <g id="Patrick-Hamann-Copy" stroke="#E5E4DF">
            <g id="trangles" transform="translate(-116.000000, -88.000000)">
                <polyline id="Stroke-9" points="1.4054 282.7068 103.4054 141.4038 205.4054 0.8748 307.4054 141.7908 409.4054 282.7068"></polyline>
                <polyline id="Stroke-12" points="409.4054 282.7068 511.4054 141.4038 613.4054 0.8748 715.4054 141.7908 817.4054 282.7068"></polyline>
                <polyline id="Stroke-13" points="817.4054 282.7068 919.4054 141.4038 1021.4054 0.8748 1123.4054 141.7908 1225.4054 282.7068"></polyline>
                <polyline id="Stroke-14" points="1225.4054 282.7068 1327.4054 141.4038 1429.4054 0.8748 1531.4054 141.7908 1633.4054 282.7068"></polyline>
                <polyline id="Stroke-16" points="0.4054 482.7068 102.4054 341.4038 204.4054 200.8748 306.4054 341.7908 408.4054 482.7068"></polyline>
                <polyline id="Stroke-19" points="408.4054 482.7068 510.4054 341.4038 612.4054 200.8748 714.4054 341.7908 816.4054 482.7068"></polyline>
                <polyline id="Stroke-20" points="816.4054 482.7068 918.4054 341.4038 1020.4054 200.8748 1122.4054 341.7908 1224.4054 482.7068"></polyline>
                <polyline id="Stroke-21" points="1224.4054 482.7068 1326.4054 341.4038 1428.4054 200.8748 1530.4054 341.7908 1632.4054 482.7068"></polyline>
                <polyline id="Stroke-23" points="0.4054 682.7068 102.4054 541.4038 204.4054 400.8748 306.4054 541.7908 408.4054 682.7068"></polyline>
                <polyline id="Stroke-26" points="408.4054 682.7068 510.4054 541.4038 612.4054 400.8748 714.4054 541.7908 816.4054 682.7068"></polyline>
                <polyline id="Stroke-27" points="816.4054 682.7068 918.4054 541.4038 1020.4054 400.8748 1122.4054 541.7908 1224.4054 682.7068"></polyline>
                <polyline id="Stroke-28" points="1224.4054 682.7068 1326.4054 541.4038 1428.4054 400.8748 1530.4054 541.7908 1632.4054 682.7068"></polyline>
                <polyline id="Stroke-30" points="0.4054 896.7068 102.4054 755.4038 204.4054 614.8748 306.4054 755.7908 408.4054 896.7068"></polyline>
                <polyline id="Stroke-33" points="408.4054 896.7068 510.4054 755.4038 612.4054 614.8748 714.4054 755.7908 816.4054 896.7068"></polyline>
                <polyline id="Stroke-34" points="816.4054 896.7068 918.4054 755.4038 1020.4054 614.8748 1122.4054 755.7908 1224.4054 896.7068"></polyline>
                <polyline id="Stroke-35" points="1224.4054 896.7068 1326.4054 755.4038 1428.4054 614.8748 1530.4054 755.7908 1632.4054 896.7068"></polyline>
            </g>
        </g>
    </g>
</svg>