<svg width="396" height="324" viewBox="0 0 396 324" xmlns="http://www.w3.org/2000/svg"><title>Group 3</title><g transform="translate(-8)" fill="#5999FF" fill-rule="evenodd"><path d="M123.823 233.43c-5.011 31.638-34.721 53.224-66.36 48.213-31.638-5.011-53.223-34.721-48.212-66.36l28.778 4.559c-2.493 15.744 8.248 30.529 23.993 33.022 15.744 2.494 30.528-8.248 33.022-23.992l28.779 4.558zM231.59 286.642l.05-.008-28.982-182.991-59.262 9.386L172.38 296.02l.05-.008a30.4 30.4 0 0 0 .226 1.75c2.589 16.345 17.954 27.494 34.318 24.902 16.365-2.592 27.532-17.943 24.943-34.289a30.4 30.4 0 0 0-.326-1.733zM298 168h-59.844l-.143 37.777c.013.573-.008 1.152-.012 1.734C237.883 223.797 251.184 237 267.71 237c16.525 0 30.017-13.203 30.134-29.489.005-.582-.008-1.16-.038-1.734L298 168z"/><circle cx="267.5" cy="29.5" r="29.5"/><path d="M400.575 160.375c10.767-40.588-13.26-82.233-53.74-93.08-40.48-10.847-82.11 13.206-93.08 53.74l146.82 39.34zM87.708 147.464a47.82 47.82 0 0 1-.109-.048c-23.148-10.307-33.72-37.067-23.61-59.77 10.108-22.705 37.068-32.756 60.216-22.45l.11.05-36.607 82.218z"/></g></svg>