<svg width="899" height="419" viewBox="0 0 899 419" xmlns="http://www.w3.org/2000/svg"><title>Group 9</title><g transform="translate(-23 -122)" fill="#5999FF" fill-rule="evenodd"><path d="M343.065 447.372c-13.823 87.278-96.224 146.754-184.047 132.844C71.195 566.306 11.206 484.278 25.03 397l79.885 12.653c-6.879 43.432 22.973 84.252 66.677 91.174 43.703 6.921 84.708-22.676 91.587-66.108l79.886 12.653zM640.15 508.32l.14-.022L559.885.644 394.941 26.768l80.405 507.654.14-.022c.16 1.613.368 3.23.625 4.852 7.182 45.345 49.928 76.256 95.476 69.042 45.548-7.214 76.65-49.822 69.468-95.167a84.06 84.06 0 0 0-.906-4.807z"/><circle cx="838" cy="125" r="84"/></g></svg>