<svg width="484" height="252" viewBox="0 0 484 252" xmlns="http://www.w3.org/2000/svg"><title>Slice 1</title><g fill="none" fill-rule="evenodd"><text font-family="GTWalsheimProTrial-Medium, GT Walsheim Pro Trial" font-size="48" font-weight="400" letter-spacing=".8" fill="#191919"><tspan x="131.535" y="239.174">CONF.EU</tspan></text><path d="M245.161 103.285c26.491 6.793 31.925 11.32 31.925 20.15v.454c0 9.284-8.604 14.944-22.868 14.944-18.113 0-33.057-7.474-47.32-19.246l-10.354 12.401c15.034 11.286 35.135 22.349 56.106 22.258 42.718-.184 41.758-26.497 41.758-32.308 0-22.457-21.358-29.597-40.769-34.017-24.764-4.725-44.83-13.522-44.423-35.389.407-21.867 21.26-34.162 39.761-34.058 14.658.082 25.627 2.886 49.174 16.546l8.821-12.79C290.897 9.325 271.2 2.08 248.105 2.08c-32.377 0-55.47 23.545-55.47 52.302v.452c0 31.47 20.602 40.3 52.526 48.451" fill="#FFF"/><path d="M245.161 103.285c26.491 6.793 31.925 11.32 31.925 20.15v.454c0 9.284-8.604 14.944-22.868 14.944-18.113 0-33.057-7.474-47.32-19.246l-10.354 12.401c15.034 11.286 35.135 22.349 56.106 22.258 42.718-.184 41.758-26.497 41.758-32.308 0-22.457-21.358-29.597-40.769-34.017-24.764-4.725-44.83-13.522-44.423-35.389.407-21.867 21.26-34.162 39.761-34.058 14.658.082 25.627 2.886 49.174 16.546l8.821-12.79C290.897 9.325 271.2 2.08 248.105 2.08c-32.377 0-55.47 23.545-55.47 52.302v.452c0 31.47 20.602 40.3 52.526 48.451z" stroke="#262625" stroke-width="3"/><path d="M261.49 72.494c-27.396-7.02-34.189-10.416-34.189-20.83v-.453c0-7.698 7.02-16.075 20.377-16.075 13.359 0 27.17 3.623 41.207 13.358l9.293-13.474c-23.547-13.661-34.516-16.463-49.174-16.546-18.502-.105-39.354 12.19-39.762 34.058-.407 21.868 19.66 30.664 44.424 35.389 19.411 4.419 40.768 11.56 40.768 34.017 0 5.812.961 32.125-41.757 32.308-20.971.091-41.072-10.971-56.106-22.257l-10.25 12.278c19.019 16.98 43.244 25.357 67.245 25.357 34.187 0 58.187-17.661 58.187-49.131v-.453c0-27.622-18.113-39.169-50.263-47.546" fill="#42CDB2"/><path d="M261.49 72.494c-27.396-7.02-34.189-10.416-34.189-20.83v-.453c0-7.698 7.02-16.075 20.377-16.075 13.359 0 27.17 3.623 41.207 13.358l9.293-13.474c-23.547-13.661-34.516-16.463-49.174-16.546-18.502-.105-39.354 12.19-39.762 34.058-.407 21.868 19.66 30.664 44.424 35.389 19.411 4.419 40.768 11.56 40.768 34.017 0 5.812.961 32.125-41.757 32.308-20.971.091-41.072-10.971-56.106-22.257l-10.25 12.278c19.019 16.98 43.244 25.357 67.245 25.357 34.187 0 58.187-17.661 58.187-49.131v-.453c0-27.622-18.113-39.169-50.263-47.546z" stroke="#262625" stroke-width="3"/><path d="M220.203 129.049c-4.534-2.696-8.935-5.876-13.274-9.457l-20.603 24.68a98.433 98.433 0 0 0 14.947 10.998l18.93-26.221z" fill="#3EC446"/><path d="M220.203 129.049c-4.534-2.696-8.935-5.876-13.274-9.457l-20.603 24.68a98.433 98.433 0 0 0 14.947 10.998l18.93-26.221z" stroke="#1D1E1C" stroke-width="3"/><path d="M99.41 86.237c0 7.556-6.125 13.681-13.681 13.681-7.556 0-13.682-6.125-13.682-13.68 0-7.557 6.126-13.682 13.682-13.682s13.68 6.125 13.68 13.681" fill="#42CDB2"/><path d="M99.41 86.237c0 7.556-6.125 13.681-13.681 13.681-7.556 0-13.682-6.125-13.682-13.68 0-7.557 6.126-13.682 13.682-13.682s13.68 6.125 13.68 13.681z" stroke="#080B0B" stroke-width="3"/><path d="M26.126 146.076C10.041 130.067 2 110.01 2 85.901c.073-23.583 8.134-43.418 24.182-59.503C42.228 10.316 62.119 2.272 85.853 2.272c23.958 0 44.519 7.465 61.686 22.391l-22.391 24.518c-11.419-8.957-24.517-13.435-39.295-13.435-15.077.076-27.224 4.778-36.441 14.106-9.219 9.331-13.826 21.271-13.826 35.825.073 15.6 4.739 27.989 13.994 37.169 9.254 9.18 21.42 13.77 36.497 13.77 15.075 0 28.1-4.44 39.071-13.322l22.391 24.517c-17.092 14.929-37.655 22.391-61.686 22.391-23.734-.073-43.644-8.117-59.727-24.126" fill="#FFF"/><path d="M26.126 146.076C10.041 130.067 2 110.01 2 85.901c.073-23.583 8.134-43.418 24.182-59.503C42.228 10.316 62.119 2.272 85.853 2.272c23.958 0 44.519 7.465 61.686 22.391l-22.391 24.518c-11.419-8.957-24.517-13.435-39.295-13.435-15.077.076-27.224 4.778-36.441 14.106-9.219 9.331-13.826 21.271-13.826 35.825.073 15.6 4.739 27.989 13.994 37.169 9.254 9.18 21.42 13.77 36.497 13.77 15.075 0 28.1-4.44 39.071-13.322l22.391 24.517c-17.092 14.929-37.655 22.391-61.686 22.391-23.734-.073-43.644-8.117-59.727-24.126z" stroke="#1D1E1C" stroke-width="3"/><path d="M136.688 135.947c-14.683 11.626-30.803 16.416-50.978 16.416-20.177 0-36.46-6.007-48.844-18.023-12.386-12.015-18.63-28.229-18.728-48.646 0-19.049 6.166-34.677 18.504-46.889 12.335-12.21 27.818-20.179 47.996-20.277 19.777 0 36.556 6.533 51.838 18.255l-11.322 12.398c-11.42-8.957-24.518-13.435-39.296-13.435-15.077.076-27.223 4.778-36.44 14.106-9.22 9.331-13.827 21.271-13.827 35.825.074 15.6 4.739 27.989 13.995 37.169 9.253 9.18 21.419 13.77 36.496 13.77 15.075 0 28.1-4.439 39.072-13.322l11.36 12.439.174.214z" fill="#2176FF"/><path d="M136.688 135.947c-14.683 11.626-30.803 16.416-50.978 16.416-20.177 0-36.46-6.007-48.844-18.023-12.386-12.015-18.63-28.229-18.728-48.646 0-19.049 6.166-34.677 18.504-46.889 12.335-12.21 27.818-20.179 47.996-20.277 19.777 0 36.556 6.533 51.838 18.255l-11.322 12.398c-11.42-8.957-24.518-13.435-39.296-13.435-15.077.076-27.223 4.778-36.44 14.106-9.22 9.331-13.827 21.271-13.827 35.825.074 15.6 4.739 27.989 13.995 37.169 9.253 9.18 21.419 13.77 36.496 13.77 15.075 0 28.1-4.439 39.072-13.322l11.36 12.439.174.214z" stroke="#080B0B" stroke-width="3"/><path d="M414.925 103.289c26.513 6.798 31.95 11.329 31.95 20.167v.454c0 9.291-8.61 14.955-22.885 14.955-18.128 0-33.084-7.479-47.36-19.261l-10.362 12.412.016.012.01-.012c15.044 11.293 35.155 22.361 56.138 22.276 42.74-.189 41.78-26.519 41.78-32.335 0-22.476-21.375-29.622-40.802-34.045-24.784-4.729-44.868-13.532-44.46-35.418.408-21.886 21.277-34.191 39.794-34.086h.027c10.892.061 19.754 1.628 33.24 8.025l10.157-13.861C449.195 5.729 434.408 2 417.87 2c-32.403 0-55.516 23.565-55.516 52.344v.453c0 31.497 20.62 40.335 52.57 48.492" fill="#FFF"/><path d="M414.925 103.289c26.513 6.798 31.95 11.329 31.95 20.167v.454c0 9.291-8.61 14.955-22.885 14.955-18.128 0-33.084-7.479-47.36-19.261l-10.362 12.412.016.012.01-.012c15.044 11.293 35.155 22.361 56.138 22.276 42.74-.189 41.78-26.519 41.78-32.335 0-22.476-21.375-29.622-40.802-34.045-24.784-4.729-44.868-13.532-44.46-35.418.408-21.886 21.277-34.191 39.794-34.086h.027c10.892.061 19.754 1.628 33.24 8.025l10.157-13.861C449.195 5.729 434.408 2 417.87 2c-32.403 0-55.516 23.565-55.516 52.344v.453c0 31.497 20.62 40.335 52.57 48.492z" stroke="#262625" stroke-width="3"/><path d="M431.267 72.472c-27.418-7.025-34.217-10.424-34.217-20.847v-.454c0-7.704 7.026-16.088 20.394-16.088 8.135 0 16.439 1.354 24.858 4.601l9.709-13.25c-13.486-6.398-22.348-7.965-33.24-8.027-18.517-.104-39.387 12.201-39.795 34.087-.407 21.886 19.676 30.69 44.46 35.417 19.428 4.424 40.803 11.57 40.803 34.046 0 5.816.96 32.151-41.793 32.335-20.988.09-41.105-10.98-56.152-22.276l-10.258 12.288c19.035 16.994 43.28 25.378 67.3 25.378 34.216 0 58.235-17.675 58.235-49.17v-.455c0-27.645-18.127-39.2-50.304-47.585" fill="#EB3A3A"/><path d="M431.267 72.472c-27.418-7.025-34.217-10.424-34.217-20.847v-.454c0-7.704 7.026-16.088 20.394-16.088 8.135 0 16.439 1.354 24.858 4.601l9.709-13.25c-13.486-6.398-22.348-7.965-33.24-8.027-18.517-.104-39.387 12.201-39.795 34.087-.407 21.886 19.676 30.69 44.46 35.417 19.428 4.424 40.803 11.57 40.803 34.046 0 5.816.96 32.151-41.793 32.335-20.988.09-41.105-10.98-56.152-22.276l-10.258 12.288c19.035 16.994 43.28 25.378 67.3 25.378 34.216 0 58.235-17.675 58.235-49.17v-.455c0-27.645-18.127-39.2-50.304-47.585z" stroke="#262625" stroke-width="3"/><path d="M462.205 12.577l-19.894 27.1c5.423 2.09 10.894 4.956 16.4 8.775l9.3-13.485a.118.118 0 0 0-.02-.01l8.822-12.79a91.518 91.518 0 0 0-14.608-9.59" fill="#FBC227"/><path d="M462.205 12.577l-19.894 27.1c5.423 2.09 10.894 4.956 16.4 8.775l9.3-13.485a.118.118 0 0 0-.02-.01l8.822-12.79a91.518 91.518 0 0 0-14.608-9.59z" stroke="#1D1E1C" stroke-width="3"/></g></svg>