<svg class="c-globe__globe-svg" xmlns="http://www.w3.org/2000/svg" viewBox="0 0 143.8 143.7"><g fill="#FBC227"><path d="M27.2 87.4c5.7 0 10.4-2.3 14.1-6.8l7.5 7.7c-6 6.7-13 10-21 10-8.1 0-14.7-2.5-20-7.6C2.6 85.6 0 79.2 0 71.4s2.7-14.3 8-19.5 11.8-7.8 19.5-7.8c8.6 0 15.8 3.3 21.6 9.8l-7.3 8.2c-3.7-4.6-8.3-6.9-13.8-6.9-4.4 0-8.2 1.4-11.3 4.3S12 66.3 12 71.1s1.5 8.8 4.4 11.7c3.1 3.2 6.6 4.6 10.8 4.6zM70.3 55.8c-1.1.9-1.7 2.2-1.7 3.7s.7 2.7 2.1 3.6c1.4.9 4.5 2 9.5 3.2s8.8 3.1 11.6 5.5c2.7 2.5 4.1 6 4.1 10.7s-1.8 8.5-5.3 11.4-8.2 4.4-13.9 4.4c-8.3 0-15.8-3.1-22.4-9.2l7-8.5c5.6 5 10.9 7.4 15.7 7.4 2.1 0 3.8-.5 5.1-1.4 1.2-.9 1.8-2.2 1.8-3.8s-.7-2.8-2-3.8c-1.3-.9-3.9-1.9-7.7-2.8-6.1-1.4-10.6-3.3-13.4-5.7-2.8-2.3-4.2-6-4.2-11S58.4 50.7 62 48c3.6-2.7 8-4 13.4-4 3.5 0 7 .6 10.5 1.8 3.5 1.2 6.5 2.9 9.1 5.1l-5.9 8.5c-4.5-3.5-9.3-5.2-14.1-5.2-2 .2-3.6.7-4.7 1.6zm47.9 0c-1.1.9-1.7 2.2-1.7 3.7s.7 2.7 2.1 3.6c1.4.9 4.5 2 9.5 3.2s8.8 3.1 11.6 5.5c2.7 2.5 4.1 6 4.1 10.7s-1.8 8.5-5.3 11.4-8.2 4.4-13.9 4.4c-8.3 0-15.8-3.1-22.4-9.2l7-8.5c5.6 5 10.9 7.4 15.7 7.4 2.1 0 3.8-.5 5.1-1.4 1.2-.9 1.8-2.2 1.8-3.8s-.7-2.8-2-3.8c-1.3-.9-3.9-1.9-7.7-2.8-6.1-1.4-10.6-3.3-13.4-5.7-2.8-2.3-4.2-6-4.2-11s1.8-8.8 5.4-11.5c3.6-2.7 8-4 13.4-4 3.5 0 7 .6 10.5 1.8 3.5 1.2 6.5 2.9 9.1 5.1l-5.9 8.5c-4.5-3.5-9.3-5.2-14.1-5.2-2.1.2-3.6.7-4.7 1.6z"/></g><g fill="hsl(0, 0%, 7%)"><path d="M23.5 37.3c2.2-3 4.7-6.5 7.6-9.3 5.1-5 10.8-9.1 17.2-12.1-4.4 5.9-8.1 13.4-10.9 21.4h10.2c1.5-4 3.3-7.8 5.3-11.1 3.2-5.4 7.1-9.8 11.1-12.6 2.1-1.5 4.6-2.6 6.6-3.3v27h9v-27c3 .6 4.6 1.7 6.7 3.2 4 2.8 7.9 7.2 11.1 12.6 2 3.3 3.9 7.1 5.4 11.1H113c-2.8-8-6.4-15.6-10.9-21.5 6.4 3.1 12.2 7.2 17.2 12.2 2.8 2.8 5.4 6.2 7.6 9.2h11.3C125.9 15.1 102.3 0 75.2 0s-50.7 15.1-63 37.1h11.3v.2zM126.5 107.3c-2.1 3-4.4 6-7.1 8.7-5.1 5-10.8 9-17.2 12.1 4.3-5.7 7.9-12.7 10.6-20.7h-10.2c-1.4 4-3.1 7.4-5 10.5-3.2 5.4-7.3 9.8-11.2 12.6-2.1 1.5-3.7 2.7-6.7 3.3v-26.5h-9v26.5c-2-.6-4.5-1.7-6.6-3.2-4-2.8-7.9-7.4-11.1-12.8-1.9-3.1-3.6-6.5-5-10.5H37.7c2.7 8 6.3 15.2 10.6 20.9-6.4-3.1-12.2-7.3-17.2-12.3-2.6-2.6-5-5.5-7.1-8.5H12.7c12.4 22 35.8 36.3 62.5 36.3s50.1-14.3 62.5-36.3h-11.2v-.1z"/></g></svg>