<svg width="101" height="101" viewBox="0 0 101 101" xmlns="http://www.w3.org/2000/svg"><title>Combined Shape</title><path d="M28.913 63.386a25.002 25.002 0 0 1-3.584-12.939c0-13.872 11.246-25.118 25.118-25.118 13.873 0 25.12 11.246 25.12 25.118 0 13.873-11.247 25.12-25.12 25.12a25.005 25.005 0 0 1-12.187-3.15 6.674 6.674 0 1 1-9.347-9.03zm3.453 34.26A50.38 50.38 0 0 0 50.5 101c27.89 0 50.5-22.61 50.5-50.5S78.39 0 50.5 0c-.733 0-1.463.016-2.189.047a7.935 7.935 0 0 1-15.47 3.127C13.658 10.334 0 28.822 0 50.5c0 16.156 7.587 30.54 19.393 39.784a7.935 7.935 0 0 1 12.973 7.362zM17.814 47.715a5.097 5.097 0 1 0 0-10.195 5.097 5.097 0 0 0 0 10.195zm42.04-28.797a5.097 5.097 0 1 0 0-10.195 5.097 5.097 0 0 0 0 10.195zm26.8 12.927a5.097 5.097 0 1 0 0-10.195 5.097 5.097 0 0 0 0 10.195zm.053 28.587a5.15 5.15 0 1 0 0-10.3 5.15 5.15 0 0 0 0 10.3zM64.899 94.589a6.148 6.148 0 1 0 0-12.297 6.148 6.148 0 0 0 0 12.297z" fill="#3EC446" fill-rule="evenodd"/></svg>