<svg xmlns="http://www.w3.org/2000/svg"><defs>
        <clipPath id="cssconfeu-logo-2017-a">
            <path d="M243.36 103.13c26.35 6.76 31.75 11.26 31.75 20v.45c0 9.23-8.56 14.86-22.75 14.86-18 0-32.88-7.43-47.07-19.14L195 131.68c15 11.23 34.95 22.23 55.81 22.14 42.49-.18 41.54-26.36 41.54-32.14 0-22.34-21.24-29.44-40.55-33.84-24.63-4.7-44.59-13.45-44.19-35.2s21.15-34 39.55-33.88c14.58.08 25.49 2.87 48.91 16.46l8.77-12.72c-16-12.84-35.58-20-58.55-20-32.2 0-55.18 23.42-55.18 52v.45c0 31.3 20.49 40.09 52.25 48.19" fill="none" clip-rule="evenodd"/>
        </clipPath>
        <clipPath id="cssconfeu-logo-2017-b">
            <path d="M25.49 145.69q-24-23.89-24-59.85.11-35.19 24.06-59.19t59.35-24q35.75 0 61.36 22.27L124 49.31A61.58 61.58 0 0 0 84.9 36q-22.5.11-36.25 14T34.9 85.62q.11 23.28 13.92 37t36.3 13.7q22.49 0 38.86-13.25l22.27 24.39q-25.5 22.27-61.36 22.27-35.41-.11-59.41-24" fill="none" clip-rule="evenodd"/>
        </clipPath>
        <clipPath id="cssconfeu-logo-2017-c">
            <path d="M412.22 103.13C438.59 109.9 444 114.4 444 123.19v.45c0 9.24-8.57 14.88-22.76 14.88-18 0-32.91-7.44-47.11-19.16l-10.31 12.35c15 11.23 35 22.24 55.84 22.16 42.51-.19 41.56-26.38 41.56-32.16 0-22.36-21.26-29.46-40.58-33.86C396 83.13 376 74.38 376.43 52.61S397.6 18.6 416 18.7c10.83.06 19.65 1.62 33.06 8l10.1-13.79a93.2 93.2 0 0 0-44.01-10.53c-32.23 0-55.22 23.44-55.22 52.07v.45c0 31.33 20.51 40.12 52.29 48.23" fill="none" clip-rule="evenodd"/>
        </clipPath>

        <style>
            .a{fill:url(#a)}.b{fill:#ffe90a}.c{fill:#2b2b2b}.d{fill:none;stroke:#2b2b2b}
        </style>
        <linearGradient id="a" x1="-134.86" y1="163.36" x2="-134.86" y2="162.36" gradientTransform="matrix(25 0 0 -25 3385 4085)" gradientUnits="userSpaceOnUse">
            <stop offset="0" stop-color="#ffe90a"/>
            <stop offset="1" stop-color="#feba00"/>
        </linearGradient>

        <linearGradient x1="50%" y1="0%" x2="50%" y2="100%" id="start-green-gradient-a">
            <stop stop-color="#FEE34F" offset="0%"/>
            <stop stop-color="#3EC446" offset="100%"/>
        </linearGradient>

        <linearGradient x1="50%" y1="0%" x2="50%" y2="100%" id="start-triangle-group-a">
            <stop stop-color="#EA3A3A" offset="0%"/>
            <stop stop-color="#FA99B4" offset="100%"/>
        </linearGradient>
    </defs><symbol id="arc" viewBox="0 0 295 148">
    <title>
        Combined Shape
    </title>
    <path d="M295 0c0 81.738-66.038 148-147.5 148S0 81.738 0 0h74.1c0 40.675 32.862 73.65 73.4 73.65 40.538 0 73.4-32.975 73.4-73.65H295z" fill="#3EC446" fill-rule="evenodd"/>
</symbol><symbol id="arrow" viewBox="0 0 41 27">
    <title>
        Group 4
    </title>
    <g fill="#2176FF" fill-rule="evenodd">
        <path d="M23 27V0l18 13.5z"/>
        <path d="M0 11h25v4H0z"/>
    </g>
</symbol><symbol id="blue-bolt" viewBox="0 0 500 484">
    <title>
        Artboard 1
    </title>
    <path d="M480.56 287.84q-2-3.21-4.16-6.25l.18-.11L300.7 0H0l260.32 416.6.18-.11q1.79 3.28 3.8 6.48c37.37 59.8 116.07 78 175.79 40.72s77.84-116.05 40.47-175.85z" fill="#2176ff"/>
</symbol><symbol id="check" viewBox="0 0 15 14">
    <title>
        Group 7
    </title>
    <g fill="#3EC446" fill-rule="evenodd">
        <path d="M.582 8.883l1-1.732 6.928 4-1 1.732z"/>
        <path d="M12.594.808l1.732 1-6.5 11.258-1.732-1z"/>
    </g>
</symbol><symbol id="circle" viewBox="0 0 257 257">
    <title>
        shape14
    </title>
    <ellipse cx="129" cy="129" rx="124" ry="124" fill="#42CDB2" fill-rule="evenodd"/>
</symbol><symbol id="combined-shapes-a" viewBox="0 0 396 324">
    <title>
        Group 3
    </title>
    <g transform="translate(-8)" fill="#5999FF" fill-rule="evenodd">
        <path d="M123.823 233.43c-5.011 31.638-34.721 53.224-66.36 48.213-31.638-5.011-53.223-34.721-48.212-66.36l28.778 4.559c-2.493 15.744 8.248 30.529 23.993 33.022 15.744 2.494 30.528-8.248 33.022-23.992l28.779 4.558zM231.59 286.642l.05-.008-28.982-182.991-59.262 9.386L172.38 296.02l.05-.008a30.4 30.4 0 0 0 .226 1.75c2.589 16.345 17.954 27.494 34.318 24.902 16.365-2.592 27.532-17.943 24.943-34.289a30.4 30.4 0 0 0-.326-1.733zM298 168h-59.844l-.143 37.777c.013.573-.008 1.152-.012 1.734C237.883 223.797 251.184 237 267.71 237c16.525 0 30.017-13.203 30.134-29.489.005-.582-.008-1.16-.038-1.734L298 168z"/>
        <circle cx="267.5" cy="29.5" r="29.5"/>
        <path d="M400.575 160.375c10.767-40.588-13.26-82.233-53.74-93.08-40.48-10.847-82.11 13.206-93.08 53.74l146.82 39.34zM87.708 147.464a47.82 47.82 0 0 1-.109-.048c-23.148-10.307-33.72-37.067-23.61-59.77 10.108-22.705 37.068-32.756 60.216-22.45l.11.05-36.607 82.218z"/>
    </g>
</symbol><symbol id="combined-shapes-b" viewBox="0 0 899 419">
    <title>
        Group 9
    </title>
    <g transform="translate(-23 -122)" fill="#5999FF" fill-rule="evenodd">
        <path d="M343.065 447.372c-13.823 87.278-96.224 146.754-184.047 132.844C71.195 566.306 11.206 484.278 25.03 397l79.885 12.653c-6.879 43.432 22.973 84.252 66.677 91.174 43.703 6.921 84.708-22.676 91.587-66.108l79.886 12.653zM640.15 508.32l.14-.022L559.885.644 394.941 26.768l80.405 507.654.14-.022c.16 1.613.368 3.23.625 4.852 7.182 45.345 49.928 76.256 95.476 69.042 45.548-7.214 76.65-49.822 69.468-95.167a84.06 84.06 0 0 0-.906-4.807z"/>
        <circle cx="838" cy="125" r="84"/>
    </g>
</symbol><symbol id="cssconf-family-globe" viewBox="0 0 202.4 165.5">
    <circle class="circle-yellow" cx="125.8" cy="7.3" r="4.3"/>
    <circle class="circle-red" cx="9.2" cy="40.6" r="7"/>
    <circle class="circle-blue" cx="187.3" cy="38.2" r="12.9"/>
    <g class="type">
        <path class="type__letter-c" d="M46.7 106.9c5.7 0 10.4-2.3 14.1-6.8l7.5 7.7c-6 6.7-13 10-21 10-8.1 0-14.7-2.5-20-7.6-5.2-5.1-7.8-11.5-7.8-19.3 0-7.8 2.7-14.3 8-19.5 5.3-5.2 11.8-7.8 19.5-7.8 8.6 0 15.8 3.3 21.6 9.8l-7.3 8.2c-3.7-4.6-8.3-6.9-13.8-6.9-4.4 0-8.2 1.4-11.3 4.3-3.1 2.9-4.7 6.8-4.7 11.6s1.5 8.8 4.4 11.7c3.1 3.2 6.6 4.6 10.8 4.6z"/>
        <path class="type__letter-s" d="M89.8 75.3c-1.1.9-1.7 2.2-1.7 3.7s.7 2.7 2.1 3.6c1.4.9 4.5 2 9.5 3.2 5 1.2 8.8 3.1 11.6 5.5 2.7 2.5 4.1 6 4.1 10.7 0 4.7-1.8 8.5-5.3 11.4-3.5 2.9-8.2 4.4-13.9 4.4-8.3 0-15.8-3.1-22.4-9.2l7-8.5c5.6 5 10.9 7.4 15.7 7.4 2.1 0 3.8-.5 5.1-1.4 1.2-.9 1.8-2.2 1.8-3.8s-.7-2.8-2-3.8c-1.3-.9-3.9-1.9-7.7-2.8-6.1-1.4-10.6-3.3-13.4-5.7-2.8-2.3-4.2-6-4.2-11s1.8-8.8 5.4-11.5c3.6-2.7 8-4 13.4-4 3.5 0 7 .6 10.5 1.8 3.5 1.2 6.5 2.9 9.1 5.1l-5.9 8.5c-4.5-3.5-9.3-5.2-14.1-5.2-2 .2-3.6.7-4.7 1.6zM137.7 75.3c-1.1.9-1.7 2.2-1.7 3.7s.7 2.7 2.1 3.6c1.4.9 4.5 2 9.5 3.2 5 1.2 8.8 3.1 11.6 5.5 2.7 2.5 4.1 6 4.1 10.7 0 4.7-1.8 8.5-5.3 11.4-3.5 2.9-8.2 4.4-13.9 4.4-8.3 0-15.8-3.1-22.4-9.2l7-8.5c5.6 5 10.9 7.4 15.7 7.4 2.1 0 3.8-.5 5.1-1.4 1.2-.9 1.8-2.2 1.8-3.8s-.7-2.8-2-3.8c-1.3-.9-3.9-1.9-7.7-2.8-6.1-1.4-10.6-3.3-13.4-5.7-2.8-2.3-4.2-6-4.2-11s1.8-8.8 5.4-11.5c3.6-2.7 8-4 13.4-4 3.5 0 7 .6 10.5 1.8 3.5 1.2 6.5 2.9 9.1 5.1l-5.9 8.5c-4.5-3.5-9.3-5.2-14.1-5.2-2.1.2-3.6.7-4.7 1.6z"/>
    </g>
    <g class="globe">
        <path class="globe__upper-half" d="M43 56.8c2.2-3 4.7-6.5 7.6-9.3 5.1-5 10.8-9.1 17.2-12.1-4.4 5.9-8.1 13.4-10.9 21.4h10.2c1.5-4 3.3-7.8 5.3-11.1 3.2-5.4 7.1-9.8 11.1-12.6 2.1-1.5 4.6-2.6 6.6-3.3v27h9v-27c3 .6 4.6 1.7 6.7 3.2 4 2.8 7.9 7.2 11.1 12.6 2 3.3 3.9 7.1 5.4 11.1h10.2c-2.8-8-6.4-15.6-10.9-21.5 6.4 3.1 12.2 7.2 17.2 12.2 2.8 2.8 5.4 6.2 7.6 9.2h11.3c-12.3-22-35.9-37.1-63-37.1S44 34.6 31.7 56.6H43z"/>
        <path class="globe__lower-half" d="M146 126.8c-2.1 3-4.4 6-7.1 8.7-5.1 5-10.8 9-17.2 12.1 4.3-5.7 7.9-12.7 10.6-20.7h-10.2c-1.4 4-3.1 7.4-5 10.5-3.2 5.4-7.3 9.8-11.2 12.6-2.1 1.5-3.7 2.7-6.7 3.3v-26.5h-9v26.5c-2-.6-4.5-1.7-6.6-3.2-4-2.8-7.9-7.4-11.1-12.8-1.9-3.1-3.6-6.5-5-10.5H57.2c2.7 8 6.3 15.2 10.6 20.9-6.4-3.1-12.2-7.3-17.2-12.3-2.6-2.6-5-5.5-7.1-8.5H32.2c12.4 22 35.8 36.3 62.5 36.3s50.1-14.3 62.5-36.3H146z"/>
    </g>
</symbol><symbol id="cssconfeu-logo-2017" viewBox="0 0 480 240">

    <title>
        cssconfeu-logo-2017
    </title>
    <path d="M149.87 209a9.59 9.59 0 0 1 9.93 8h5.78c-1.05-7.21-6.49-13-16.43-13-10.5 0-17 8.4-17 17.48 0 9.41 6.64 17.57 17.57 17.57 8.21 0 14.37-5.06 15.85-11.56h-6a9.87 9.87 0 0 1-9.12 6.64c-8.12 0-12.65-5.78-12.65-12.65-.01-6.48 4.38-12.48 12.07-12.48zM187.2 204.06c-10.74 0-17.28 8.45-17.28 17.52s6.54 17.52 17.28 17.52 17.28-8.45 17.28-17.52-6.54-17.52-17.28-17.52zm0 30.13c-7.11 0-11.51-6.11-11.51-12.61S180.09 209 187.2 209s11.51 6.11 11.51 12.61-4.39 12.58-11.51 12.58zM229.79 228.65l-13.23-23.78h-6.01v33.43h5.49v-23.78l13.22 23.78h6.02v-33.43h-5.49v23.78zM243.01 238.3h5.49v-12.99h13.8v-4.92h-13.8v-10.6h13.8v-4.92h-19.29v33.43zM272.66 230.89a3.84 3.84 0 1 0 3.87 3.87 3.84 3.84 0 0 0-3.87-3.87zM283.64 238.3h19.29v-4.92h-13.8v-9.22h13.8v-4.92h-13.8v-9.45h13.8v-4.92h-19.29v33.43zM328.76 204.87v22.25c0 3.82-2.58 7.07-6.59 7.07s-6.49-3.25-6.49-7.07v-22.25h-5.49v22.25a12 12 0 0 0 24.06 0v-22.25z" fill="#21303b"/>
    <g clip-path="url(#cssconfeu-logo-2017-a)">
        <path fill="#fff" d="M186.14-2.51h123.68v161.3H186.14z"/>
    </g>
    <path d="M259.6 72.5c-27.25-7-34-10.36-34-20.72v-.45c0-7.66 7-16 20.27-16s27 3.6 41 13.29l9.24-13.4c-23.42-13.59-34.33-16.38-48.91-16.46-18.4-.1-39.14 12.13-39.55 33.88s19.56 30.5 44.19 35.2c19.31 4.4 40.55 11.5 40.55 33.84 0 5.78 1 32-41.53 32.14-20.86.09-40.86-10.91-55.86-22.14l-10.2 12.21a100.32 100.32 0 0 0 66.89 25.22c34 0 57.88-17.57 57.88-48.87v-.45c.03-27.47-17.99-38.95-49.97-47.29z" fill="#42cdb2"/>
    <path d="M260 71.06c-27.35-7-32.89-10.25-32.89-19.27v-.45c0-7 6.58-14.5 18.78-14.5 14.37 0 27.5 4.26 40.14 13l1.23.85 11-16 8.64-12.53-1.08-.87C288.94 7.83 268.92 1 246.29 1c-15.76 0-30.21 5.58-40.7 15.7a52.08 52.08 0 0 0-16 37.81v.45c0 33.36 23.13 41.92 53.37 49.64 26.38 6.76 30.63 11 30.63 18.6v.45c0 8.37-7.94 13.37-21.25 13.37-15.92 0-30.58-6-46.12-18.8l-1.14-.94-12.26 14.68L182.76 144l1.08 1a101.66 101.66 0 0 0 67.88 25.6c17.4 0 32.14-4.51 42.63-13 11-8.9 16.74-21.81 16.74-37.33v-.45c0-29.42-20.44-40.77-51.09-48.76zm-54.5 50.37c15.68 12.65 30.61 18.57 46.87 18.57 15 0 24.24-6.27 24.24-16.35v-.45c0-10.25-7.07-14.87-32.88-21.49-29.94-7.71-51.13-15.5-51.13-46.77v-.45C192.6 25.68 215.68 4 246.29 4c21.45 0 40.46 6.34 56.53 18.85l-7.19 10.43c-21.94-12.61-32.94-15.53-45.84-15.92h-2.63a45.44 45.44 0 0 0-27.44 9.05c-6.07 4.64-13.36 13-13.61 26.29-.46 24.76 24 32.61 45.35 36.68 20.46 4.66 39.39 11.81 39.39 32.38v.38c.06 20-13.41 30.15-40 30.27-20.53.07-40.31-11.11-53.65-20.91zm102.6-1.19c0 29.22-21.6 47.38-56.38 47.38a98.75 98.75 0 0 1-64.81-23.89l8.36-10a144.93 144.93 0 0 0 14.4 9.42q1.76 1 3.52 1.92h.07q1.73.91 3.45 1.74l.11.05q1.7.81 3.39 1.55l.14.06q1.67.72 3.33 1.38l.19.07c1.09.42 2.18.83 3.26 1.2l.22.07c1.07.37 2.14.71 3.2 1l.29.08c1 .31 2.08.59 3.11.85l.34.08c1 .25 2 .48 3 .69l.42.08c1 .19 2 .37 2.93.52l.55.07c.93.13 1.85.26 2.77.36l.77.06c.84.08 1.68.15 2.52.2H250.78c19.67-.08 43.11-5.92 43-33.26v-.37c0-10.49-4.61-18.87-13.7-24.89-8.15-5.4-18.73-8.29-28.06-10.41-30-5.73-43.3-16.13-43-33.71.3-16 14.5-32.41 37.77-32.41H248.42c12.87.23 23.5 2.87 45.41 15.45l-7.47 10.84c-12.77-8.55-26.07-12.71-40.6-12.71-14.13 0-21.76 9-21.76 17.48v.45c0 12.08 9.11 15.5 35.13 22.16 30.17 7.86 48.88 18.28 48.88 45.85z" fill="#21303b"/>
    <path d="M184.84 143.9a97.91 97.91 0 0 0 14.87 10.94l18.83-26.08a105.75 105.75 0 0 1-13.2-9.41z" fill="#3ec446"/>
    <path d="M200.11 156.82l-1.18-.71A99.61 99.61 0 0 1 183.84 145l-1.08-1 22.37-26.8 1.14.94a103.58 103.58 0 0 0 13 9.28l1.4.83zm-13.2-13.08a96.63 96.63 0 0 0 12.39 9.11l17.08-23.65a106.73 106.73 0 0 1-10.85-7.75z" fill="#21303b"/>
    <path d="M84.78 74.06a12.12 12.12 0 1 0 12.11 12.11 12.13 12.13 0 0 0-12.11-12.11z" fill="#42cdb2"/>
    <path d="M84.78 71.07a15.1 15.1 0 1 0 15.1 15.1 15.12 15.12 0 0 0-15.1-15.1zm0 27.22a12.12 12.12 0 1 1 12.11-12.12 12.13 12.13 0 0 1-12.11 12.12z" fill="#21303b"/>
    <g clip-path="url(#cssconfeu-logo-2017-b)">
        <path fill="#fff" d="M-3.48-2.32h154.71v176.98H-3.48z"/>
    </g>
    <path d="M124 123q-16.37 13.25-38.86 13.25t-36.3-13.7Q35 108.89 34.9 85.62 34.9 63.9 48.66 50T84.9 36A61.58 61.58 0 0 1 124 49.31L135.25 37c-15.2-11.66-31.89-18.16-51.56-18.16-20.07.1-35.47 8-47.74 20.17S17.54 66.68 17.54 85.63q.15 30.46 18.63 48.39t48.58 17.93c20.07 0 36.1-4.76 50.71-16.33l-.17-.21z" fill="#2176ff"/>
    <path d="M124.14 121l-1.09.88c-10.59 8.57-23.35 12.92-37.92 12.92s-26.38-4.46-35.25-13.26-13.41-20.9-13.48-35.92c0-14 4.48-25.64 13.32-34.59S70.39 37.52 84.9 37.44a60.4 60.4 0 0 1 38.16 13l1.09.85 13.29-14.55 10.94-12-1.15-1C130 8.78 109 1.16 84.9 1.16 61 1.16 40.67 9.38 24.49 25.6S.07 62.08 0 85.84c0 24.28 8.22 44.77 24.44 60.91S61 171.11 84.9 171.18c24.17 0 45.14-7.62 62.34-22.64l1.15-1L127 124.09zm-.34-73.69a63.29 63.29 0 0 0-38.9-12.85c-15.34.08-27.89 4.95-37.3 14.47S33.41 70.8 33.41 85.62c.07 15.85 4.91 28.65 14.36 38s22 14.13 37.35 14.13c14.77 0 27.79-4.28 38.7-12.71l9.46 10.36c-13.65 10.39-28.69 15-48.52 15-19.58 0-35.57-5.89-47.55-17.51S19.13 105.42 19 85.63c0-18.45 6-33.78 18-45.58C50.33 26.86 65.6 20.4 83.69 20.32c17.92 0 34.08 5.52 49.35 16.87zM84.9 168.2c-23.09-.07-42.72-8-58.36-23.56S3 109.3 3 85.84c.07-22.94 8-42.5 23.62-58.14S61.81 4.15 84.9 4.15c22.81 0 42.72 7 59.22 20.91L135.05 35c-15.88-11.86-32.69-17.65-51.37-17.65-18.91.09-34.87 6.83-48.78 20.6-12.51 12.36-18.85 28.41-18.85 47.69.1 20.63 6.52 37.26 19.08 49.45s29.24 18.35 49.62 18.35c20.63 0 36.28-4.9 50.53-15.82l8.83 9.67c-16.41 13.87-36.33 20.91-59.21 20.91z" fill="#21303b"/>
    <g clip-path="url(#cssconfeu-logo-2017-c)">
        <path fill="#fff" d="M354.95-2.59h111.26v161.43H354.95z"/>
    </g>
    <path d="M428.47 72.48c-27.27-7-34-10.37-34-20.74v-.45c0-7.66 7-16 20.29-16a68 68 0 0 1 24.73 4.58l9.66-13.18c-13.41-6.36-22.23-7.92-33.06-8-18.42-.1-39.18 12.14-39.58 33.91S396 83.13 420.68 87.84c19.32 4.4 40.59 11.51 40.59 33.86 0 5.78 1 32-41.57 32.16-20.88.09-40.89-10.92-55.85-22.16l-10.2 12.22a100.4 100.4 0 0 0 66.94 25.24c34 0 57.92-17.58 57.92-48.91v-.45c0-27.49-18.03-38.98-50.04-47.32z" fill="#ea3a3a"/>
    <path d="M459.25 12.91l-19.79 27a77.36 77.36 0 0 1 16.31 8.73L465 35.18l8.77-12.72a91 91 0 0 0-14.52-9.55z" fill="#fbc227"/>
    <path d="M428.85 71c-27.38-7-32.91-10.26-32.91-19.29v-.45c0-7 6.59-14.51 18.79-14.51a67 67 0 0 1 24.19 4.48l.57.22a76.62 76.62 0 0 1 15.44 8.34l1.23.85 11-15.89 8.7-12.62-1.08-.87a92.87 92.87 0 0 0-13.29-8.87l-1-.55-.46-.26-1.23-.58A95.09 95.09 0 0 0 415.15.89c-15.77 0-30.23 5.58-40.73 15.72a52.12 52.12 0 0 0-16 37.84v.45c0 33.39 23.15 42 53.41 49.68 26.4 6.77 30.66 11 30.66 18.61v.45c0 8.38-8 13.38-21.27 13.38-15.94 0-30.6-6-46.16-18.82l-1.14-.94-11.26 13.48-1 1.18-10.15 12.15 1.08 1a101.75 101.75 0 0 0 67.94 25.62c17.41 0 32.17-4.51 42.67-13 11-8.91 16.75-21.82 16.75-37.36v-.45C480 90.39 459.55 79 428.85 71zm33.89-35.22l-7.38 10.69a79.62 79.62 0 0 0-13.58-7.33l17.88-24.36a90 90 0 0 1 12.07 7.92zm-88.41 85.63C390 134.11 405 140 421.23 140c15 0 24.26-6.27 24.26-16.37v-.45c0-10.26-7.07-14.88-32.9-21.51-30-7.65-51.17-15.48-51.17-46.79v-.45c0-28.83 23.1-50.57 53.73-50.57A92.24 92.24 0 0 1 457 13.43l-8.34 11.39-.76-.34-1.19-.54-1.28-.55-1.16-.49-1.27-.5-1.11-.4-1.16-.43-1.1-.4-1.11-.38-1.08-.36-1.05-.32-1.07-.32-1-.27-1.08-.28-.92-.22-1.1-.25-.85-.17-1.12-.22-.77-.13-1.15-.25-.68-.1-1.23-.17-.58-.06-1.31-.14h-.42l-1.46-.12h-.18c-1.79-.11-3.58-.17-5.41-.18h-2.48l-1.24.07a45.5 45.5 0 0 0-23.78 8.92c-6.08 4.65-13.37 13-13.62 26.31-.46 24.78 24 32.64 45.38 36.71 20.48 4.66 39.42 11.81 39.42 32.41v.38c.06 20-13.42 30.17-40.07 30.29h-2.15l-1.28-.06h-.66l-1.18-.1-.75-.06-1.14-.13-.79-.09-1.11-.16-.8-.12-1.09-.19-.81-.14-1.08-.22-.81-.17-1.08-.25-.8-.19-1.08-.28-.79-.21-1.07-.3-.79-.23-1.06-.33-.77-.24-1.07-.36-.75-.26-1.06-.38-.75-.27-1-.4-.73-.29-1-.42-.72-.3-1-.44-.71-.31-1-.46-.7-.32-1-.48-.68-.33-1-.5-.65-.33-1-.52-.63-.33-1-.54-.61-.33-1-.55-.6-.34-1-.56-.58-.34-1-.58-.54-.33-1-.59-.54-.34-1-.6-.51-.33-1-.61-.45-.3-1-.65-.39-.27-1-.68-.35-.24-1-.7-.28-.2-1-.74-1.26-.92zM477 120.26c0 29.25-21.62 47.42-56.43 47.42a98.84 98.84 0 0 1-64.87-23.91l8.37-10c19.44 14.34 38.06 21.61 55.35 21.61h.26c19.69-.08 43.14-5.93 43.06-33.29v-.37c0-10.5-4.61-18.88-13.71-24.91-8.16-5.41-18.75-8.3-28.08-10.42-30.07-5.74-43.34-16.14-43-33.73.27-14.6 12.15-29.58 32-32.07a46.87 46.87 0 0 1 5.85-.37h.2c1.26 0 2.49 0 3.72.09h.4l1.4.08h.59l1.2.1.69.07 1.11.12.75.1L427 21l.8.13 1 .18.82.16 1 .21.86.2 1 .25.88.23 1.06.29.92.27 1.09.34.94.31 1.13.39 1 .35 1.17.44 1 .39 1.23.5 1 .44 1.29.56 1.07.48.45.21-7.91 10.8a70 70 0 0 0-24.19-4.27c-14.14 0-21.78 9-21.78 17.49v.45c0 12.09 9.11 15.51 35.15 22.18C458.3 81.79 477 92.22 477 119.81z" fill="#21303b"/>
</symbol><symbol id="emoji-cool" viewBox="0 0 27 27">

    <title>
        emoji-cool
    </title>
    <circle class="a" cx="13.5" cy="13.5" r="12.5"/>
    <path class="b" d="M13.5 26.5a13 13 0 1 1 13-13 13 13 0 0 1-13 13zm0-25a12 12 0 1 0 12 12 12 12 0 0 0-12-12z"/>
    <path class="c" d="M1 7v2h2a5 5 0 0 0 10 0h1a5 5 0 0 0 10 0h2V7z"/>
    <path class="d" d="M8 18a11 11 0 0 0 5.5 2 11 11 0 0 0 5.5-2"/>
</symbol><symbol id="globe" viewBox="0 0 143.8 143.7">
    <g fill="#FBC227">
        <path d="M27.2 87.4c5.7 0 10.4-2.3 14.1-6.8l7.5 7.7c-6 6.7-13 10-21 10-8.1 0-14.7-2.5-20-7.6C2.6 85.6 0 79.2 0 71.4s2.7-14.3 8-19.5 11.8-7.8 19.5-7.8c8.6 0 15.8 3.3 21.6 9.8l-7.3 8.2c-3.7-4.6-8.3-6.9-13.8-6.9-4.4 0-8.2 1.4-11.3 4.3S12 66.3 12 71.1s1.5 8.8 4.4 11.7c3.1 3.2 6.6 4.6 10.8 4.6zM70.3 55.8c-1.1.9-1.7 2.2-1.7 3.7s.7 2.7 2.1 3.6c1.4.9 4.5 2 9.5 3.2s8.8 3.1 11.6 5.5c2.7 2.5 4.1 6 4.1 10.7s-1.8 8.5-5.3 11.4-8.2 4.4-13.9 4.4c-8.3 0-15.8-3.1-22.4-9.2l7-8.5c5.6 5 10.9 7.4 15.7 7.4 2.1 0 3.8-.5 5.1-1.4 1.2-.9 1.8-2.2 1.8-3.8s-.7-2.8-2-3.8c-1.3-.9-3.9-1.9-7.7-2.8-6.1-1.4-10.6-3.3-13.4-5.7-2.8-2.3-4.2-6-4.2-11S58.4 50.7 62 48c3.6-2.7 8-4 13.4-4 3.5 0 7 .6 10.5 1.8 3.5 1.2 6.5 2.9 9.1 5.1l-5.9 8.5c-4.5-3.5-9.3-5.2-14.1-5.2-2 .2-3.6.7-4.7 1.6zm47.9 0c-1.1.9-1.7 2.2-1.7 3.7s.7 2.7 2.1 3.6c1.4.9 4.5 2 9.5 3.2s8.8 3.1 11.6 5.5c2.7 2.5 4.1 6 4.1 10.7s-1.8 8.5-5.3 11.4-8.2 4.4-13.9 4.4c-8.3 0-15.8-3.1-22.4-9.2l7-8.5c5.6 5 10.9 7.4 15.7 7.4 2.1 0 3.8-.5 5.1-1.4 1.2-.9 1.8-2.2 1.8-3.8s-.7-2.8-2-3.8c-1.3-.9-3.9-1.9-7.7-2.8-6.1-1.4-10.6-3.3-13.4-5.7-2.8-2.3-4.2-6-4.2-11s1.8-8.8 5.4-11.5c3.6-2.7 8-4 13.4-4 3.5 0 7 .6 10.5 1.8 3.5 1.2 6.5 2.9 9.1 5.1l-5.9 8.5c-4.5-3.5-9.3-5.2-14.1-5.2-2.1.2-3.6.7-4.7 1.6z"/>
    </g>
    <g fill="hsl(0, 0%, 7%)">
        <path d="M23.5 37.3c2.2-3 4.7-6.5 7.6-9.3 5.1-5 10.8-9.1 17.2-12.1-4.4 5.9-8.1 13.4-10.9 21.4h10.2c1.5-4 3.3-7.8 5.3-11.1 3.2-5.4 7.1-9.8 11.1-12.6 2.1-1.5 4.6-2.6 6.6-3.3v27h9v-27c3 .6 4.6 1.7 6.7 3.2 4 2.8 7.9 7.2 11.1 12.6 2 3.3 3.9 7.1 5.4 11.1H113c-2.8-8-6.4-15.6-10.9-21.5 6.4 3.1 12.2 7.2 17.2 12.2 2.8 2.8 5.4 6.2 7.6 9.2h11.3C125.9 15.1 102.3 0 75.2 0s-50.7 15.1-63 37.1h11.3v.2zM126.5 107.3c-2.1 3-4.4 6-7.1 8.7-5.1 5-10.8 9-17.2 12.1 4.3-5.7 7.9-12.7 10.6-20.7h-10.2c-1.4 4-3.1 7.4-5 10.5-3.2 5.4-7.3 9.8-11.2 12.6-2.1 1.5-3.7 2.7-6.7 3.3v-26.5h-9v26.5c-2-.6-4.5-1.7-6.6-3.2-4-2.8-7.9-7.4-11.1-12.8-1.9-3.1-3.6-6.5-5-10.5H37.7c2.7 8 6.3 15.2 10.6 20.9-6.4-3.1-12.2-7.3-17.2-12.3-2.6-2.6-5-5.5-7.1-8.5H12.7c12.4 22 35.8 36.3 62.5 36.3s50.1-14.3 62.5-36.3h-11.2v-.1z"/>
    </g>
</symbol><symbol id="start-arc-1" viewBox="0 0 181 181">
    <title>
        Path 4 Copy
    </title>
    <path d="M2 10.578s177.692-32.09 170.805 170.137" stroke="#2B2B2B" stroke-width="15.68" fill="none" fill-rule="evenodd"/>
</symbol><symbol id="start-arc-2" viewBox="0 0 374 362">
    <title>
        Path 3 Copy
    </title>
    <path d="M8.711 1s-58.23 363.938 365.063 354.42" stroke="#2B2B2B" stroke-width="11.2" fill="none" fill-rule="evenodd"/>
</symbol><symbol id="start-blue-arc" viewBox="0 0 132 132">
    <title>
        Artboard 1
    </title>
    <path d="M66 100a34 34 0 0 1-34-34H0a66 66 0 0 0 132 0h-32a34 34 0 0 1-34 34z" fill="#2176ff"/>
</symbol><symbol id="start-blue-finger" viewBox="0 0 188 199">
    <title>
        start-blue-finger
    </title>
    <path d="M181.75 128.91q-.69-1.19-1.44-2.33h.07L107.32 0H0l99.89 173h.07q.61 1.22 1.3 2.41a46.47 46.47 0 1 0 80.49-46.47z" fill="#2176ff"/>
    <path d="M145.65 113.35L105 136.84l14.83 25.91c.24.39.45.79.68 1.19a23.19 23.19 0 0 0 31.84 8.52 23.6 23.6 0 0 0 8.83-32q-.34-.6-.71-1.17z" fill="#34198c"/>
</symbol><symbol id="start-circle" viewBox="0 0 47 47">
    <title>
        Oval 4 Copy 22
    </title>
    <ellipse cx="1217.5" cy="363.5" rx="23.5" ry="23.5" transform="translate(-1194 -340)" fill="#FBC227" fill-rule="evenodd"/>
</symbol><symbol id="start-donut" viewBox="0 0 101 101">
    <title>
        Combined Shape
    </title>
    <path d="M28.913 63.386a25.002 25.002 0 0 1-3.584-12.939c0-13.872 11.246-25.118 25.118-25.118 13.873 0 25.12 11.246 25.12 25.118 0 13.873-11.247 25.12-25.12 25.12a25.005 25.005 0 0 1-12.187-3.15 6.674 6.674 0 1 1-9.347-9.03zm3.453 34.26A50.38 50.38 0 0 0 50.5 101c27.89 0 50.5-22.61 50.5-50.5S78.39 0 50.5 0c-.733 0-1.463.016-2.189.047a7.935 7.935 0 0 1-15.47 3.127C13.658 10.334 0 28.822 0 50.5c0 16.156 7.587 30.54 19.393 39.784a7.935 7.935 0 0 1 12.973 7.362zM17.814 47.715a5.097 5.097 0 1 0 0-10.195 5.097 5.097 0 0 0 0 10.195zm42.04-28.797a5.097 5.097 0 1 0 0-10.195 5.097 5.097 0 0 0 0 10.195zm26.8 12.927a5.097 5.097 0 1 0 0-10.195 5.097 5.097 0 0 0 0 10.195zm.053 28.587a5.15 5.15 0 1 0 0-10.3 5.15 5.15 0 0 0 0 10.3zM64.899 94.589a6.148 6.148 0 1 0 0-12.297 6.148 6.148 0 0 0 0 12.297z" fill="#3EC446" fill-rule="evenodd"/>
</symbol><symbol id="start-green-gradient" viewBox="0 0 62 151">
    <title>
        Combined Shape Copy 4
    </title>

    <path d="M1120.792 791.483h.036V664.324h-41.434v127.16h.035c-.023.4-.035.803-.035 1.209 0 11.358 9.275 20.566 20.717 20.566 11.441 0 20.717-9.208 20.717-20.566 0-.406-.012-.81-.036-1.21z" transform="rotate(-9 -3639.643 7192.905)" fill="url(#start-green-gradient-a)" fill-rule="evenodd"/>
</symbol><symbol id="start-red-thumb" viewBox="0 0 76 74">
    <title>
        Artboard 1
    </title>
    <path d="M6 0L.79 31.9c-.09.66-.22 1.32-.33 2A34.09 34.09 0 0 0 28.72 73H29a34.68 34.68 0 0 0 39.74-28.3q.17-1 .27-2L76 0z" fill="#ea3a3a"/>
</symbol><symbol id="start-tiny-triangle" viewBox="0 0 45 47">
    <title>
        Triangle Copy 3
    </title>
    <path d="M0 46.127L29.955 0l14.376 42.126z" fill="#42CDB2" fill-rule="evenodd"/>
</symbol><symbol id="start-triangle-group" viewBox="0 0 182 89">
    <title>
        Group 3
    </title>

    <g fill="none" fill-rule="evenodd">
        <path fill="#FA99B4" d="M112.633 44.465H43.767L78.2.5zM43.764 44.465H.654L22.21 16.944z"/>
        <path fill="url(#start-triangle-group-a)" d="M181.195 44.465h-68.866L146.762.5z"/>
        <path fill="#34198C" d="M181.586 88.697H112.72l34.433-43.963z"/>
    </g>
</symbol><symbol id="tri-triangles-a" viewBox="0 0 240 158">
    <title>
        Group 10
    </title>
    <g fill="none" fill-rule="evenodd">
        <path fill="#FA99B4" d="M123 79H0L61.5 0z"/>
        <path fill="#544EBF" d="M123 158H0l61.5-79z"/>
        <path fill="#544EBF" d="M240 158H117l61.5-79z"/>
    </g>
</symbol><symbol id="tri-triangles-b" viewBox="0 0 256 181">
    <title>
        shape15
    </title>
    <g fill="#2176FF" fill-rule="evenodd">
        <path d="M253 94H128l62.5-80zM253 178H128l62.5-80z"/>
        <path d="M129 94H4l62.5-80z"/>
    </g>
</symbol></svg>
