<svg xmlns="http://www.w3.org/2000/svg"><defs><style>.a{fill:url(#a)}.b{fill:#ffe90a}.c{fill:#2b2b2b}.d{fill:none;stroke:#2b2b2b}</style><linearGradient id="a" x1="-134.86" y1="163.36" x2="-134.86" y2="162.36" gradientTransform="matrix(25 0 0 -25 3385 4085)" gradientUnits="userSpaceOnUse"><stop offset="0" stop-color="#ffe90a"/><stop offset="1" stop-color="#feba00"/></linearGradient></defs><symbol id="arc" viewBox="0 0 295 148"><title>Combined Shape</title><path d="M295 0c0 81.738-66.038 148-147.5 148S0 81.738 0 0h74.1c0 40.675 32.862 73.65 73.4 73.65 40.538 0 73.4-32.975 73.4-73.65H295z" fill="#3EC446" fill-rule="evenodd"/></symbol><symbol id="arrow" viewBox="0 0 41 27"><title>Group 4</title><g fill="#2176FF" fill-rule="evenodd"><path d="M23 27V0l18 13.5z"/><path d="M0 11h25v4H0z"/></g></symbol><symbol id="check" viewBox="0 0 15 14"><title>Group 7</title><g fill="#3EC446" fill-rule="evenodd"><path d="M.582 8.883l1-1.732 6.928 4-1 1.732z"/><path d="M12.594.808l1.732 1-6.5 11.258-1.732-1z"/></g></symbol><symbol id="circle" viewBox="0 0 257 257"><title>shape14</title><ellipse cx="129" cy="129" rx="124" ry="124" fill="#42CDB2" fill-rule="evenodd"/></symbol><symbol id="combined-shapes-a" viewBox="0 0 396 324"><title>Group 3</title><g transform="translate(-8)" fill="#5999FF" fill-rule="evenodd"><path d="M123.823 233.43c-5.011 31.638-34.721 53.224-66.36 48.213-31.638-5.011-53.223-34.721-48.212-66.36l28.778 4.559c-2.493 15.744 8.248 30.529 23.993 33.022 15.744 2.494 30.528-8.248 33.022-23.992l28.779 4.558zM231.59 286.642l.05-.008-28.982-182.991-59.262 9.386L172.38 296.02l.05-.008a30.4 30.4 0 0 0 .226 1.75c2.589 16.345 17.954 27.494 34.318 24.902 16.365-2.592 27.532-17.943 24.943-34.289a30.4 30.4 0 0 0-.326-1.733zM298 168h-59.844l-.143 37.777c.013.573-.008 1.152-.012 1.734C237.883 223.797 251.184 237 267.71 237c16.525 0 30.017-13.203 30.134-29.489.005-.582-.008-1.16-.038-1.734L298 168z"/><circle cx="267.5" cy="29.5" r="29.5"/><path d="M400.575 160.375c10.767-40.588-13.26-82.233-53.74-93.08-40.48-10.847-82.11 13.206-93.08 53.74l146.82 39.34zM87.708 147.464a47.82 47.82 0 0 1-.109-.048c-23.148-10.307-33.72-37.067-23.61-59.77 10.108-22.705 37.068-32.756 60.216-22.45l.11.05-36.607 82.218z"/></g></symbol><symbol id="combined-shapes-b" viewBox="0 0 899 419"><title>Group 9</title><g transform="translate(-23 -122)" fill="#5999FF" fill-rule="evenodd"><path d="M343.065 447.372c-13.823 87.278-96.224 146.754-184.047 132.844C71.195 566.306 11.206 484.278 25.03 397l79.885 12.653c-6.879 43.432 22.973 84.252 66.677 91.174 43.703 6.921 84.708-22.676 91.587-66.108l79.886 12.653zM640.15 508.32l.14-.022L559.885.644 394.941 26.768l80.405 507.654.14-.022c.16 1.613.368 3.23.625 4.852 7.182 45.345 49.928 76.256 95.476 69.042 45.548-7.214 76.65-49.822 69.468-95.167a84.06 84.06 0 0 0-.906-4.807z"/><circle cx="838" cy="125" r="84"/></g></symbol><symbol id="corner" viewBox="0 0 950 1915"><title>shape12</title><path d="M878.264 1202.89l.463-.289L-174.553-483-719-142.792 334.28 1542.81l.464-.289a326.987 326.987 0 0 0 9.557 16.326c94.082 150.563 292.23 196.46 442.574 102.514 150.345-93.946 195.955-292.16 101.873-442.722a326.987 326.987 0 0 0-10.484-15.747z" fill="#2176FF" fill-rule="evenodd"/></symbol><symbol id="cssconf-family-globe" viewBox="0 0 202.4 165.5"><circle class="circle-yellow" cx="125.8" cy="7.3" r="4.3"/><circle class="circle-red" cx="9.2" cy="40.6" r="7"/><circle class="circle-blue" cx="187.3" cy="38.2" r="12.9"/><g class="type"><path class="type__letter-c" d="M46.7 106.9c5.7 0 10.4-2.3 14.1-6.8l7.5 7.7c-6 6.7-13 10-21 10-8.1 0-14.7-2.5-20-7.6-5.2-5.1-7.8-11.5-7.8-19.3 0-7.8 2.7-14.3 8-19.5 5.3-5.2 11.8-7.8 19.5-7.8 8.6 0 15.8 3.3 21.6 9.8l-7.3 8.2c-3.7-4.6-8.3-6.9-13.8-6.9-4.4 0-8.2 1.4-11.3 4.3-3.1 2.9-4.7 6.8-4.7 11.6s1.5 8.8 4.4 11.7c3.1 3.2 6.6 4.6 10.8 4.6z"/><path class="type__letter-s" d="M89.8 75.3c-1.1.9-1.7 2.2-1.7 3.7s.7 2.7 2.1 3.6c1.4.9 4.5 2 9.5 3.2 5 1.2 8.8 3.1 11.6 5.5 2.7 2.5 4.1 6 4.1 10.7 0 4.7-1.8 8.5-5.3 11.4-3.5 2.9-8.2 4.4-13.9 4.4-8.3 0-15.8-3.1-22.4-9.2l7-8.5c5.6 5 10.9 7.4 15.7 7.4 2.1 0 3.8-.5 5.1-1.4 1.2-.9 1.8-2.2 1.8-3.8s-.7-2.8-2-3.8c-1.3-.9-3.9-1.9-7.7-2.8-6.1-1.4-10.6-3.3-13.4-5.7-2.8-2.3-4.2-6-4.2-11s1.8-8.8 5.4-11.5c3.6-2.7 8-4 13.4-4 3.5 0 7 .6 10.5 1.8 3.5 1.2 6.5 2.9 9.1 5.1l-5.9 8.5c-4.5-3.5-9.3-5.2-14.1-5.2-2 .2-3.6.7-4.7 1.6zM137.7 75.3c-1.1.9-1.7 2.2-1.7 3.7s.7 2.7 2.1 3.6c1.4.9 4.5 2 9.5 3.2 5 1.2 8.8 3.1 11.6 5.5 2.7 2.5 4.1 6 4.1 10.7 0 4.7-1.8 8.5-5.3 11.4-3.5 2.9-8.2 4.4-13.9 4.4-8.3 0-15.8-3.1-22.4-9.2l7-8.5c5.6 5 10.9 7.4 15.7 7.4 2.1 0 3.8-.5 5.1-1.4 1.2-.9 1.8-2.2 1.8-3.8s-.7-2.8-2-3.8c-1.3-.9-3.9-1.9-7.7-2.8-6.1-1.4-10.6-3.3-13.4-5.7-2.8-2.3-4.2-6-4.2-11s1.8-8.8 5.4-11.5c3.6-2.7 8-4 13.4-4 3.5 0 7 .6 10.5 1.8 3.5 1.2 6.5 2.9 9.1 5.1l-5.9 8.5c-4.5-3.5-9.3-5.2-14.1-5.2-2.1.2-3.6.7-4.7 1.6z"/></g><g class="globe"><path class="globe__upper-half" d="M43 56.8c2.2-3 4.7-6.5 7.6-9.3 5.1-5 10.8-9.1 17.2-12.1-4.4 5.9-8.1 13.4-10.9 21.4h10.2c1.5-4 3.3-7.8 5.3-11.1 3.2-5.4 7.1-9.8 11.1-12.6 2.1-1.5 4.6-2.6 6.6-3.3v27h9v-27c3 .6 4.6 1.7 6.7 3.2 4 2.8 7.9 7.2 11.1 12.6 2 3.3 3.9 7.1 5.4 11.1h10.2c-2.8-8-6.4-15.6-10.9-21.5 6.4 3.1 12.2 7.2 17.2 12.2 2.8 2.8 5.4 6.2 7.6 9.2h11.3c-12.3-22-35.9-37.1-63-37.1S44 34.6 31.7 56.6H43z"/><path class="globe__lower-half" d="M146 126.8c-2.1 3-4.4 6-7.1 8.7-5.1 5-10.8 9-17.2 12.1 4.3-5.7 7.9-12.7 10.6-20.7h-10.2c-1.4 4-3.1 7.4-5 10.5-3.2 5.4-7.3 9.8-11.2 12.6-2.1 1.5-3.7 2.7-6.7 3.3v-26.5h-9v26.5c-2-.6-4.5-1.7-6.6-3.2-4-2.8-7.9-7.4-11.1-12.8-1.9-3.1-3.6-6.5-5-10.5H57.2c2.7 8 6.3 15.2 10.6 20.9-6.4-3.1-12.2-7.3-17.2-12.3-2.6-2.6-5-5.5-7.1-8.5H32.2c12.4 22 35.8 36.3 62.5 36.3s50.1-14.3 62.5-36.3H146z"/></g></symbol><symbol id="emoji-cool" viewBox="0 0 27 27"><title>emoji-cool</title><circle class="a" cx="13.5" cy="13.5" r="12.5"/><path class="b" d="M13.5 26.5a13 13 0 1 1 13-13 13 13 0 0 1-13 13zm0-25a12 12 0 1 0 12 12 12 12 0 0 0-12-12z"/><path class="c" d="M1 7v2h2a5 5 0 0 0 10 0h1a5 5 0 0 0 10 0h2V7z"/><path class="d" d="M8 18a11 11 0 0 0 5.5 2 11 11 0 0 0 5.5-2"/></symbol><symbol id="globe" viewBox="0 0 143.8 143.7"><g fill="#FBC227"><path d="M27.2 87.4c5.7 0 10.4-2.3 14.1-6.8l7.5 7.7c-6 6.7-13 10-21 10-8.1 0-14.7-2.5-20-7.6C2.6 85.6 0 79.2 0 71.4s2.7-14.3 8-19.5 11.8-7.8 19.5-7.8c8.6 0 15.8 3.3 21.6 9.8l-7.3 8.2c-3.7-4.6-8.3-6.9-13.8-6.9-4.4 0-8.2 1.4-11.3 4.3S12 66.3 12 71.1s1.5 8.8 4.4 11.7c3.1 3.2 6.6 4.6 10.8 4.6zM70.3 55.8c-1.1.9-1.7 2.2-1.7 3.7s.7 2.7 2.1 3.6c1.4.9 4.5 2 9.5 3.2s8.8 3.1 11.6 5.5c2.7 2.5 4.1 6 4.1 10.7s-1.8 8.5-5.3 11.4-8.2 4.4-13.9 4.4c-8.3 0-15.8-3.1-22.4-9.2l7-8.5c5.6 5 10.9 7.4 15.7 7.4 2.1 0 3.8-.5 5.1-1.4 1.2-.9 1.8-2.2 1.8-3.8s-.7-2.8-2-3.8c-1.3-.9-3.9-1.9-7.7-2.8-6.1-1.4-10.6-3.3-13.4-5.7-2.8-2.3-4.2-6-4.2-11S58.4 50.7 62 48c3.6-2.7 8-4 13.4-4 3.5 0 7 .6 10.5 1.8 3.5 1.2 6.5 2.9 9.1 5.1l-5.9 8.5c-4.5-3.5-9.3-5.2-14.1-5.2-2 .2-3.6.7-4.7 1.6zm47.9 0c-1.1.9-1.7 2.2-1.7 3.7s.7 2.7 2.1 3.6c1.4.9 4.5 2 9.5 3.2s8.8 3.1 11.6 5.5c2.7 2.5 4.1 6 4.1 10.7s-1.8 8.5-5.3 11.4-8.2 4.4-13.9 4.4c-8.3 0-15.8-3.1-22.4-9.2l7-8.5c5.6 5 10.9 7.4 15.7 7.4 2.1 0 3.8-.5 5.1-1.4 1.2-.9 1.8-2.2 1.8-3.8s-.7-2.8-2-3.8c-1.3-.9-3.9-1.9-7.7-2.8-6.1-1.4-10.6-3.3-13.4-5.7-2.8-2.3-4.2-6-4.2-11s1.8-8.8 5.4-11.5c3.6-2.7 8-4 13.4-4 3.5 0 7 .6 10.5 1.8 3.5 1.2 6.5 2.9 9.1 5.1l-5.9 8.5c-4.5-3.5-9.3-5.2-14.1-5.2-2.1.2-3.6.7-4.7 1.6z"/></g><g fill="hsl(0, 0%, 7%)"><path d="M23.5 37.3c2.2-3 4.7-6.5 7.6-9.3 5.1-5 10.8-9.1 17.2-12.1-4.4 5.9-8.1 13.4-10.9 21.4h10.2c1.5-4 3.3-7.8 5.3-11.1 3.2-5.4 7.1-9.8 11.1-12.6 2.1-1.5 4.6-2.6 6.6-3.3v27h9v-27c3 .6 4.6 1.7 6.7 3.2 4 2.8 7.9 7.2 11.1 12.6 2 3.3 3.9 7.1 5.4 11.1H113c-2.8-8-6.4-15.6-10.9-21.5 6.4 3.1 12.2 7.2 17.2 12.2 2.8 2.8 5.4 6.2 7.6 9.2h11.3C125.9 15.1 102.3 0 75.2 0s-50.7 15.1-63 37.1h11.3v.2zM126.5 107.3c-2.1 3-4.4 6-7.1 8.7-5.1 5-10.8 9-17.2 12.1 4.3-5.7 7.9-12.7 10.6-20.7h-10.2c-1.4 4-3.1 7.4-5 10.5-3.2 5.4-7.3 9.8-11.2 12.6-2.1 1.5-3.7 2.7-6.7 3.3v-26.5h-9v26.5c-2-.6-4.5-1.7-6.6-3.2-4-2.8-7.9-7.4-11.1-12.8-1.9-3.1-3.6-6.5-5-10.5H37.7c2.7 8 6.3 15.2 10.6 20.9-6.4-3.1-12.2-7.3-17.2-12.3-2.6-2.6-5-5.5-7.1-8.5H12.7c12.4 22 35.8 36.3 62.5 36.3s50.1-14.3 62.5-36.3h-11.2v-.1z"/></g></symbol><symbol id="tri-triangles-a" viewBox="0 0 240 158"><title>Group 10</title><g fill="none" fill-rule="evenodd"><path fill="#FA99B4" d="M123 79H0L61.5 0z"/><path fill="#544EBF" d="M123 158H0l61.5-79z"/><path fill="#544EBF" d="M240 158H117l61.5-79z"/></g></symbol><symbol id="tri-triangles-b" viewBox="0 0 256 181"><title>shape15</title><g fill="#2176FF" fill-rule="evenodd"><path d="M253 94H128l62.5-80zM253 178H128l62.5-80z"/><path d="M129 94H4l62.5-80z"/></g></symbol></svg>