<svg xmlns="http://www.w3.org/2000/svg"><defs><style>.a{fill:url(#a)}.b{fill:#ffe90a}.c{fill:#2b2b2b}.d{fill:none;stroke:#2b2b2b}</style><linearGradient id="a" x1="-134.86" y1="163.36" x2="-134.86" y2="162.36" gradientTransform="matrix(25 0 0 -25 3385 4085)" gradientUnits="userSpaceOnUse"><stop offset="0" stop-color="#ffe90a"/><stop offset="1" stop-color="#feba00"/></linearGradient><style>.a{fill:#2176ff}.b{fill:#34198c}</style><linearGradient x1="50%" y1="0%" x2="50%" y2="100%" id="start-green-gradient-a"><stop stop-color="#FEE34F" offset="0%"/><stop stop-color="#3EC446" offset="100%"/></linearGradient><linearGradient x1="50%" y1="0%" x2="50%" y2="100%" id="start-triangle-group-a"><stop stop-color="#EA3A3A" offset="0%"/><stop stop-color="#FA99B4" offset="100%"/></linearGradient></defs><symbol id="arc" viewBox="0 0 295 148"><title>Combined Shape</title><path d="M295 0c0 81.738-66.038 148-147.5 148S0 81.738 0 0h74.1c0 40.675 32.862 73.65 73.4 73.65 40.538 0 73.4-32.975 73.4-73.65H295z" fill="#3EC446" fill-rule="evenodd"/></symbol><symbol id="arrow" viewBox="0 0 41 27"><title>Group 4</title><g fill="#2176FF" fill-rule="evenodd"><path d="M23 27V0l18 13.5z"/><path d="M0 11h25v4H0z"/></g></symbol><symbol id="check" viewBox="0 0 15 14"><title>Group 7</title><g fill="#3EC446" fill-rule="evenodd"><path d="M.582 8.883l1-1.732 6.928 4-1 1.732z"/><path d="M12.594.808l1.732 1-6.5 11.258-1.732-1z"/></g></symbol><symbol id="circle" viewBox="0 0 257 257"><title>shape14</title><ellipse cx="129" cy="129" rx="124" ry="124" fill="#42CDB2" fill-rule="evenodd"/></symbol><symbol id="combined-shapes-a" viewBox="0 0 396 324"><title>Group 3</title><g transform="translate(-8)" fill="#5999FF" fill-rule="evenodd"><path d="M123.823 233.43c-5.011 31.638-34.721 53.224-66.36 48.213-31.638-5.011-53.223-34.721-48.212-66.36l28.778 4.559c-2.493 15.744 8.248 30.529 23.993 33.022 15.744 2.494 30.528-8.248 33.022-23.992l28.779 4.558zM231.59 286.642l.05-.008-28.982-182.991-59.262 9.386L172.38 296.02l.05-.008a30.4 30.4 0 0 0 .226 1.75c2.589 16.345 17.954 27.494 34.318 24.902 16.365-2.592 27.532-17.943 24.943-34.289a30.4 30.4 0 0 0-.326-1.733zM298 168h-59.844l-.143 37.777c.013.573-.008 1.152-.012 1.734C237.883 223.797 251.184 237 267.71 237c16.525 0 30.017-13.203 30.134-29.489.005-.582-.008-1.16-.038-1.734L298 168z"/><circle cx="267.5" cy="29.5" r="29.5"/><path d="M400.575 160.375c10.767-40.588-13.26-82.233-53.74-93.08-40.48-10.847-82.11 13.206-93.08 53.74l146.82 39.34zM87.708 147.464a47.82 47.82 0 0 1-.109-.048c-23.148-10.307-33.72-37.067-23.61-59.77 10.108-22.705 37.068-32.756 60.216-22.45l.11.05-36.607 82.218z"/></g></symbol><symbol id="combined-shapes-b" viewBox="0 0 899 419"><title>Group 9</title><g transform="translate(-23 -122)" fill="#5999FF" fill-rule="evenodd"><path d="M343.065 447.372c-13.823 87.278-96.224 146.754-184.047 132.844C71.195 566.306 11.206 484.278 25.03 397l79.885 12.653c-6.879 43.432 22.973 84.252 66.677 91.174 43.703 6.921 84.708-22.676 91.587-66.108l79.886 12.653zM640.15 508.32l.14-.022L559.885.644 394.941 26.768l80.405 507.654.14-.022c.16 1.613.368 3.23.625 4.852 7.182 45.345 49.928 76.256 95.476 69.042 45.548-7.214 76.65-49.822 69.468-95.167a84.06 84.06 0 0 0-.906-4.807z"/><circle cx="838" cy="125" r="84"/></g></symbol><symbol id="corner" viewBox="0 0 950 1915"><title>shape12</title><path d="M878.264 1202.89l.463-.289L-174.553-483-719-142.792 334.28 1542.81l.464-.289a326.987 326.987 0 0 0 9.557 16.326c94.082 150.563 292.23 196.46 442.574 102.514 150.345-93.946 195.955-292.16 101.873-442.722a326.987 326.987 0 0 0-10.484-15.747z" fill="#2176FF" fill-rule="evenodd"/></symbol><symbol id="cssconf-family-globe" viewBox="0 0 202.4 165.5"><circle class="circle-yellow" cx="125.8" cy="7.3" r="4.3"/><circle class="circle-red" cx="9.2" cy="40.6" r="7"/><circle class="circle-blue" cx="187.3" cy="38.2" r="12.9"/><g class="type"><path class="type__letter-c" d="M46.7 106.9c5.7 0 10.4-2.3 14.1-6.8l7.5 7.7c-6 6.7-13 10-21 10-8.1 0-14.7-2.5-20-7.6-5.2-5.1-7.8-11.5-7.8-19.3 0-7.8 2.7-14.3 8-19.5 5.3-5.2 11.8-7.8 19.5-7.8 8.6 0 15.8 3.3 21.6 9.8l-7.3 8.2c-3.7-4.6-8.3-6.9-13.8-6.9-4.4 0-8.2 1.4-11.3 4.3-3.1 2.9-4.7 6.8-4.7 11.6s1.5 8.8 4.4 11.7c3.1 3.2 6.6 4.6 10.8 4.6z"/><path class="type__letter-s" d="M89.8 75.3c-1.1.9-1.7 2.2-1.7 3.7s.7 2.7 2.1 3.6c1.4.9 4.5 2 9.5 3.2 5 1.2 8.8 3.1 11.6 5.5 2.7 2.5 4.1 6 4.1 10.7 0 4.7-1.8 8.5-5.3 11.4-3.5 2.9-8.2 4.4-13.9 4.4-8.3 0-15.8-3.1-22.4-9.2l7-8.5c5.6 5 10.9 7.4 15.7 7.4 2.1 0 3.8-.5 5.1-1.4 1.2-.9 1.8-2.2 1.8-3.8s-.7-2.8-2-3.8c-1.3-.9-3.9-1.9-7.7-2.8-6.1-1.4-10.6-3.3-13.4-5.7-2.8-2.3-4.2-6-4.2-11s1.8-8.8 5.4-11.5c3.6-2.7 8-4 13.4-4 3.5 0 7 .6 10.5 1.8 3.5 1.2 6.5 2.9 9.1 5.1l-5.9 8.5c-4.5-3.5-9.3-5.2-14.1-5.2-2 .2-3.6.7-4.7 1.6zM137.7 75.3c-1.1.9-1.7 2.2-1.7 3.7s.7 2.7 2.1 3.6c1.4.9 4.5 2 9.5 3.2 5 1.2 8.8 3.1 11.6 5.5 2.7 2.5 4.1 6 4.1 10.7 0 4.7-1.8 8.5-5.3 11.4-3.5 2.9-8.2 4.4-13.9 4.4-8.3 0-15.8-3.1-22.4-9.2l7-8.5c5.6 5 10.9 7.4 15.7 7.4 2.1 0 3.8-.5 5.1-1.4 1.2-.9 1.8-2.2 1.8-3.8s-.7-2.8-2-3.8c-1.3-.9-3.9-1.9-7.7-2.8-6.1-1.4-10.6-3.3-13.4-5.7-2.8-2.3-4.2-6-4.2-11s1.8-8.8 5.4-11.5c3.6-2.7 8-4 13.4-4 3.5 0 7 .6 10.5 1.8 3.5 1.2 6.5 2.9 9.1 5.1l-5.9 8.5c-4.5-3.5-9.3-5.2-14.1-5.2-2.1.2-3.6.7-4.7 1.6z"/></g><g class="globe"><path class="globe__upper-half" d="M43 56.8c2.2-3 4.7-6.5 7.6-9.3 5.1-5 10.8-9.1 17.2-12.1-4.4 5.9-8.1 13.4-10.9 21.4h10.2c1.5-4 3.3-7.8 5.3-11.1 3.2-5.4 7.1-9.8 11.1-12.6 2.1-1.5 4.6-2.6 6.6-3.3v27h9v-27c3 .6 4.6 1.7 6.7 3.2 4 2.8 7.9 7.2 11.1 12.6 2 3.3 3.9 7.1 5.4 11.1h10.2c-2.8-8-6.4-15.6-10.9-21.5 6.4 3.1 12.2 7.2 17.2 12.2 2.8 2.8 5.4 6.2 7.6 9.2h11.3c-12.3-22-35.9-37.1-63-37.1S44 34.6 31.7 56.6H43z"/><path class="globe__lower-half" d="M146 126.8c-2.1 3-4.4 6-7.1 8.7-5.1 5-10.8 9-17.2 12.1 4.3-5.7 7.9-12.7 10.6-20.7h-10.2c-1.4 4-3.1 7.4-5 10.5-3.2 5.4-7.3 9.8-11.2 12.6-2.1 1.5-3.7 2.7-6.7 3.3v-26.5h-9v26.5c-2-.6-4.5-1.7-6.6-3.2-4-2.8-7.9-7.4-11.1-12.8-1.9-3.1-3.6-6.5-5-10.5H57.2c2.7 8 6.3 15.2 10.6 20.9-6.4-3.1-12.2-7.3-17.2-12.3-2.6-2.6-5-5.5-7.1-8.5H32.2c12.4 22 35.8 36.3 62.5 36.3s50.1-14.3 62.5-36.3H146z"/></g></symbol><symbol id="cssconfeu-logo-2017" viewBox="0 0 484 252"><title>Slice 1</title><g fill="none" fill-rule="evenodd"><text font-family="GTWalsheimProTrial-Medium, GT Walsheim Pro Trial" font-size="48" font-weight="400" letter-spacing=".8" fill="#191919"><tspan x="131.535" y="239.174">CONF.EU</tspan></text><path d="M245.161 103.285c26.491 6.793 31.925 11.32 31.925 20.15v.454c0 9.284-8.604 14.944-22.868 14.944-18.113 0-33.057-7.474-47.32-19.246l-10.354 12.401c15.034 11.286 35.135 22.349 56.106 22.258 42.718-.184 41.758-26.497 41.758-32.308 0-22.457-21.358-29.597-40.769-34.017-24.764-4.725-44.83-13.522-44.423-35.389.407-21.867 21.26-34.162 39.761-34.058 14.658.082 25.627 2.886 49.174 16.546l8.821-12.79C290.897 9.325 271.2 2.08 248.105 2.08c-32.377 0-55.47 23.545-55.47 52.302v.452c0 31.47 20.602 40.3 52.526 48.451" fill="#FFF"/><path d="M245.161 103.285c26.491 6.793 31.925 11.32 31.925 20.15v.454c0 9.284-8.604 14.944-22.868 14.944-18.113 0-33.057-7.474-47.32-19.246l-10.354 12.401c15.034 11.286 35.135 22.349 56.106 22.258 42.718-.184 41.758-26.497 41.758-32.308 0-22.457-21.358-29.597-40.769-34.017-24.764-4.725-44.83-13.522-44.423-35.389.407-21.867 21.26-34.162 39.761-34.058 14.658.082 25.627 2.886 49.174 16.546l8.821-12.79C290.897 9.325 271.2 2.08 248.105 2.08c-32.377 0-55.47 23.545-55.47 52.302v.452c0 31.47 20.602 40.3 52.526 48.451z" stroke="#262625" stroke-width="3"/><path d="M261.49 72.494c-27.396-7.02-34.189-10.416-34.189-20.83v-.453c0-7.698 7.02-16.075 20.377-16.075 13.359 0 27.17 3.623 41.207 13.358l9.293-13.474c-23.547-13.661-34.516-16.463-49.174-16.546-18.502-.105-39.354 12.19-39.762 34.058-.407 21.868 19.66 30.664 44.424 35.389 19.411 4.419 40.768 11.56 40.768 34.017 0 5.812.961 32.125-41.757 32.308-20.971.091-41.072-10.971-56.106-22.257l-10.25 12.278c19.019 16.98 43.244 25.357 67.245 25.357 34.187 0 58.187-17.661 58.187-49.131v-.453c0-27.622-18.113-39.169-50.263-47.546" fill="#42CDB2"/><path d="M261.49 72.494c-27.396-7.02-34.189-10.416-34.189-20.83v-.453c0-7.698 7.02-16.075 20.377-16.075 13.359 0 27.17 3.623 41.207 13.358l9.293-13.474c-23.547-13.661-34.516-16.463-49.174-16.546-18.502-.105-39.354 12.19-39.762 34.058-.407 21.868 19.66 30.664 44.424 35.389 19.411 4.419 40.768 11.56 40.768 34.017 0 5.812.961 32.125-41.757 32.308-20.971.091-41.072-10.971-56.106-22.257l-10.25 12.278c19.019 16.98 43.244 25.357 67.245 25.357 34.187 0 58.187-17.661 58.187-49.131v-.453c0-27.622-18.113-39.169-50.263-47.546z" stroke="#262625" stroke-width="3"/><path d="M220.203 129.049c-4.534-2.696-8.935-5.876-13.274-9.457l-20.603 24.68a98.433 98.433 0 0 0 14.947 10.998l18.93-26.221z" fill="#3EC446"/><path d="M220.203 129.049c-4.534-2.696-8.935-5.876-13.274-9.457l-20.603 24.68a98.433 98.433 0 0 0 14.947 10.998l18.93-26.221z" stroke="#1D1E1C" stroke-width="3"/><path d="M99.41 86.237c0 7.556-6.125 13.681-13.681 13.681-7.556 0-13.682-6.125-13.682-13.68 0-7.557 6.126-13.682 13.682-13.682s13.68 6.125 13.68 13.681" fill="#42CDB2"/><path d="M99.41 86.237c0 7.556-6.125 13.681-13.681 13.681-7.556 0-13.682-6.125-13.682-13.68 0-7.557 6.126-13.682 13.682-13.682s13.68 6.125 13.68 13.681z" stroke="#080B0B" stroke-width="3"/><path d="M26.126 146.076C10.041 130.067 2 110.01 2 85.901c.073-23.583 8.134-43.418 24.182-59.503C42.228 10.316 62.119 2.272 85.853 2.272c23.958 0 44.519 7.465 61.686 22.391l-22.391 24.518c-11.419-8.957-24.517-13.435-39.295-13.435-15.077.076-27.224 4.778-36.441 14.106-9.219 9.331-13.826 21.271-13.826 35.825.073 15.6 4.739 27.989 13.994 37.169 9.254 9.18 21.42 13.77 36.497 13.77 15.075 0 28.1-4.44 39.071-13.322l22.391 24.517c-17.092 14.929-37.655 22.391-61.686 22.391-23.734-.073-43.644-8.117-59.727-24.126" fill="#FFF"/><path d="M26.126 146.076C10.041 130.067 2 110.01 2 85.901c.073-23.583 8.134-43.418 24.182-59.503C42.228 10.316 62.119 2.272 85.853 2.272c23.958 0 44.519 7.465 61.686 22.391l-22.391 24.518c-11.419-8.957-24.517-13.435-39.295-13.435-15.077.076-27.224 4.778-36.441 14.106-9.219 9.331-13.826 21.271-13.826 35.825.073 15.6 4.739 27.989 13.994 37.169 9.254 9.18 21.42 13.77 36.497 13.77 15.075 0 28.1-4.44 39.071-13.322l22.391 24.517c-17.092 14.929-37.655 22.391-61.686 22.391-23.734-.073-43.644-8.117-59.727-24.126z" stroke="#1D1E1C" stroke-width="3"/><path d="M136.688 135.947c-14.683 11.626-30.803 16.416-50.978 16.416-20.177 0-36.46-6.007-48.844-18.023-12.386-12.015-18.63-28.229-18.728-48.646 0-19.049 6.166-34.677 18.504-46.889 12.335-12.21 27.818-20.179 47.996-20.277 19.777 0 36.556 6.533 51.838 18.255l-11.322 12.398c-11.42-8.957-24.518-13.435-39.296-13.435-15.077.076-27.223 4.778-36.44 14.106-9.22 9.331-13.827 21.271-13.827 35.825.074 15.6 4.739 27.989 13.995 37.169 9.253 9.18 21.419 13.77 36.496 13.77 15.075 0 28.1-4.439 39.072-13.322l11.36 12.439.174.214z" fill="#2176FF"/><path d="M136.688 135.947c-14.683 11.626-30.803 16.416-50.978 16.416-20.177 0-36.46-6.007-48.844-18.023-12.386-12.015-18.63-28.229-18.728-48.646 0-19.049 6.166-34.677 18.504-46.889 12.335-12.21 27.818-20.179 47.996-20.277 19.777 0 36.556 6.533 51.838 18.255l-11.322 12.398c-11.42-8.957-24.518-13.435-39.296-13.435-15.077.076-27.223 4.778-36.44 14.106-9.22 9.331-13.827 21.271-13.827 35.825.074 15.6 4.739 27.989 13.995 37.169 9.253 9.18 21.419 13.77 36.496 13.77 15.075 0 28.1-4.439 39.072-13.322l11.36 12.439.174.214z" stroke="#080B0B" stroke-width="3"/><path d="M414.925 103.289c26.513 6.798 31.95 11.329 31.95 20.167v.454c0 9.291-8.61 14.955-22.885 14.955-18.128 0-33.084-7.479-47.36-19.261l-10.362 12.412.016.012.01-.012c15.044 11.293 35.155 22.361 56.138 22.276 42.74-.189 41.78-26.519 41.78-32.335 0-22.476-21.375-29.622-40.802-34.045-24.784-4.729-44.868-13.532-44.46-35.418.408-21.886 21.277-34.191 39.794-34.086h.027c10.892.061 19.754 1.628 33.24 8.025l10.157-13.861C449.195 5.729 434.408 2 417.87 2c-32.403 0-55.516 23.565-55.516 52.344v.453c0 31.497 20.62 40.335 52.57 48.492" fill="#FFF"/><path d="M414.925 103.289c26.513 6.798 31.95 11.329 31.95 20.167v.454c0 9.291-8.61 14.955-22.885 14.955-18.128 0-33.084-7.479-47.36-19.261l-10.362 12.412.016.012.01-.012c15.044 11.293 35.155 22.361 56.138 22.276 42.74-.189 41.78-26.519 41.78-32.335 0-22.476-21.375-29.622-40.802-34.045-24.784-4.729-44.868-13.532-44.46-35.418.408-21.886 21.277-34.191 39.794-34.086h.027c10.892.061 19.754 1.628 33.24 8.025l10.157-13.861C449.195 5.729 434.408 2 417.87 2c-32.403 0-55.516 23.565-55.516 52.344v.453c0 31.497 20.62 40.335 52.57 48.492z" stroke="#262625" stroke-width="3"/><path d="M431.267 72.472c-27.418-7.025-34.217-10.424-34.217-20.847v-.454c0-7.704 7.026-16.088 20.394-16.088 8.135 0 16.439 1.354 24.858 4.601l9.709-13.25c-13.486-6.398-22.348-7.965-33.24-8.027-18.517-.104-39.387 12.201-39.795 34.087-.407 21.886 19.676 30.69 44.46 35.417 19.428 4.424 40.803 11.57 40.803 34.046 0 5.816.96 32.151-41.793 32.335-20.988.09-41.105-10.98-56.152-22.276l-10.258 12.288c19.035 16.994 43.28 25.378 67.3 25.378 34.216 0 58.235-17.675 58.235-49.17v-.455c0-27.645-18.127-39.2-50.304-47.585" fill="#EB3A3A"/><path d="M431.267 72.472c-27.418-7.025-34.217-10.424-34.217-20.847v-.454c0-7.704 7.026-16.088 20.394-16.088 8.135 0 16.439 1.354 24.858 4.601l9.709-13.25c-13.486-6.398-22.348-7.965-33.24-8.027-18.517-.104-39.387 12.201-39.795 34.087-.407 21.886 19.676 30.69 44.46 35.417 19.428 4.424 40.803 11.57 40.803 34.046 0 5.816.96 32.151-41.793 32.335-20.988.09-41.105-10.98-56.152-22.276l-10.258 12.288c19.035 16.994 43.28 25.378 67.3 25.378 34.216 0 58.235-17.675 58.235-49.17v-.455c0-27.645-18.127-39.2-50.304-47.585z" stroke="#262625" stroke-width="3"/><path d="M462.205 12.577l-19.894 27.1c5.423 2.09 10.894 4.956 16.4 8.775l9.3-13.485a.118.118 0 0 0-.02-.01l8.822-12.79a91.518 91.518 0 0 0-14.608-9.59" fill="#FBC227"/><path d="M462.205 12.577l-19.894 27.1c5.423 2.09 10.894 4.956 16.4 8.775l9.3-13.485a.118.118 0 0 0-.02-.01l8.822-12.79a91.518 91.518 0 0 0-14.608-9.59z" stroke="#1D1E1C" stroke-width="3"/></g></symbol><symbol id="emoji-cool" viewBox="0 0 27 27"><title>emoji-cool</title><circle class="a" cx="13.5" cy="13.5" r="12.5"/><path class="b" d="M13.5 26.5a13 13 0 1 1 13-13 13 13 0 0 1-13 13zm0-25a12 12 0 1 0 12 12 12 12 0 0 0-12-12z"/><path class="c" d="M1 7v2h2a5 5 0 0 0 10 0h1a5 5 0 0 0 10 0h2V7z"/><path class="d" d="M8 18a11 11 0 0 0 5.5 2 11 11 0 0 0 5.5-2"/></symbol><symbol id="globe" viewBox="0 0 143.8 143.7"><g fill="#FBC227"><path d="M27.2 87.4c5.7 0 10.4-2.3 14.1-6.8l7.5 7.7c-6 6.7-13 10-21 10-8.1 0-14.7-2.5-20-7.6C2.6 85.6 0 79.2 0 71.4s2.7-14.3 8-19.5 11.8-7.8 19.5-7.8c8.6 0 15.8 3.3 21.6 9.8l-7.3 8.2c-3.7-4.6-8.3-6.9-13.8-6.9-4.4 0-8.2 1.4-11.3 4.3S12 66.3 12 71.1s1.5 8.8 4.4 11.7c3.1 3.2 6.6 4.6 10.8 4.6zM70.3 55.8c-1.1.9-1.7 2.2-1.7 3.7s.7 2.7 2.1 3.6c1.4.9 4.5 2 9.5 3.2s8.8 3.1 11.6 5.5c2.7 2.5 4.1 6 4.1 10.7s-1.8 8.5-5.3 11.4-8.2 4.4-13.9 4.4c-8.3 0-15.8-3.1-22.4-9.2l7-8.5c5.6 5 10.9 7.4 15.7 7.4 2.1 0 3.8-.5 5.1-1.4 1.2-.9 1.8-2.2 1.8-3.8s-.7-2.8-2-3.8c-1.3-.9-3.9-1.9-7.7-2.8-6.1-1.4-10.6-3.3-13.4-5.7-2.8-2.3-4.2-6-4.2-11S58.4 50.7 62 48c3.6-2.7 8-4 13.4-4 3.5 0 7 .6 10.5 1.8 3.5 1.2 6.5 2.9 9.1 5.1l-5.9 8.5c-4.5-3.5-9.3-5.2-14.1-5.2-2 .2-3.6.7-4.7 1.6zm47.9 0c-1.1.9-1.7 2.2-1.7 3.7s.7 2.7 2.1 3.6c1.4.9 4.5 2 9.5 3.2s8.8 3.1 11.6 5.5c2.7 2.5 4.1 6 4.1 10.7s-1.8 8.5-5.3 11.4-8.2 4.4-13.9 4.4c-8.3 0-15.8-3.1-22.4-9.2l7-8.5c5.6 5 10.9 7.4 15.7 7.4 2.1 0 3.8-.5 5.1-1.4 1.2-.9 1.8-2.2 1.8-3.8s-.7-2.8-2-3.8c-1.3-.9-3.9-1.9-7.7-2.8-6.1-1.4-10.6-3.3-13.4-5.7-2.8-2.3-4.2-6-4.2-11s1.8-8.8 5.4-11.5c3.6-2.7 8-4 13.4-4 3.5 0 7 .6 10.5 1.8 3.5 1.2 6.5 2.9 9.1 5.1l-5.9 8.5c-4.5-3.5-9.3-5.2-14.1-5.2-2.1.2-3.6.7-4.7 1.6z"/></g><g fill="hsl(0, 0%, 7%)"><path d="M23.5 37.3c2.2-3 4.7-6.5 7.6-9.3 5.1-5 10.8-9.1 17.2-12.1-4.4 5.9-8.1 13.4-10.9 21.4h10.2c1.5-4 3.3-7.8 5.3-11.1 3.2-5.4 7.1-9.8 11.1-12.6 2.1-1.5 4.6-2.6 6.6-3.3v27h9v-27c3 .6 4.6 1.7 6.7 3.2 4 2.8 7.9 7.2 11.1 12.6 2 3.3 3.9 7.1 5.4 11.1H113c-2.8-8-6.4-15.6-10.9-21.5 6.4 3.1 12.2 7.2 17.2 12.2 2.8 2.8 5.4 6.2 7.6 9.2h11.3C125.9 15.1 102.3 0 75.2 0s-50.7 15.1-63 37.1h11.3v.2zM126.5 107.3c-2.1 3-4.4 6-7.1 8.7-5.1 5-10.8 9-17.2 12.1 4.3-5.7 7.9-12.7 10.6-20.7h-10.2c-1.4 4-3.1 7.4-5 10.5-3.2 5.4-7.3 9.8-11.2 12.6-2.1 1.5-3.7 2.7-6.7 3.3v-26.5h-9v26.5c-2-.6-4.5-1.7-6.6-3.2-4-2.8-7.9-7.4-11.1-12.8-1.9-3.1-3.6-6.5-5-10.5H37.7c2.7 8 6.3 15.2 10.6 20.9-6.4-3.1-12.2-7.3-17.2-12.3-2.6-2.6-5-5.5-7.1-8.5H12.7c12.4 22 35.8 36.3 62.5 36.3s50.1-14.3 62.5-36.3h-11.2v-.1z"/></g></symbol><symbol id="start-arc-1" viewBox="0 0 374 362"><title>Path 3 Copy</title><path d="M8.711 1s-58.23 363.938 365.063 354.42" stroke="#2B2B2B" stroke-width="11.2" fill="none" fill-rule="evenodd"/></symbol><symbol id="start-arc-2" viewBox="0 0 181 181"><title>Path 4 Copy</title><path d="M2 10.578s177.692-32.09 170.805 170.137" stroke="#2B2B2B" stroke-width="15.68" fill="none" fill-rule="evenodd"/></symbol><symbol id="start-blue-arc" viewBox="0 0 133 77"><title>Combined Shape Copy 3</title><path d="M132.4 20.759c-5.707 36.04-39.675 60.608-75.867 54.876C20.34 69.902-4.373 36.04 1.335 0l32.922 5.214C31.417 23.15 43.714 40 61.725 42.852c18.01 2.853 34.914-9.373 37.754-27.308l32.922 5.215z" fill="#2176FF" fill-rule="evenodd"/></symbol><symbol id="start-blue-finger" viewBox="0 0 188 232"><title>Artboard 1</title><path class="a" d="M180.31 126.58h.07L107.32 0H0l99.89 173h.07q.61 1.22 1.3 2.41a46.47 46.47 0 1 0 80.49-46.47q-.69-1.22-1.44-2.36z"/><path class="b" d="M145.65 113.35L105 136.84l14.83 25.91c.24.39.45.79.68 1.19a23.19 23.19 0 0 0 31.84 8.52 23.6 23.6 0 0 0 8.83-32q-.34-.6-.71-1.17z"/></symbol><symbol id="start-circle" viewBox="0 0 47 47"><title>Oval 4 Copy 22</title><ellipse cx="1217.5" cy="363.5" rx="23.5" ry="23.5" transform="translate(-1194 -340)" fill="#FBC227" fill-rule="evenodd"/></symbol><symbol id="start-donut" viewBox="0 0 101 101"><title>Combined Shape</title><path d="M28.913 63.386a25.002 25.002 0 0 1-3.584-12.939c0-13.872 11.246-25.118 25.118-25.118 13.873 0 25.12 11.246 25.12 25.118 0 13.873-11.247 25.12-25.12 25.12a25.005 25.005 0 0 1-12.187-3.15 6.674 6.674 0 1 1-9.347-9.03zm3.453 34.26A50.38 50.38 0 0 0 50.5 101c27.89 0 50.5-22.61 50.5-50.5S78.39 0 50.5 0c-.733 0-1.463.016-2.189.047a7.935 7.935 0 0 1-15.47 3.127C13.658 10.334 0 28.822 0 50.5c0 16.156 7.587 30.54 19.393 39.784a7.935 7.935 0 0 1 12.973 7.362zM17.814 47.715a5.097 5.097 0 1 0 0-10.195 5.097 5.097 0 0 0 0 10.195zm42.04-28.797a5.097 5.097 0 1 0 0-10.195 5.097 5.097 0 0 0 0 10.195zm26.8 12.927a5.097 5.097 0 1 0 0-10.195 5.097 5.097 0 0 0 0 10.195zm.053 28.587a5.15 5.15 0 1 0 0-10.3 5.15 5.15 0 0 0 0 10.3zM64.899 94.589a6.148 6.148 0 1 0 0-12.297 6.148 6.148 0 0 0 0 12.297z" fill="#3EC446" fill-rule="evenodd"/></symbol><symbol id="start-green-gradient" viewBox="0 0 62 151"><title>Combined Shape Copy 4</title><path d="M1120.792 791.483h.036V664.324h-41.434v127.16h.035c-.023.4-.035.803-.035 1.209 0 11.358 9.275 20.566 20.717 20.566 11.441 0 20.717-9.208 20.717-20.566 0-.406-.012-.81-.036-1.21z" transform="rotate(-9 -3639.643 7192.905)" fill="url(#start-green-gradient-a)" fill-rule="evenodd"/></symbol><symbol id="start-small-cap" viewBox="0 0 49 51"><title>Combined Shape Copy 6</title><path d="M33.514.47L.691 19.42l11.966 20.908c.19.313.363.639.547.962 5.128 9.03 16.633 12.11 25.697 6.877s12.254-16.797 7.126-25.828a18.943 18.943 0 0 0-.574-.946L33.514.47z" fill="#34198C" fill-rule="evenodd"/></symbol><symbol id="start-tiny-triangle" viewBox="0 0 45 47"><title>Triangle Copy 3</title><path d="M0 46.127L29.955 0l14.376 42.126z" fill="#42CDB2" fill-rule="evenodd"/></symbol><symbol id="start-triangle-group" viewBox="0 0 182 89"><title>Group 3</title><g fill="none" fill-rule="evenodd"><path fill="#FA99B4" d="M112.633 44.465H43.767L78.2.5zM43.764 44.465H.654L22.21 16.944z"/><path fill="url(#start-triangle-group-a)" d="M181.195 44.465h-68.866L146.762.5z"/><path fill="#34198C" d="M181.586 88.697H112.72l34.433-43.963z"/></g></symbol><symbol id="tri-triangles-a" viewBox="0 0 240 158"><title>Group 10</title><g fill="none" fill-rule="evenodd"><path fill="#FA99B4" d="M123 79H0L61.5 0z"/><path fill="#544EBF" d="M123 158H0l61.5-79z"/><path fill="#544EBF" d="M240 158H117l61.5-79z"/></g></symbol><symbol id="tri-triangles-b" viewBox="0 0 256 181"><title>shape15</title><g fill="#2176FF" fill-rule="evenodd"><path d="M253 94H128l62.5-80zM253 178H128l62.5-80z"/><path d="M129 94H4l62.5-80z"/></g></symbol></svg>