<svg xmlns="http://www.w3.org/2000/svg"><defs>
        <clipPath id="cssconfeu-logo-2017-a">
            <path d="M243.36 103.13c26.35 6.76 31.75 11.26 31.75 20v.45c0 9.23-8.56 14.86-22.75 14.86-18 0-32.88-7.43-47.07-19.14L195 131.68c15 11.23 34.95 22.23 55.81 22.14 42.49-.18 41.54-26.36 41.54-32.14 0-22.34-21.24-29.44-40.55-33.84-24.63-4.7-44.59-13.45-44.19-35.2s21.15-34 39.55-33.88c14.58.08 25.49 2.87 48.91 16.46l8.77-12.72c-16-12.84-35.58-20-58.55-20-32.2 0-55.18 23.42-55.18 52v.45c0 31.3 20.49 40.09 52.25 48.19" fill="none" clip-rule="evenodd"/>
        </clipPath>
        <clipPath id="cssconfeu-logo-2017-b">
            <path d="M25.49 145.69q-24-23.89-24-59.85.11-35.19 24.06-59.19t59.35-24q35.75 0 61.36 22.27L124 49.31A61.58 61.58 0 0 0 84.9 36q-22.5.11-36.25 14T34.9 85.62q.11 23.28 13.92 37t36.3 13.7q22.49 0 38.86-13.25l22.27 24.39q-25.5 22.27-61.36 22.27-35.41-.11-59.41-24" fill="none" clip-rule="evenodd"/>
        </clipPath>
        <clipPath id="cssconfeu-logo-2017-c">
            <path d="M412.22 103.13C438.59 109.9 444 114.4 444 123.19v.45c0 9.24-8.57 14.88-22.76 14.88-18 0-32.91-7.44-47.11-19.16l-10.31 12.35c15 11.23 35 22.24 55.84 22.16 42.51-.19 41.56-26.38 41.56-32.16 0-22.36-21.26-29.46-40.58-33.86C396 83.13 376 74.38 376.43 52.61S397.6 18.6 416 18.7c10.83.06 19.65 1.62 33.06 8l10.1-13.79a93.2 93.2 0 0 0-44.01-10.53c-32.23 0-55.22 23.44-55.22 52.07v.45c0 31.33 20.51 40.12 52.29 48.23" fill="none" clip-rule="evenodd"/>
        </clipPath>
    
        <style>
            .a{fill:url(#a)}.b{fill:#ffe90a}.c{fill:#2b2b2b}.d{fill:none;stroke:#2b2b2b}
        </style>
        <linearGradient id="a" x1="-134.86" y1="163.36" x2="-134.86" y2="162.36" gradientTransform="matrix(25 0 0 -25 3385 4085)" gradientUnits="userSpaceOnUse">
            <stop offset="0" stop-color="#ffe90a"/>
            <stop offset="1" stop-color="#feba00"/>
        </linearGradient>
    
        <style>
            .cls-1{fill:#2176ff}
        </style>
    
        <linearGradient x1="50%" y1="0%" x2="50%" y2="100%" id="start-green-gradient-a">
            <stop stop-color="#FEE34F" offset="0%"/>
            <stop stop-color="#3EC446" offset="100%"/>
        </linearGradient>
    
        <linearGradient x1="50%" y1="0%" x2="50%" y2="100%" id="start-triangle-group-a">
            <stop stop-color="#EA3A3A" offset="0%"/>
            <stop stop-color="#FA99B4" offset="100%"/>
        </linearGradient>
    </defs><symbol id="arc" viewBox="0 0 295 148">
    <title>
        Combined Shape
    </title>
    <path d="M295 0c0 81.738-66.038 148-147.5 148S0 81.738 0 0h74.1c0 40.675 32.862 73.65 73.4 73.65 40.538 0 73.4-32.975 73.4-73.65H295z" fill="#3EC446" fill-rule="evenodd"/>
</symbol><symbol id="arrow" viewBox="0 0 41 27">
    <title>
        Group 4
    </title>
    <g fill="#2176FF" fill-rule="evenodd">
        <path d="M23 27V0l18 13.5z"/>
        <path d="M0 11h25v4H0z"/>
    </g>
</symbol><symbol id="blue-bolt" viewBox="0 0 500 484">
    <title>
        Artboard 1
    </title>
    <path d="M480.56 287.84q-2-3.21-4.16-6.25l.18-.11L300.7 0H0l260.32 416.6.18-.11q1.79 3.28 3.8 6.48c37.37 59.8 116.07 78 175.79 40.72s77.84-116.05 40.47-175.85z" fill="#2176ff"/>
</symbol><symbol id="check" viewBox="0 0 15 14">
    <title>
        Group 7
    </title>
    <g fill="#3EC446" fill-rule="evenodd">
        <path d="M.582 8.883l1-1.732 6.928 4-1 1.732z"/>
        <path d="M12.594.808l1.732 1-6.5 11.258-1.732-1z"/>
    </g>
</symbol><symbol id="circle-orange" viewBox="0 0 119 119">
    <ellipse cx="1110.345" cy="819.15" rx="59.345" ry="59.15" transform="translate(-1051 -760)" fill="#FF6D56" fill-rule="evenodd"/>
</symbol><symbol id="circle" viewBox="0 0 257 257">
    <title>
        shape14
    </title>
    <ellipse cx="129" cy="129" rx="124" ry="124" fill="#42CDB2" fill-rule="evenodd"/>
</symbol><symbol id="combined-shapes-a" viewBox="0 0 396 324">
    <title>
        Group 3
    </title>
    <g transform="translate(-8)" fill="#5999FF" fill-rule="evenodd">
        <path d="M123.823 233.43c-5.011 31.638-34.721 53.224-66.36 48.213-31.638-5.011-53.223-34.721-48.212-66.36l28.778 4.559c-2.493 15.744 8.248 30.529 23.993 33.022 15.744 2.494 30.528-8.248 33.022-23.992l28.779 4.558zM231.59 286.642l.05-.008-28.982-182.991-59.262 9.386L172.38 296.02l.05-.008a30.4 30.4 0 0 0 .226 1.75c2.589 16.345 17.954 27.494 34.318 24.902 16.365-2.592 27.532-17.943 24.943-34.289a30.4 30.4 0 0 0-.326-1.733zM298 168h-59.844l-.143 37.777c.013.573-.008 1.152-.012 1.734C237.883 223.797 251.184 237 267.71 237c16.525 0 30.017-13.203 30.134-29.489.005-.582-.008-1.16-.038-1.734L298 168z"/>
        <circle cx="267.5" cy="29.5" r="29.5"/>
        <path d="M400.575 160.375c10.767-40.588-13.26-82.233-53.74-93.08-40.48-10.847-82.11 13.206-93.08 53.74l146.82 39.34zM87.708 147.464a47.82 47.82 0 0 1-.109-.048c-23.148-10.307-33.72-37.067-23.61-59.77 10.108-22.705 37.068-32.756 60.216-22.45l.11.05-36.607 82.218z"/>
    </g>
</symbol><symbol id="combined-shapes-b" viewBox="0 0 899 419">
    <title>
        Group 9
    </title>
    <g transform="translate(-23 -122)" fill="#5999FF" fill-rule="evenodd">
        <path d="M343.065 447.372c-13.823 87.278-96.224 146.754-184.047 132.844C71.195 566.306 11.206 484.278 25.03 397l79.885 12.653c-6.879 43.432 22.973 84.252 66.677 91.174 43.703 6.921 84.708-22.676 91.587-66.108l79.886 12.653zM640.15 508.32l.14-.022L559.885.644 394.941 26.768l80.405 507.654.14-.022c.16 1.613.368 3.23.625 4.852 7.182 45.345 49.928 76.256 95.476 69.042 45.548-7.214 76.65-49.822 69.468-95.167a84.06 84.06 0 0 0-.906-4.807z"/>
        <circle cx="838" cy="125" r="84"/>
    </g>
</symbol><symbol id="cssconf-family-globe" viewBox="0 0 202.4 165.5">
    <circle class="circle-yellow" cx="125.8" cy="7.3" r="4.3"/>
    <circle class="circle-red" cx="9.2" cy="40.6" r="7"/>
    <circle class="circle-blue" cx="187.3" cy="38.2" r="12.9"/>
    <g class="type">
        <path class="type__letter-c" d="M46.7 106.9c5.7 0 10.4-2.3 14.1-6.8l7.5 7.7c-6 6.7-13 10-21 10-8.1 0-14.7-2.5-20-7.6-5.2-5.1-7.8-11.5-7.8-19.3 0-7.8 2.7-14.3 8-19.5 5.3-5.2 11.8-7.8 19.5-7.8 8.6 0 15.8 3.3 21.6 9.8l-7.3 8.2c-3.7-4.6-8.3-6.9-13.8-6.9-4.4 0-8.2 1.4-11.3 4.3-3.1 2.9-4.7 6.8-4.7 11.6s1.5 8.8 4.4 11.7c3.1 3.2 6.6 4.6 10.8 4.6z"/>
        <path class="type__letter-s" d="M89.8 75.3c-1.1.9-1.7 2.2-1.7 3.7s.7 2.7 2.1 3.6c1.4.9 4.5 2 9.5 3.2 5 1.2 8.8 3.1 11.6 5.5 2.7 2.5 4.1 6 4.1 10.7 0 4.7-1.8 8.5-5.3 11.4-3.5 2.9-8.2 4.4-13.9 4.4-8.3 0-15.8-3.1-22.4-9.2l7-8.5c5.6 5 10.9 7.4 15.7 7.4 2.1 0 3.8-.5 5.1-1.4 1.2-.9 1.8-2.2 1.8-3.8s-.7-2.8-2-3.8c-1.3-.9-3.9-1.9-7.7-2.8-6.1-1.4-10.6-3.3-13.4-5.7-2.8-2.3-4.2-6-4.2-11s1.8-8.8 5.4-11.5c3.6-2.7 8-4 13.4-4 3.5 0 7 .6 10.5 1.8 3.5 1.2 6.5 2.9 9.1 5.1l-5.9 8.5c-4.5-3.5-9.3-5.2-14.1-5.2-2 .2-3.6.7-4.7 1.6zM137.7 75.3c-1.1.9-1.7 2.2-1.7 3.7s.7 2.7 2.1 3.6c1.4.9 4.5 2 9.5 3.2 5 1.2 8.8 3.1 11.6 5.5 2.7 2.5 4.1 6 4.1 10.7 0 4.7-1.8 8.5-5.3 11.4-3.5 2.9-8.2 4.4-13.9 4.4-8.3 0-15.8-3.1-22.4-9.2l7-8.5c5.6 5 10.9 7.4 15.7 7.4 2.1 0 3.8-.5 5.1-1.4 1.2-.9 1.8-2.2 1.8-3.8s-.7-2.8-2-3.8c-1.3-.9-3.9-1.9-7.7-2.8-6.1-1.4-10.6-3.3-13.4-5.7-2.8-2.3-4.2-6-4.2-11s1.8-8.8 5.4-11.5c3.6-2.7 8-4 13.4-4 3.5 0 7 .6 10.5 1.8 3.5 1.2 6.5 2.9 9.1 5.1l-5.9 8.5c-4.5-3.5-9.3-5.2-14.1-5.2-2.1.2-3.6.7-4.7 1.6z"/>
    </g>
    <g class="globe">
        <path class="globe__upper-half" d="M43 56.8c2.2-3 4.7-6.5 7.6-9.3 5.1-5 10.8-9.1 17.2-12.1-4.4 5.9-8.1 13.4-10.9 21.4h10.2c1.5-4 3.3-7.8 5.3-11.1 3.2-5.4 7.1-9.8 11.1-12.6 2.1-1.5 4.6-2.6 6.6-3.3v27h9v-27c3 .6 4.6 1.7 6.7 3.2 4 2.8 7.9 7.2 11.1 12.6 2 3.3 3.9 7.1 5.4 11.1h10.2c-2.8-8-6.4-15.6-10.9-21.5 6.4 3.1 12.2 7.2 17.2 12.2 2.8 2.8 5.4 6.2 7.6 9.2h11.3c-12.3-22-35.9-37.1-63-37.1S44 34.6 31.7 56.6H43z"/>
        <path class="globe__lower-half" d="M146 126.8c-2.1 3-4.4 6-7.1 8.7-5.1 5-10.8 9-17.2 12.1 4.3-5.7 7.9-12.7 10.6-20.7h-10.2c-1.4 4-3.1 7.4-5 10.5-3.2 5.4-7.3 9.8-11.2 12.6-2.1 1.5-3.7 2.7-6.7 3.3v-26.5h-9v26.5c-2-.6-4.5-1.7-6.6-3.2-4-2.8-7.9-7.4-11.1-12.8-1.9-3.1-3.6-6.5-5-10.5H57.2c2.7 8 6.3 15.2 10.6 20.9-6.4-3.1-12.2-7.3-17.2-12.3-2.6-2.6-5-5.5-7.1-8.5H32.2c12.4 22 35.8 36.3 62.5 36.3s50.1-14.3 62.5-36.3H146z"/>
    </g>
</symbol><symbol id="cssconfeu-logo-2017" viewBox="0 0 480 240">
    
    <title>
        cssconfeu-logo-2017
    </title>
    <path d="M149.87 209a9.59 9.59 0 0 1 9.93 8h5.78c-1.05-7.21-6.49-13-16.43-13-10.5 0-17 8.4-17 17.48 0 9.41 6.64 17.57 17.57 17.57 8.21 0 14.37-5.06 15.85-11.56h-6a9.87 9.87 0 0 1-9.12 6.64c-8.12 0-12.65-5.78-12.65-12.65-.01-6.48 4.38-12.48 12.07-12.48zM187.2 204.06c-10.74 0-17.28 8.45-17.28 17.52s6.54 17.52 17.28 17.52 17.28-8.45 17.28-17.52-6.54-17.52-17.28-17.52zm0 30.13c-7.11 0-11.51-6.11-11.51-12.61S180.09 209 187.2 209s11.51 6.11 11.51 12.61-4.39 12.58-11.51 12.58zM229.79 228.65l-13.23-23.78h-6.01v33.43h5.49v-23.78l13.22 23.78h6.02v-33.43h-5.49v23.78zM243.01 238.3h5.49v-12.99h13.8v-4.92h-13.8v-10.6h13.8v-4.92h-19.29v33.43zM272.66 230.89a3.84 3.84 0 1 0 3.87 3.87 3.84 3.84 0 0 0-3.87-3.87zM283.64 238.3h19.29v-4.92h-13.8v-9.22h13.8v-4.92h-13.8v-9.45h13.8v-4.92h-19.29v33.43zM328.76 204.87v22.25c0 3.82-2.58 7.07-6.59 7.07s-6.49-3.25-6.49-7.07v-22.25h-5.49v22.25a12 12 0 0 0 24.06 0v-22.25z" fill="#21303b"/>
    <g clip-path="url(#cssconfeu-logo-2017-a)">
        <path fill="#fff" d="M186.14-2.51h123.68v161.3H186.14z"/>
    </g>
    <path d="M259.6 72.5c-27.25-7-34-10.36-34-20.72v-.45c0-7.66 7-16 20.27-16s27 3.6 41 13.29l9.24-13.4c-23.42-13.59-34.33-16.38-48.91-16.46-18.4-.1-39.14 12.13-39.55 33.88s19.56 30.5 44.19 35.2c19.31 4.4 40.55 11.5 40.55 33.84 0 5.78 1 32-41.53 32.14-20.86.09-40.86-10.91-55.86-22.14l-10.2 12.21a100.32 100.32 0 0 0 66.89 25.22c34 0 57.88-17.57 57.88-48.87v-.45c.03-27.47-17.99-38.95-49.97-47.29z" fill="#42cdb2"/>
    <path d="M260 71.06c-27.35-7-32.89-10.25-32.89-19.27v-.45c0-7 6.58-14.5 18.78-14.5 14.37 0 27.5 4.26 40.14 13l1.23.85 11-16 8.64-12.53-1.08-.87C288.94 7.83 268.92 1 246.29 1c-15.76 0-30.21 5.58-40.7 15.7a52.08 52.08 0 0 0-16 37.81v.45c0 33.36 23.13 41.92 53.37 49.64 26.38 6.76 30.63 11 30.63 18.6v.45c0 8.37-7.94 13.37-21.25 13.37-15.92 0-30.58-6-46.12-18.8l-1.14-.94-12.26 14.68L182.76 144l1.08 1a101.66 101.66 0 0 0 67.88 25.6c17.4 0 32.14-4.51 42.63-13 11-8.9 16.74-21.81 16.74-37.33v-.45c0-29.42-20.44-40.77-51.09-48.76zm-54.5 50.37c15.68 12.65 30.61 18.57 46.87 18.57 15 0 24.24-6.27 24.24-16.35v-.45c0-10.25-7.07-14.87-32.88-21.49-29.94-7.71-51.13-15.5-51.13-46.77v-.45C192.6 25.68 215.68 4 246.29 4c21.45 0 40.46 6.34 56.53 18.85l-7.19 10.43c-21.94-12.61-32.94-15.53-45.84-15.92h-2.63a45.44 45.44 0 0 0-27.44 9.05c-6.07 4.64-13.36 13-13.61 26.29-.46 24.76 24 32.61 45.35 36.68 20.46 4.66 39.39 11.81 39.39 32.38v.38c.06 20-13.41 30.15-40 30.27-20.53.07-40.31-11.11-53.65-20.91zm102.6-1.19c0 29.22-21.6 47.38-56.38 47.38a98.75 98.75 0 0 1-64.81-23.89l8.36-10a144.93 144.93 0 0 0 14.4 9.42q1.76 1 3.52 1.92h.07q1.73.91 3.45 1.74l.11.05q1.7.81 3.39 1.55l.14.06q1.67.72 3.33 1.38l.19.07c1.09.42 2.18.83 3.26 1.2l.22.07c1.07.37 2.14.71 3.2 1l.29.08c1 .31 2.08.59 3.11.85l.34.08c1 .25 2 .48 3 .69l.42.08c1 .19 2 .37 2.93.52l.55.07c.93.13 1.85.26 2.77.36l.77.06c.84.08 1.68.15 2.52.2H250.78c19.67-.08 43.11-5.92 43-33.26v-.37c0-10.49-4.61-18.87-13.7-24.89-8.15-5.4-18.73-8.29-28.06-10.41-30-5.73-43.3-16.13-43-33.71.3-16 14.5-32.41 37.77-32.41H248.42c12.87.23 23.5 2.87 45.41 15.45l-7.47 10.84c-12.77-8.55-26.07-12.71-40.6-12.71-14.13 0-21.76 9-21.76 17.48v.45c0 12.08 9.11 15.5 35.13 22.16 30.17 7.86 48.88 18.28 48.88 45.85z" fill="#21303b"/>
    <path d="M184.84 143.9a97.91 97.91 0 0 0 14.87 10.94l18.83-26.08a105.75 105.75 0 0 1-13.2-9.41z" fill="#3ec446"/>
    <path d="M200.11 156.82l-1.18-.71A99.61 99.61 0 0 1 183.84 145l-1.08-1 22.37-26.8 1.14.94a103.58 103.58 0 0 0 13 9.28l1.4.83zm-13.2-13.08a96.63 96.63 0 0 0 12.39 9.11l17.08-23.65a106.73 106.73 0 0 1-10.85-7.75z" fill="#21303b"/>
    <path d="M84.78 74.06a12.12 12.12 0 1 0 12.11 12.11 12.13 12.13 0 0 0-12.11-12.11z" fill="#42cdb2"/>
    <path d="M84.78 71.07a15.1 15.1 0 1 0 15.1 15.1 15.12 15.12 0 0 0-15.1-15.1zm0 27.22a12.12 12.12 0 1 1 12.11-12.12 12.13 12.13 0 0 1-12.11 12.12z" fill="#21303b"/>
    <g clip-path="url(#cssconfeu-logo-2017-b)">
        <path fill="#fff" d="M-3.48-2.32h154.71v176.98H-3.48z"/>
    </g>
    <path d="M124 123q-16.37 13.25-38.86 13.25t-36.3-13.7Q35 108.89 34.9 85.62 34.9 63.9 48.66 50T84.9 36A61.58 61.58 0 0 1 124 49.31L135.25 37c-15.2-11.66-31.89-18.16-51.56-18.16-20.07.1-35.47 8-47.74 20.17S17.54 66.68 17.54 85.63q.15 30.46 18.63 48.39t48.58 17.93c20.07 0 36.1-4.76 50.71-16.33l-.17-.21z" fill="#2176ff"/>
    <path d="M124.14 121l-1.09.88c-10.59 8.57-23.35 12.92-37.92 12.92s-26.38-4.46-35.25-13.26-13.41-20.9-13.48-35.92c0-14 4.48-25.64 13.32-34.59S70.39 37.52 84.9 37.44a60.4 60.4 0 0 1 38.16 13l1.09.85 13.29-14.55 10.94-12-1.15-1C130 8.78 109 1.16 84.9 1.16 61 1.16 40.67 9.38 24.49 25.6S.07 62.08 0 85.84c0 24.28 8.22 44.77 24.44 60.91S61 171.11 84.9 171.18c24.17 0 45.14-7.62 62.34-22.64l1.15-1L127 124.09zm-.34-73.69a63.29 63.29 0 0 0-38.9-12.85c-15.34.08-27.89 4.95-37.3 14.47S33.41 70.8 33.41 85.62c.07 15.85 4.91 28.65 14.36 38s22 14.13 37.35 14.13c14.77 0 27.79-4.28 38.7-12.71l9.46 10.36c-13.65 10.39-28.69 15-48.52 15-19.58 0-35.57-5.89-47.55-17.51S19.13 105.42 19 85.63c0-18.45 6-33.78 18-45.58C50.33 26.86 65.6 20.4 83.69 20.32c17.92 0 34.08 5.52 49.35 16.87zM84.9 168.2c-23.09-.07-42.72-8-58.36-23.56S3 109.3 3 85.84c.07-22.94 8-42.5 23.62-58.14S61.81 4.15 84.9 4.15c22.81 0 42.72 7 59.22 20.91L135.05 35c-15.88-11.86-32.69-17.65-51.37-17.65-18.91.09-34.87 6.83-48.78 20.6-12.51 12.36-18.85 28.41-18.85 47.69.1 20.63 6.52 37.26 19.08 49.45s29.24 18.35 49.62 18.35c20.63 0 36.28-4.9 50.53-15.82l8.83 9.67c-16.41 13.87-36.33 20.91-59.21 20.91z" fill="#21303b"/>
    <g clip-path="url(#cssconfeu-logo-2017-c)">
        <path fill="#fff" d="M354.95-2.59h111.26v161.43H354.95z"/>
    </g>
    <path d="M428.47 72.48c-27.27-7-34-10.37-34-20.74v-.45c0-7.66 7-16 20.29-16a68 68 0 0 1 24.73 4.58l9.66-13.18c-13.41-6.36-22.23-7.92-33.06-8-18.42-.1-39.18 12.14-39.58 33.91S396 83.13 420.68 87.84c19.32 4.4 40.59 11.51 40.59 33.86 0 5.78 1 32-41.57 32.16-20.88.09-40.89-10.92-55.85-22.16l-10.2 12.22a100.4 100.4 0 0 0 66.94 25.24c34 0 57.92-17.58 57.92-48.91v-.45c0-27.49-18.03-38.98-50.04-47.32z" fill="#ea3a3a"/>
    <path d="M459.25 12.91l-19.79 27a77.36 77.36 0 0 1 16.31 8.73L465 35.18l8.77-12.72a91 91 0 0 0-14.52-9.55z" fill="#fbc227"/>
    <path d="M428.85 71c-27.38-7-32.91-10.26-32.91-19.29v-.45c0-7 6.59-14.51 18.79-14.51a67 67 0 0 1 24.19 4.48l.57.22a76.62 76.62 0 0 1 15.44 8.34l1.23.85 11-15.89 8.7-12.62-1.08-.87a92.87 92.87 0 0 0-13.29-8.87l-1-.55-.46-.26-1.23-.58A95.09 95.09 0 0 0 415.15.89c-15.77 0-30.23 5.58-40.73 15.72a52.12 52.12 0 0 0-16 37.84v.45c0 33.39 23.15 42 53.41 49.68 26.4 6.77 30.66 11 30.66 18.61v.45c0 8.38-8 13.38-21.27 13.38-15.94 0-30.6-6-46.16-18.82l-1.14-.94-11.26 13.48-1 1.18-10.15 12.15 1.08 1a101.75 101.75 0 0 0 67.94 25.62c17.41 0 32.17-4.51 42.67-13 11-8.91 16.75-21.82 16.75-37.36v-.45C480 90.39 459.55 79 428.85 71zm33.89-35.22l-7.38 10.69a79.62 79.62 0 0 0-13.58-7.33l17.88-24.36a90 90 0 0 1 12.07 7.92zm-88.41 85.63C390 134.11 405 140 421.23 140c15 0 24.26-6.27 24.26-16.37v-.45c0-10.26-7.07-14.88-32.9-21.51-30-7.65-51.17-15.48-51.17-46.79v-.45c0-28.83 23.1-50.57 53.73-50.57A92.24 92.24 0 0 1 457 13.43l-8.34 11.39-.76-.34-1.19-.54-1.28-.55-1.16-.49-1.27-.5-1.11-.4-1.16-.43-1.1-.4-1.11-.38-1.08-.36-1.05-.32-1.07-.32-1-.27-1.08-.28-.92-.22-1.1-.25-.85-.17-1.12-.22-.77-.13-1.15-.25-.68-.1-1.23-.17-.58-.06-1.31-.14h-.42l-1.46-.12h-.18c-1.79-.11-3.58-.17-5.41-.18h-2.48l-1.24.07a45.5 45.5 0 0 0-23.78 8.92c-6.08 4.65-13.37 13-13.62 26.31-.46 24.78 24 32.64 45.38 36.71 20.48 4.66 39.42 11.81 39.42 32.41v.38c.06 20-13.42 30.17-40.07 30.29h-2.15l-1.28-.06h-.66l-1.18-.1-.75-.06-1.14-.13-.79-.09-1.11-.16-.8-.12-1.09-.19-.81-.14-1.08-.22-.81-.17-1.08-.25-.8-.19-1.08-.28-.79-.21-1.07-.3-.79-.23-1.06-.33-.77-.24-1.07-.36-.75-.26-1.06-.38-.75-.27-1-.4-.73-.29-1-.42-.72-.3-1-.44-.71-.31-1-.46-.7-.32-1-.48-.68-.33-1-.5-.65-.33-1-.52-.63-.33-1-.54-.61-.33-1-.55-.6-.34-1-.56-.58-.34-1-.58-.54-.33-1-.59-.54-.34-1-.6-.51-.33-1-.61-.45-.3-1-.65-.39-.27-1-.68-.35-.24-1-.7-.28-.2-1-.74-1.26-.92zM477 120.26c0 29.25-21.62 47.42-56.43 47.42a98.84 98.84 0 0 1-64.87-23.91l8.37-10c19.44 14.34 38.06 21.61 55.35 21.61h.26c19.69-.08 43.14-5.93 43.06-33.29v-.37c0-10.5-4.61-18.88-13.71-24.91-8.16-5.41-18.75-8.3-28.08-10.42-30.07-5.74-43.34-16.14-43-33.73.27-14.6 12.15-29.58 32-32.07a46.87 46.87 0 0 1 5.85-.37h.2c1.26 0 2.49 0 3.72.09h.4l1.4.08h.59l1.2.1.69.07 1.11.12.75.1L427 21l.8.13 1 .18.82.16 1 .21.86.2 1 .25.88.23 1.06.29.92.27 1.09.34.94.31 1.13.39 1 .35 1.17.44 1 .39 1.23.5 1 .44 1.29.56 1.07.48.45.21-7.91 10.8a70 70 0 0 0-24.19-4.27c-14.14 0-21.78 9-21.78 17.49v.45c0 12.09 9.11 15.51 35.15 22.18C458.3 81.79 477 92.22 477 119.81z" fill="#21303b"/>
</symbol><symbol id="emoji-cool" viewBox="0 0 27 27">
    
    <title>
        emoji-cool
    </title>
    <circle class="a" cx="13.5" cy="13.5" r="12.5"/>
    <path class="b" d="M13.5 26.5a13 13 0 1 1 13-13 13 13 0 0 1-13 13zm0-25a12 12 0 1 0 12 12 12 12 0 0 0-12-12z"/>
    <path class="c" d="M1 7v2h2a5 5 0 0 0 10 0h1a5 5 0 0 0 10 0h2V7z"/>
    <path class="d" d="M8 18a11 11 0 0 0 5.5 2 11 11 0 0 0 5.5-2"/>
</symbol><symbol id="globe" viewBox="0 0 143.8 143.7">
    <g fill="#FBC227">
        <path d="M27.2 87.4c5.7 0 10.4-2.3 14.1-6.8l7.5 7.7c-6 6.7-13 10-21 10-8.1 0-14.7-2.5-20-7.6C2.6 85.6 0 79.2 0 71.4s2.7-14.3 8-19.5 11.8-7.8 19.5-7.8c8.6 0 15.8 3.3 21.6 9.8l-7.3 8.2c-3.7-4.6-8.3-6.9-13.8-6.9-4.4 0-8.2 1.4-11.3 4.3S12 66.3 12 71.1s1.5 8.8 4.4 11.7c3.1 3.2 6.6 4.6 10.8 4.6zM70.3 55.8c-1.1.9-1.7 2.2-1.7 3.7s.7 2.7 2.1 3.6c1.4.9 4.5 2 9.5 3.2s8.8 3.1 11.6 5.5c2.7 2.5 4.1 6 4.1 10.7s-1.8 8.5-5.3 11.4-8.2 4.4-13.9 4.4c-8.3 0-15.8-3.1-22.4-9.2l7-8.5c5.6 5 10.9 7.4 15.7 7.4 2.1 0 3.8-.5 5.1-1.4 1.2-.9 1.8-2.2 1.8-3.8s-.7-2.8-2-3.8c-1.3-.9-3.9-1.9-7.7-2.8-6.1-1.4-10.6-3.3-13.4-5.7-2.8-2.3-4.2-6-4.2-11S58.4 50.7 62 48c3.6-2.7 8-4 13.4-4 3.5 0 7 .6 10.5 1.8 3.5 1.2 6.5 2.9 9.1 5.1l-5.9 8.5c-4.5-3.5-9.3-5.2-14.1-5.2-2 .2-3.6.7-4.7 1.6zm47.9 0c-1.1.9-1.7 2.2-1.7 3.7s.7 2.7 2.1 3.6c1.4.9 4.5 2 9.5 3.2s8.8 3.1 11.6 5.5c2.7 2.5 4.1 6 4.1 10.7s-1.8 8.5-5.3 11.4-8.2 4.4-13.9 4.4c-8.3 0-15.8-3.1-22.4-9.2l7-8.5c5.6 5 10.9 7.4 15.7 7.4 2.1 0 3.8-.5 5.1-1.4 1.2-.9 1.8-2.2 1.8-3.8s-.7-2.8-2-3.8c-1.3-.9-3.9-1.9-7.7-2.8-6.1-1.4-10.6-3.3-13.4-5.7-2.8-2.3-4.2-6-4.2-11s1.8-8.8 5.4-11.5c3.6-2.7 8-4 13.4-4 3.5 0 7 .6 10.5 1.8 3.5 1.2 6.5 2.9 9.1 5.1l-5.9 8.5c-4.5-3.5-9.3-5.2-14.1-5.2-2.1.2-3.6.7-4.7 1.6z"/>
    </g>
    <g fill="hsl(0, 0%, 7%)">
        <path d="M23.5 37.3c2.2-3 4.7-6.5 7.6-9.3 5.1-5 10.8-9.1 17.2-12.1-4.4 5.9-8.1 13.4-10.9 21.4h10.2c1.5-4 3.3-7.8 5.3-11.1 3.2-5.4 7.1-9.8 11.1-12.6 2.1-1.5 4.6-2.6 6.6-3.3v27h9v-27c3 .6 4.6 1.7 6.7 3.2 4 2.8 7.9 7.2 11.1 12.6 2 3.3 3.9 7.1 5.4 11.1H113c-2.8-8-6.4-15.6-10.9-21.5 6.4 3.1 12.2 7.2 17.2 12.2 2.8 2.8 5.4 6.2 7.6 9.2h11.3C125.9 15.1 102.3 0 75.2 0s-50.7 15.1-63 37.1h11.3v.2zM126.5 107.3c-2.1 3-4.4 6-7.1 8.7-5.1 5-10.8 9-17.2 12.1 4.3-5.7 7.9-12.7 10.6-20.7h-10.2c-1.4 4-3.1 7.4-5 10.5-3.2 5.4-7.3 9.8-11.2 12.6-2.1 1.5-3.7 2.7-6.7 3.3v-26.5h-9v26.5c-2-.6-4.5-1.7-6.6-3.2-4-2.8-7.9-7.4-11.1-12.8-1.9-3.1-3.6-6.5-5-10.5H37.7c2.7 8 6.3 15.2 10.6 20.9-6.4-3.1-12.2-7.3-17.2-12.3-2.6-2.6-5-5.5-7.1-8.5H12.7c12.4 22 35.8 36.3 62.5 36.3s50.1-14.3 62.5-36.3h-11.2v-.1z"/>
    </g>
</symbol><symbol id="half-donut-blue" viewBox="0 0 66 33">
    <path d="M65.657 0c0 18.225-14.698 33-32.828 33C14.698 33 0 18.225 0 0h16.49c.08 8.96 7.365 16.2 16.339 16.2 8.974 0 16.258-7.24 16.338-16.2h16.49z" fill="#544EBF" fill-rule="evenodd"/>
</symbol><symbol id="jsconfeu-logo-2017" viewBox="0 0 480 90">
    <path d="M20.5 63.8c0 9.8-.1 14.6-7.5 22-3 3-4.7 3.8-6.5 3.8-3.8 0-6.5-3.4-6.5-6.2 0-2.6 2.3-3.7 4.1-5.5 3.8-3.8 3.8-8.3 3.8-14.3v-30c0-2.2 0-3.8 1-5 1-1.3 2.6-1.8 5.4-1.8 2.8 0 4.4.6 5.4 1.8 1 1.3 1 2.8 1 5v30.2h-.2zM55.2 50.5c4.2 2.8 7.9 6.7 7.9 13.5 0 10.2-8.5 15.9-18.7 15.9-3.6 0-7.5-.7-10.9-2.4-2.6-1.3-4.6-3-4.6-5.8 0-2.6 1.9-6.1 5.1-6.1 3.2 0 5.7 3.7 10.6 3.7 3.5 0 5.9-1.8 5.9-4.7 0-3.1-2.9-4.9-6.4-6.7C38 54.8 29.7 51 29.7 41.5c0-9.3 8-15.2 18-15.2 7.1 0 14.6 3 14.6 7.8 0 2.6-2.2 5.9-5.3 5.9-2.9 0-5.5-3-9.5-3-3.1 0-5 1.7-5 3.8-.2 4.1 7 5.9 12.7 9.7zM94.8 68.4c2.2 0 4.1-.4 6.1-1.2 2.4-1 3.9-2.1 5.6-2.1 3.3 0 5.1 3.9 5.1 6.3 0 2-1.3 3.7-3.6 5.1-3.7 2.2-9.1 3.3-13.9 3.3-14.7 0-26.2-9.9-26.2-26.9 0-18 12.7-26.9 26.5-26.9 5 0 10.3 1.2 13.6 3.2 2.5 1.5 3.6 3.2 3.6 5.2 0 2.5-1.7 6.4-5.1 6.4-1.8 0-3.4-1-6-2.1-2-.8-4-1.3-6.3-1.3-7.1 0-13.5 4.6-13.5 15.1 0 11.1 6.7 15.9 14.1 15.9zM143 26c16.8 0 27.4 11.5 27.4 26.9 0 15.7-10.9 27.2-27.7 27.2-16.8 0-27.4-11.5-27.4-26.9.1-15.8 11-27.2 27.7-27.2zm-.1 43.2c9 0 14.7-5.9 14.7-16.2 0-10.3-5.8-16.3-14.7-16.3-9 0-14.7 5.9-14.7 16.2 0 10.4 5.8 16.3 14.7 16.3zM191.2 72.5c0 2.2 0 3.7-1 5-1 1.2-2.5 1.9-5.1 1.9-2.7 0-4.2-.7-5.2-1.9-1-1.3-1-2.8-1-5v-41c0-3 2.2-5 6.7-5 4.6 0 6.4 2 8.5 4.7l20.7 27.1V33.6c0-2.2 0-3.7 1-5 1-1.2 2.5-1.9 5.1-1.9 2.7 0 4.2.7 5.2 1.9 1 1.3 1 2.7 1 5v41c0 3.4-2.2 5.1-5.9 5.1-3.8 0-5.7-1.8-7.9-4.6l-22.1-28.3v25.7zM251.1 72.5c0 2.2 0 3.7-1 5-1 1.3-2.6 1.9-5.2 1.9s-4.3-.6-5.3-1.9c-1-1.3-1-2.8-1-5V33c0-4.2 1.7-5.8 5.9-5.8H263c2.2 0 3.6 0 4.9.9 1.2.9 1.9 2.3 1.9 4.7 0 2.5-.7 3.9-1.9 4.8-1.3.9-2.7.9-4.9.9h-12v9.3h9.8c2.2 0 3.6 0 4.9.9 1.2.9 1.9 2.2 1.9 4.6 0 2.5-.7 3.8-1.9 4.7-1.3.9-2.7.9-4.9.9H251v13.6h.1zM276.2 79.7c-4.3 0-7.1-2.8-7.1-7.1 0-4.2 2.8-7.1 7.1-7.1s7.1 2.9 7.1 7.1c0 4.3-2.8 7.1-7.1 7.1zM304 46.4h8.7c2.2 0 3.7 0 4.9.8 1 .6 1.9 2 1.9 4.6 0 2.6-1 3.9-1.9 4.6-1.2.8-2.7.8-4.9.8H304v11.1h13.4c2.2 0 3.7 0 4.9.8 1 .6 1.9 2 1.9 4.6 0 2.6-1 3.9-1.9 4.6-1.2.8-2.7.8-4.9.8h-19.6c-4.3 0-5.9-1.7-5.9-5.9v-40c0-4.3 1.6-5.9 5.9-5.9h18c2.2 0 3.7 0 4.9.8 1 .6 1.9 2 1.9 4.6 0 2.6-1 3.9-1.9 4.6-1.2.8-2.7.8-4.9.8H304v8.3zM363.4 66c2.2-2.7 2.3-6.4 2.3-9.3V33.6c0-2.2 0-3.8 1-5 1-1.3 2.6-1.8 5.3-1.8 2.7 0 4.3.6 5.3 1.8 1 1.3 1 2.8 1 5V56c0 5.5 0 11.7-4.6 17.1-3.4 4-9.1 6.9-18.7 6.9-9.7 0-15.1-3-18.5-6.9-4.6-5.5-4.6-11.5-4.6-17.2V33.6c0-2.2 0-3.8 1-5 1-1.3 2.6-1.8 5.4-1.8 2.8 0 4.4.6 5.4 1.8 1 1.3 1 2.8 1 5v23.1c0 2.9 0 6.6 2.2 9.3 1.7 2 4.4 3.2 8.4 3.2 3.7 0 6.4-1.2 8.1-3.2zM476.7.6h-73.5c-1.8 0-3.3 1.5-3.3 3.3v73.5c0 1.8 1.5 3.3 3.3 3.3h73.5c1.8 0 3.3-1.5 3.3-3.3V3.9c0-1.8-1.5-3.3-3.3-3.3zm-12.8 56.6L450.1 71l-13.8-13.8c-4.3-4.3-4.2-10.6-.3-14.4 3.9-3.9 10.2-3.9 14.1 0 3.9-3.9 10.2-3.9 14.1 0 3.9 3.8 4 10.1-.3 14.4z"/>
</symbol><symbol id="logo-automattic" viewBox="-97.2 477.9 494.4 38.2">
    <path d="M96.2 496.5c0-6.9-5-13-14.1-13s-14 6.1-14 13v.9c0 6.9 5 13.1 14 13.1 9.1 0 14.1-6.2 14.1-13.1v-.9zm-14.1 19.6c-12.6 0-20.7-9.1-20.7-18.5v-1.2c0-9.6 8.2-18.5 20.7-18.5 12.6 0 20.8 8.9 20.8 18.5v1.2c0 9.4-8.2 18.5-20.8 18.5zm-157.5-30l-7.7 14.9h15.7l-8-14.9zm15.3 28.6l-4.7-8.8h-20.9l-4.5 8.8h-7l19.2-35.5h5.5l19.5 35.5h-7.1zm37.5 1.4c-12.7 0-18.7-6.9-18.7-16.2v-20.7h6.6V500c0 6.6 4.3 10.5 12.5 10.5 8.4 0 11.9-3.9 11.9-10.5v-20.9h6.7v20.7c0 8.9-5.6 16.3-19 16.3m56.1-31.4v30h-6.7v-30H11.4v-5.5h37.7v5.5H33.5zm128.8 30v-28.1l-1.8 3.1-14.9 25h-3.3l-14.7-25-1.8-3.1v28.1h-6.5v-35.5h9.2l14 24.4 1.7 3 1.7-3 13.9-24.4h9.1v35.5h-6.6zm41.8-28.6l-7.7 14.9h15.7l-8-14.9zm15.3 28.6l-4.7-8.8h-20.9l-4.5 8.8h-7l19.2-35.5h5.5l19.5 35.5h-7.1zm34-30v30h-6.7v-30h-15.5v-5.5h37.7v5.5h-15.5zm48.9 0v30h-6.7v-30h-15.5v-5.5h37.7v5.5h-15.5zm31.9 30v-32.2c2.7 0 3.7-1.4 3.7-3.4h2.8v35.5h-6.5zm58.8-25.5c-3.2-2.9-7.9-5.7-14.2-5.7-9.5 0-14.8 6.5-14.8 13.3v.7c0 6.7 5.4 13 15.3 13 5.9 0 10.8-2.8 13.9-5.7l4 4.2c-3.9 3.8-10.5 7.1-18.3 7.1-13.4 0-21.6-8.7-21.6-18.3v-1.2c0-9.6 8.9-18.7 21.9-18.7 7.5 0 14.3 3.1 18 7.1l-4.2 4.2zm-306.5 1.1c1.2.8 1.5 2.4.8 3.6l-6.1 9.4c-.8 1.2-2.4 1.6-3.6.8-1.2-.8-1.5-2.4-.8-3.6l6.1-9.4c.8-1.3 2.4-1.6 3.6-.8"/>
</symbol><symbol id="logo-etecture" viewBox="-349 469.4 300 63.6">
    <path d="M-337.8 481.2v33.6h14.5v-33.6h-14.5zm9.7 27.2h-4.8v-20.7h4.8v20.7zm-20.9-15.5h9.6v10.2h-9.6v-10.2zm20.8-23.7v10.4h6.4v35.2h11.2v-45.6h-17.6zm30.5 33.3v12.4H-309v-12.4h11.3zm-11.2-1.6h11.3v-12.4h-7v-6.4h-4.3v18.8zm-40.1 3.8h9.6v10.2h-9.6v-10.2zm61.8 10h23.7v-4.1h-18.3v-5.4h16.7v-3.8h-16.7v-4.7h18.3v-3.9h-23.7v21.9zm44.4-17.9h10.6v-3.9h-26.4v3.9h10.5v17.9h5.3v-17.9zm20.8-.1h18.3v-3.9h-23.7v21.8h23.7v-4.1H-222v-5.4h16.8v-3.8H-222v-4.6zm44.1 18h5.4v-4.2h-19.6v-13.6h19.6v-4h-19.3c-2.2 0-3.7.4-4.5 1.1-.8.7-1.2 2.1-1.2 4.1v11.5c0 2 .4 3.4 1.2 4.1.8.7 2.3 1.1 4.5 1.1h13.6c.1-.1.2-.1.3-.1m26.1-17.9h10.6v-3.9h-26.4v3.9h10.5v17.9h5.3v-17.9zm41.1 16.8c.8-.7 1.2-2.1 1.2-4.1v-16.7h-5.4v17.7H-130v-17.7h-5.4v16.7c0 2 .4 3.4 1.2 4.1.8.7 2.3 1.1 4.5 1.1h14.5c2.2 0 3.7-.4 4.5-1.1m27.3-10.9H-98v-6.1h14.6v6.1zm4.9 12l-4.5-8.3c3-.2 4.5-1.5 4.5-4.1v-5.2c0-2.8-1.7-4.2-5.1-4.2h-19.7v21.8h5.3v-8.3h9.8l4.4 8.2 5.3.1zm11.6-4.1v-5.4h16.8v-3.8h-16.8v-4.7h18.3v-3.9h-23.7v21.8h23.7v-4.1h-18.3zm-87.8 19.2c0 2.2 1.8 3.2 4.1 3.2 1.9 0 3.9-.8 3.9-2.8 0-.9-.6-1.9-1.9-2.3-.5-.1-2.7-.7-2.8-.7-.7-.2-1.2-.5-1.2-1.2 0-.9 1-1.2 1.8-1.2 1.2 0 2 .4 2.1 1.6h1.7c0-1.9-1.7-2.9-3.7-2.9-1.8 0-3.6.8-3.6 2.7 0 .9.5 1.9 2.2 2.3 1.3.3 2.2.5 2.9.8.4.1.8.4.8 1.1 0 .7-.6 1.4-2.1 1.4-1.4 0-2.5-.5-2.5-1.9l-1.7-.1zm-10.4-4.7h3.1v7.7h1.7v-7.7h3.1v-1.4h-7.9v1.4zm-2.8 1.5c-.2-2-1.9-3.1-4.1-3.1-2.9 0-4.7 2.2-4.7 4.7 0 2.6 1.7 4.7 4.7 4.7 2.4 0 4-1.5 4.1-3.7h-1.7c-.1 1.3-1 2.4-2.5 2.4-2.1 0-3-1.7-3-3.4s.9-3.4 3-3.4c1.4 0 2.1.8 2.4 1.8h1.8zm-19.3 6.2h7.1v-1.4h-5.4v-2.6h4.9v-1.3h-4.9v-2.4h5.3v-1.4h-7v9.1zm-11.9-7.7h3.1v7.7h1.7v-7.7h3.1v-1.4h-7.9v1.4zm-5.6-1.4h1.7v9h-1.7v-9zm-12.7 9.1h1.7v-4.1h4.4v4.1h1.7v-9h-1.7v3.6h-4.4v-3.6h-1.7v9zm-4.4-6.2c-.2-2-1.9-3.1-4.1-3.1-2.9 0-4.7 2.2-4.7 4.7 0 2.6 1.7 4.7 4.7 4.7 2.4 0 4-1.5 4.1-3.7h-1.7c-.1 1.3-1 2.4-2.5 2.4-2.1 0-3-1.7-3-3.4s.9-3.4 3-3.4c1.4 0 2.1.8 2.4 1.8h1.8zm-49.8 6.2h6.7v-1.4h-4.9v-7.7h-1.7v9.1zm-22.4-7.7h3.1v7.7h1.7v-7.7h3.1v-1.4h-7.9v1.4zm-5.7-1.4h1.7v9h-1.7v-9zm-4.7 4.3h-4.1v1.2h2.6c0 1.5-1 2.5-2.7 2.5-2.1 0-3-1.7-3-3.4s.9-3.4 3-3.4c1.2 0 2.3.6 2.5 1.8h1.7c-.3-2-2-3.1-4.2-3.1-2.9 0-4.7 2.2-4.7 4.7 0 2.6 1.7 4.7 4.7 4.7 1.2 0 2-.3 2.9-1.3l.3 1.1h1.1c-.1 0-.1-4.8-.1-4.8zm-15.1-4.3h1.7v9h-1.7v-9zm77 9.1h1.7v-3.7h2.5c1.6 0 1.9.7 1.9 2.4 0 .4 0 .9.3 1.3h1.8c-.4-.4-.5-1.3-.5-2.4 0-1.4-.9-1.8-1.4-1.9.3-.1 1.6-.5 1.6-2.3 0-1.5-1.1-2.4-3.2-2.4h-4.6l-.1 9zm1.7-7.8h2.8c.9 0 1.7.2 1.7 1.4 0 .9-.6 1.4-1.7 1.4h-2.8V525zm-14.7 7.8h1.8l.9-2.4h3.9l.9 2.4h1.8l-3.7-9h-1.8l-3.8 9zm4.6-7.5l1.5 3.9h-3l1.5-3.9zm-33.7 7.5h1.8l.9-2.4h3.9l.9 2.4h1.8l-3.7-9h-1.8l-3.8 9zm4.6-7.5l1.5 3.9h-3l1.5-3.9zm-52.1 7.5h4c3 0 4.3-2 4.3-4.5s-1.3-4.5-4.3-4.5h-4v9zm1.7-7.8h1.7c2.7 0 3.2 1.4 3.2 3.2 0 1.8-.6 3.2-3.2 3.2h-1.7V525z"/>
</symbol><symbol id="logo-github" viewBox="-150 0 800 129.874">
    <path fill="#100E0F" d="M94.382 57.474v61.537c0 .354-.06 1.125-.611 1.43 0 0-13.393 9.434-35.469 9.434C31.64 129.874 0 121.664 0 66.562 0 11.462 27.635 0 54.576 0c23.386 0 32.643 5.18 34.16 6.262.556.398.721.985.721 1.473l-4.502 19.064c0 1.042-1.086 2.211-2.26 1.851-3.736-1.157-9.608-3.556-23.238-3.556-15.746 0-32.518 4.661-32.518 40.087 0 35.418 16.106 39.631 27.637 39.631 9.772 0 13.308-1.205 13.308-1.205V79.093H52.141a1.89 1.89 0 0 1-1.886-1.889v-19.73c0-1.042.845-1.887 1.886-1.887h40.356c1.041 0 1.885.846 1.885 1.887zM300.475 6.602a1.88 1.88 0 0 0-1.873-1.897h-22.723a1.889 1.889 0 0 0-1.882 1.897l.006 43.913h-35.419V6.602c0-1.05-.836-1.897-1.875-1.897h-22.722a1.887 1.887 0 0 0-1.877 1.897v118.903c0 1.049.843 1.902 1.877 1.902h22.722c1.039 0 1.875-.854 1.875-1.902V74.646h35.419l-.062 50.859c0 1.049.843 1.902 1.882 1.902H298.6c1.041 0 1.873-.854 1.875-1.902V6.602zM135.376 22.205c0-8.182-6.56-14.793-14.653-14.793-8.085 0-14.649 6.612-14.649 14.793 0 8.174 6.564 14.804 14.649 14.804 8.093-.001 14.653-6.631 14.653-14.804zm-1.625 78.218V45.537a1.89 1.89 0 0 0-1.88-1.894H109.22c-1.039 0-1.969 1.072-1.969 2.114v78.635c0 2.311 1.44 2.998 3.304 2.998h20.408c2.239 0 2.788-1.1 2.788-3.035v-23.932zm253.081-56.601h-22.549c-1.034 0-1.876.853-1.876 1.901v58.302s-5.729 4.191-13.859 4.191c-8.13 0-10.288-3.689-10.288-11.65V45.723c0-1.049-.84-1.901-1.875-1.901H313.5c-1.033 0-1.879.853-1.879 1.901v54.692c0 23.646 13.179 29.432 31.309 29.432 14.873 0 26.865-8.217 26.865-8.217s.571 4.33.829 4.844c.259.512.932 1.029 1.659 1.029l14.559-.064c1.033 0 1.879-.854 1.879-1.899l-.007-79.817a1.892 1.892 0 0 0-1.882-1.901zm93.412 38.769c0 36.65-11.876 47.154-32.584 47.154-17.64 0-26.957-8.83-26.957-8.83s-.567 4.844-.96 5.482c-.398.643-.938 1.01-1.649 1.01h-15.81a1.893 1.893 0 0 1-1.881-1.902V6.602c0-1.05.842-1.897 1.878-1.897h22.787c1.036 0 1.875.847 1.875 1.897v40.263s8.711-5.714 21.518-5.714c12.816 0 31.783 4.789 31.783 41.44zm-26.204 1.426c0-19.37-7.824-21.823-15.944-21.096-6.421.574-11.654 3.781-11.654 3.781v37.654s5.305 3.549 13.126 3.787c10.941.331 14.472-3.7 14.472-24.126zM199.058 43.632h-17.045l-.025-22.518c0-.853-.439-1.278-1.425-1.278h-23.228c-.903 0-1.388.398-1.388 1.265v23.27s-11.641 2.81-12.428 3.037c-.783.228-1.36.95-1.36 1.812v14.623c0 1.052.84 1.9 1.879 1.9h11.909v35.179c0 26.129 18.328 28.695 30.695 28.695 5.651 0 12.411-1.814 13.527-2.227.675-.248 1.067-.947 1.067-1.705l.019-16.086c0-1.049-.886-1.898-1.884-1.898-.993 0-3.534.404-6.15.404-8.372 0-11.209-3.893-11.209-8.932l-.001-33.431h17.046a1.889 1.889 0 0 0 1.881-1.9V45.527a1.886 1.886 0 0 0-1.88-1.895z"/>
</symbol><symbol id="logo-hco" viewBox="0 0 300 72.9">
    <style>
        .st0{fill:#231f20}
    </style>
    <path class="st0" d="M90.3 68.2c0-1.7 1.3-3.1 3-3.1 1.1 0 1.8.4 2.3 1l-.8.9c-.4-.4-.8-.7-1.5-.7-1 0-1.7.8-1.7 1.9 0 1 .7 1.9 1.7 1.9.6 0 1.1-.3 1.5-.7l.8.8c-.6.6-1.2 1.1-2.4 1.1-1.6-.1-2.9-1.4-2.9-3.1zm7.2-5.2h1.3v8h-1.3v-8zm3.3 5.2c0-1.7 1.3-3.1 3.1-3.1s3.1 1.4 3.1 3c0 1.7-1.3 3-3.1 3-1.8.1-3.1-1.2-3.1-2.9zm4.9 0c0-1-.7-1.9-1.8-1.9s-1.8.8-1.8 1.9c0 1 .7 1.9 1.8 1.9 1.1-.1 1.8-.9 1.8-1.9zm3.1.8v-3.7h1.3v3.3c0 .9.5 1.4 1.2 1.4.8 0 1.3-.5 1.3-1.4v-3.3h1.3v5.8h-1.3v-.9c-.4.6-.9 1-1.8 1-1.2 0-2-.9-2-2.2zm7.2-.8c0-2 1.3-3 2.7-3 1 0 1.6.5 2 1V63h1.3v8h-1.3v-1c-.4.6-1 1.1-2 1.1-1.4.1-2.7-1-2.7-2.9zm4.7 0c0-1.1-.8-1.9-1.7-1.9-.9 0-1.7.7-1.7 1.9 0 1.1.8 1.9 1.7 1.9.9-.1 1.7-.8 1.7-1.9zm3.6 1.4h1.5v1.5h-1.5v-1.5zm3.9-.1v-3.1h-.7v-1.1h.7v-1.6h1.3v1.6h1.6v1.1h-1.6v2.9c0 .5.3.7.7.7.3 0 .6-.1.8-.2v1.1c-.3.2-.7.3-1.2.3-.9 0-1.6-.5-1.6-1.7zm8.8-4.2h1.4l-2.3 6c-.5 1.2-1 1.6-1.9 1.6-.6 0-1-.1-1.4-.4l.5-1c.2.1.5.2.8.2.4 0 .6-.2.8-.7l-2.4-5.8h1.4l1.6 4.3 1.5-4.2zm3 0h1.3v1c.4-.6 1-1.1 2-1.1 1.4 0 2.7 1.1 2.7 3s-1.3 3-2.7 3c-1 0-1.6-.5-2-1v2.7H140v-7.6zm4.7 2.9c0-1.1-.8-1.9-1.7-1.9-.9 0-1.7.7-1.7 1.9 0 1.1.8 1.9 1.7 1.9.9-.1 1.7-.8 1.7-1.9zm2.9 0c0-1.7 1.3-3.1 3.1-3.1s3.1 1.4 3.1 3c0 1.7-1.3 3-3.1 3-1.8.1-3.1-1.2-3.1-2.9zm4.9 0c0-1-.7-1.9-1.8-1.9s-1.8.8-1.8 1.9c0 1 .7 1.9 1.8 1.9 1.1-.1 1.8-.9 1.8-1.9zm3.2 4l.5-1c.6.4 1.3.6 2.1.6 1.2 0 1.8-.6 1.8-1.8v-.4c-.5.6-1.1 1.1-2 1.1-1.4 0-2.6-1-2.6-2.7 0-1.7 1.3-2.7 2.6-2.7 1 0 1.6.5 2 1v-.9h1.3V70c0 1-.3 1.7-.7 2.2-.5.5-1.3.8-2.4.8-.9-.1-1.8-.4-2.6-.8zm4.4-4.3c0-1-.8-1.6-1.7-1.6-.9 0-1.7.6-1.7 1.6 0 .9.7 1.6 1.7 1.6.9 0 1.7-.7 1.7-1.6zm3.5-2.6h1.3v1.3c.4-.9 1-1.5 2.1-1.4v1.4c-1.2 0-2 .8-2 2.3v2.2h-1.3v-5.8zm4.4 4.1c0-1.3 1-1.9 2.4-1.9.6 0 1.1.1 1.6.2v-.1c0-.8-.5-1.3-1.4-1.3-.7 0-1.1.1-1.7.4l-.4-1c.7-.3 1.3-.5 2.2-.5.9 0 1.5.2 1.9.6.4.4.6 1 .6 1.8V71H172v-.7c-.4.5-1 .8-1.9.8-1.1.1-2.1-.5-2.1-1.7zm4-.4v-.4c-.3-.1-.8-.2-1.3-.2-.9 0-1.4.4-1.4 1s.5.9 1.1.9c1-.1 1.6-.6 1.6-1.3zm3.4-3.7h1.3v1c.4-.6 1-1.1 2-1.1 1.4 0 2.7 1.1 2.7 3s-1.3 3-2.7 3c-1 0-1.6-.5-2-1v2.7h-1.3v-7.6zm4.7 2.9c0-1.1-.8-1.9-1.7-1.9-.9 0-1.7.7-1.7 1.9 0 1.1.8 1.9 1.7 1.9 1-.1 1.7-.8 1.7-1.9zm3.3-5.2h1.3v3.1c.4-.5.9-1 1.8-1 1.3 0 2.1.9 2.1 2.2V71h-1.3v-3.3c0-.9-.5-1.4-1.2-1.4-.8 0-1.3.5-1.3 1.4V71h-1.3v-8zm11.2 2.3h1.4l-2.3 6c-.5 1.2-1 1.6-1.9 1.6-.6 0-1-.1-1.4-.4l.5-1c.2.1.5.2.8.2.4 0 .6-.2.8-.7l-2.4-5.8h1.4l1.6 4.3 1.5-4.2zm2.5 4.3h1.5v1.5h-1.5v-1.5zm3.4-1.4c0-1.7 1.3-3.1 3-3.1 1.1 0 1.8.4 2.3 1l-.8.9c-.4-.4-.8-.7-1.5-.7-1 0-1.7.8-1.7 1.9 0 1 .7 1.9 1.7 1.9.6 0 1.1-.3 1.5-.7l.8.8c-.6.6-1.2 1.1-2.4 1.1-1.6-.1-2.9-1.4-2.9-3.1zm6.8 0c0-1.7 1.3-3.1 3.1-3.1s3.1 1.4 3.1 3c0 1.7-1.3 3-3.1 3-1.8.1-3.1-1.2-3.1-2.9zm4.9 0c0-1-.7-1.9-1.8-1.9s-1.8.8-1.8 1.9c0 1 .7 1.9 1.8 1.9 1.1-.1 1.8-.9 1.8-1.9zm3-2.9h1.3v.9c.4-.5.9-1 1.8-1 .8 0 1.4.4 1.7 1 .5-.6 1.1-1 2-1 1.3 0 2 .8 2 2.2v3.7h-1.3v-3.3c0-.9-.4-1.4-1.2-1.4-.7 0-1.2.5-1.2 1.4v3.3H219v-3.3c0-.9-.4-1.4-1.2-1.4s-1.2.6-1.2 1.4v3.3h-1.3v-5.8zM89 51.5h3.5V32.8H89v-3.4h13.2v3.4h-3.4V40h9.9v-7.2h-3.5v-3.4h13.2v3.4H115v18.7h3.5v3.4h-13.2v-3.4h3.5v-8.2h-9.9v8.2h3.4v3.4H89v-3.4zm29.7-5.6c0-5.6 4.2-9.5 9.8-9.5 5.7 0 9.7 3.8 9.7 9.3 0 5.6-4.2 9.5-9.8 9.5-5.7 0-9.7-3.7-9.7-9.3zm13.3-.1c0-4.9-1.2-6.8-3.7-6.8-2.4 0-3.5 2-3.5 6.8 0 4.9 1.2 6.8 3.7 6.8s3.5-2 3.5-6.8zm13.5.8c.2 4.2 1.9 5.6 4.8 5.6 2.1 0 3.5-.9 4.3-3.2h3c-.7 3.8-3.2 6.2-8.3 6.2-6 0-9.7-3.7-9.7-9.3 0-5.5 4-9.6 9.5-9.6 6.1 0 8.9 4.3 8.7 10.2h-12.3zm0-2.5h6.7C152 40.5 151 39 149 39s-3.3 1.3-3.5 5.1zm42.4 2.5c.2 4.2 1.9 5.6 4.8 5.6 2.1 0 3.5-.9 4.3-3.2h3c-.7 3.8-3.2 6.2-8.3 6.2-6 0-9.7-3.7-9.7-9.3 0-5.5 4.1-9.6 9.5-9.6 6.1 0 8.9 4.3 8.7 10.2h-12.3zm0-2.5h6.7c-.2-3.7-1.2-5.1-3.3-5.1-1.9 0-3.2 1.3-3.4 5.1zm13.2 7.5h2.7V40h-2.7v-3.2h7.9v4.7c1.1-3.4 3.2-5 5.6-5 2.2 0 3.7 1.7 3.7 3.5 0 1.9-1.3 3.3-3 3.3s-3-1-3-2.7v-.3c-1 .1-2.3 1.2-3 3.5v7.9h3.4v3.2h-11.6v-3.3zm44.1-11.7v3.2h-2.4c-1.3 2.3-2.8 4.5-4.4 6.2 1.3 1.8 1.9 2.2 2.8 2.2 1 0 1.5-.6 2.1-2.4l2.1.7c-.7 3.2-2.4 5.7-5.7 5.7-2.3 0-3.6-.8-5.5-3.1-2 2.1-4.4 3.1-7.2 3.1-5.1 0-8.1-2.9-8.1-6.7 0-3.7 2.6-5.6 5.9-6.9-1.8-1.8-2.7-3.2-2.7-5.3 0-3.4 3-6.2 7.6-6.2 4.4 0 6.7 2.7 6.7 5.3 0 2.9-2.2 4.3-5 5.6 2.2 2.1 3.8 3.9 5.3 6.1 1.1-1.3 2.1-2.7 2.8-4.2h-2.7V40h8.4zm-12.6 10.6c-1.9-2.7-4-5.1-6.2-7.1-1.3 1-2 2.4-2 4.3 0 2.5 1.6 4.2 4.3 4.2 1.3 0 2.6-.4 3.9-1.4zm-2.8-10.8c1.5-1.1 2.2-2.4 2.2-4s-.8-2.9-2.5-2.9c-1.3 0-2.4 1-2.4 2.4.1 1.4.9 2.6 2.7 4.5zm17.6 2.6c0-7.9 5.6-13.5 12.3-13.5 3.2 0 5.7 1.1 7.2 3l.8-2.9h3.5V39h-3.8c-1.5-4.7-3.7-7-6.9-7-3.6 0-6.2 2.7-6.2 9.9 0 6.9 2.7 9.9 7 9.9 3.8 0 6-2.9 6.7-7.1h3.7c-.7 6.6-4.4 10.8-11.3 10.8-7.9 0-13-5.4-13-13.2zm25.7 3.6c0-5.6 4.2-9.5 9.8-9.5 5.7 0 9.7 3.8 9.7 9.3 0 5.6-4.2 9.5-9.8 9.5-5.7 0-9.7-3.7-9.7-9.3zm13.3-.1c0-4.9-1.2-6.8-3.7-6.8-2.4 0-3.5 2-3.5 6.8 0 4.9 1.2 6.8 3.7 6.8s3.5-2 3.5-6.8zm6.7 6.3c0-1.9 1.5-3.4 3.5-3.4 1.9 0 3.4 1.5 3.4 3.4s-1.5 3.5-3.5 3.5c-1.9-.1-3.4-1.6-3.4-3.5zm-134.3-.5h2.6V40h-3.3v-3.2h3.3v-.2c0-5.9 4.2-8.6 8.9-8.6 1.5 0 2.9.3 3.9.8l4.8-.9v23.7h2.9v3.2h-10.8v-3.2h2.3V40h-6.6v11.6h2.3v3.2h-10.5v-3.2zm8-14.8h6.7v-2.2c-1.6 0-2.7-.9-2.7-2.6 0-.5.2-1.2.5-1.6-.3-.1-.7-.2-1.2-.2-1.9 0-3.3 1-3.3 5.4v1.2zM107.3 7.2l3.4 12.5h.2l3.5-12.5H112V4.6h7.6v2.6h-2.2L112 24.4h-4.6l-3.2-11-4 11h-4.6L90.5 7.2H88V4.6h10.1v2.6h-2.4l3.5 12.5h.2l3.6-10-.7-2.5H100V4.6h9.8v2.6h-2.5zm14.3 10.6c.2 3.3 1.5 4.3 3.7 4.3 1.6 0 2.7-.7 3.4-2.5h2.3c-.5 2.9-2.5 4.8-6.4 4.8-4.7 0-7.5-2.9-7.5-7.2 0-4.3 3.1-7.5 7.4-7.5 4.7 0 6.9 3.4 6.7 7.9h-9.6zm0-1.8h5.2c-.1-2.8-.9-4-2.5-4-1.5 0-2.5 1-2.7 4zm11.7-9.8h-2V3.6h6.4V13c.9-1.8 2.3-3.1 4.5-3.1 1.6 0 2.7.6 3.6 1.4 1.3 1.3 1.9 3.4 1.9 5.9 0 2.5-.7 4.6-2 5.8-.9 1-2.2 1.5-3.7 1.5-2.5 0-4-1.2-4.9-3l-1.4 2.9h-2.3V6.2zm9.6 11.1c0-3-.8-4.6-2.5-4.6-1.9 0-3 2.1-3 4.8 0 2.8 1.1 4.6 3 4.6 1.8 0 2.5-1.6 2.5-4.8zm5.8 4.5h2v-9h-2.5v-2.5h2.5v-.5c0-4.3 3.1-6.4 6.6-6.4 3 0 4.4 1.2 4.4 2.9 0 1.2-.9 2.2-2.2 2.2-1.3 0-2.2-.7-2.2-2.1 0-.4.2-.9.4-1.2-.2-.1-.4-.2-.7-.2-1.3 0-2.1.8-2.1 3.6v1.5h4.2v2.5h-4v9h3v2.5h-9.4v-2.3zm56.4-2.4h2.5c1.2 1.9 2.6 3.1 4.3 3.1 1.3 0 1.8-.5 1.8-1.4 0-1.1-.8-1.5-3.6-2.2-3.4-.9-5.1-1.9-5.1-4.5 0-2.5 2-4.5 5.1-4.5 1.8 0 3.1.7 3.9 1.7l.6-1.7h2.3v4.8h-2.5c-1.1-1.7-2.3-2.8-3.8-2.8-1.2 0-1.8.5-1.8 1.3 0 1 .8 1.4 3.5 2.1 3.1.8 5.2 1.8 5.2 4.6 0 2.4-1.9 4.6-5.3 4.6-2.2 0-3.4-.9-4.3-1.9l-.6 1.6H205v-4.8zm-45.8-2.1c0-4.3 3.3-7.4 7.6-7.4 4.5 0 7.5 2.9 7.5 7.2 0 4.3-3.2 7.4-7.6 7.4-4.4.1-7.5-2.8-7.5-7.2zm10.3-.1c0-3.8-.9-5.3-2.9-5.3-1.9 0-2.7 1.5-2.7 5.3s1 5.3 2.9 5.3c2 0 2.7-1.5 2.7-5.3zm5.8 4.6h2.1v-9h-2.1v-2.5h6.2V14c1-2.3 2.5-4 5.1-4 3 0 4.3 2 4.3 4.9v6.9h2v2.5h-8v-2.5h1.6v-6.3c0-1-.2-1.7-.6-2.1-.3-.3-.8-.5-1.4-.5-1.4 0-2.7 1.4-2.7 3.4v5.5h1.6v2.5h-8v-2.5zm23.9-15.2v3.6h4.7v2.5h-4.7v7.1c0 1.3.4 2 1.5 2 .9 0 1.3-.7 1.7-2.5l1.8.5c-.5 3.3-2 4.7-4.8 4.7-3.1 0-4.6-1.6-4.6-4.8v-7h-2.5v-2.5h2.6V7.1l4.3-.5zm23.5-.4h-2V3.6h6.4V13c.9-1.8 2.3-3.1 4.5-3.1 1.6 0 2.7.6 3.6 1.4 1.3 1.3 1.9 3.4 1.9 5.9 0 2.5-.7 4.6-2 5.8-.9 1-2.2 1.5-3.7 1.5-2.5 0-4-1.2-4.9-3l-1.4 2.9h-2.3V6.2zm9.6 11.1c0-3-.8-4.6-2.5-4.6-1.9 0-3 2.1-3 4.8 0 2.8 1.1 4.6 3 4.6 1.7 0 2.5-1.6 2.5-4.8zm9.7 8.9c0 .4-.1.8-.3 1.1 1.2-.1 2-.7 2.8-2.8-1.6-3.4-5.6-11.8-5.6-11.8h-1.9v-2.5h8.8v2.5h-2.1l3.1 7.3 2.8-7.3h-1.8v-2.5h6.1v2.5h-1.7l-4.8 11.1c-1.4 3.4-3 5.6-6.3 5.6-2.5 0-3.9-1.3-3.9-3.1 0-1.4.9-2.5 2.3-2.5 1.8.1 2.5 1.3 2.5 2.4zM77.8 38.8c-2.5 0-4.6-1.3-5.8-3.4-2.1 1.2-4.2 2.9-6.3 5.6 3.4 4 5.8 5.6 8.4 5.6 2.8 0 6.4-2.2 7.7-9.2-1.2.8-2.5 1.4-4 1.4zM51.2 14.9c-2.1 0-3.7 1.7-3.7 4 0 3.1 2.1 5 5.1 8 1.5-2.3 2.4-4.6 2.4-6.7 0-3.1-1.6-5.3-3.8-5.3zm5.1 15.6c2.1 2.2 3.8 4.2 5.5 6.2 2.7-4.4 3.3-7.6.2-10.7-1.3 1.3-3.1 2.8-5.7 4.5zM29.8 43.2c0-5.7 3.9-9.9 11-12.4-2.8-3-4.2-5.4-4.2-9.3 0-5.8 5.7-11.5 14.8-11.5 8.3 0 12.8 5.2 12.8 10 0 1.7-.3 3.2-1.3 4.6 3.7-.2 6.4 1.4 6.6 4.9 2.3-3.3 4.8-5.1 8.2-5.1.4 0 .8 0 1.2.1-2.7-4-7-7-12.4-8.5-1.3-9.6-8.7-16-18-16C40.7 0 34 4.6 31 11.2c-1.2-.3-2.5-.6-3.8-.6-7.4 0-13.5 5.6-14.2 12.8C5.6 24.6 0 31.3 0 39c0 8.6 7 15.8 16.4 15.8h22.8c-5.5-1.7-9.4-6.2-9.4-11.6zm28.8 6.4c-2.4 2.6-5.1 4.4-8.2 5.3h15.1c-2.1-.9-4.3-2.5-6.9-5.3zm-9.2-2.4c2.1 0 3.6-.5 5.1-1.7-3.8-4.7-7.6-8.7-10.1-11.1-1.4 1.6-2.2 3.4-2.2 5.5.1 4.1 3.1 7.3 7.2 7.3z"/>
</symbol><symbol id="logo-hitfox" viewBox="0 0 201.9 54.8">
    <path d="M196.3 29.4c3.6-3.7 5.6-8.3 5.6-12.6 0-.9-.2-1.5-2.1-1.5h-4.7c-1.6 0-2.6.2-2.8 1.1-.6 2.3-2 5.3-2.7 6.2l-2.6-6.2c-.3-.7-.8-1.1-1.8-1.1h-5.4c-2 0-2.5.5-2.5 1.5-.1 1.7-.5 4.9-.5 5.6 0 .7 0 1.1.5 1.4l6.7 5.4c-2.6 2.4-6.6 4.2-8.4 5.3-.5.3-.7.9-.8 1.6-.2 1.7-.1 3.9-.1 4.3 0 .7.3 1.3 1.4 1.3h4c1.8 0 2.8-.3 4.3-1.3 1.7-1.1 3.1-2 4.6-3.8l.9 4c.1.7.7 1.1 1.7 1.1h6c1.5 0 2.7-.5 2.9-1.6.2-1.6.5-4.6.5-5.1 0-.7-.6-1.5-1.2-2.1l-3.5-3.5zm-33.5-13.9c-7.3 0-14.1 5.1-14.1 14.7 0 8.1 4.9 11.7 11.1 11.7 7.4 0 14-5.1 14-14.6 0-8.1-4.8-11.8-11-11.8zm-2.2 18.6c-1.5 0-1.9-1.5-1.9-3.9 0-3.3.7-6.8 3.2-6.8 1.6 0 2 1.1 2 3.6-.1 3.8-1.1 7.1-3.3 7.1zm-11.5-21.8h-18.7c-.5 0-2 0-2.3 2.4-1.2 9.4-3.3 24.8-3.3 25.4 0 1.5 3.4 1.6 5 1.6 1.8 0 5 0 5.2-1.6l1.2-8.6c0-.1.1-.2.2-.2l8.2-1c.9-.1 1.6-2.3 1.6-3.9 0-1-.1-2.5-.8-2.6l-7.8-.9c-.1 0-.2 0-.2-.2s.3-1.9.3-2.2c0-.1.2-.2.3-.2h10.2c.9 0 1.7-3.8 1.7-5.1.1-1.4-.2-2.9-.8-2.9zm-26.6 11.8l-4.1-.9c-.1 0-.2-.1-.2-.3 0-.3.8-3.7.8-5.1 0-1.1.1-2.5-1-2.7-.4-.1-6.9 0-6.9 0-.5 0-2-.1-2.3 2.4-.2 1.8-.5 3.3-.8 5.3 0 0-.1.1-.2.1-1 .3-2.8.5-2.8.5-.7-.1-1.3 1.3-1.7 2.3-.5 1.6-.6 3.9.2 4.3l3.1 1.3c-.8 4.8-1.4 8.8-1.4 9.5 0 1.6 3.5 1.7 5.1 1.7 1.8 0 5.1.1 5.4-1.6l1.2-8.8c0-.2.1-.3.2-.3l4.5-1c.9-.1 1.6-2.3 1.6-4 .1-1-.1-2.5-.7-2.7zm-22.8-3.3c-1.8-.5-7-.4-7-.4-.5 0-1.9 0-2.3 2.4-1.5 9.5-3 17.5-3 18.1 0 1.6 3.5 1.7 5.1 1.7 1.8 0 5.1.1 5.3-1.6 0 0 2.8-16.5 2.8-17.9 0-1.1.2-2-.9-2.3zm-2.9-2.4c1.9 0 3.4-1.4 3.4-3.2 0-1.8-1.5-3.2-3.3-3.3-1.9 0-3.4 1.4-3.4 3.2-.1 1.8 1.4 3.3 3.3 3.3zm-10.2-6.2c-.2-.1-.5-.2-1-.2-1.5-.1-5.2 0-5.9.1-1.4.2-1.9 1.7-2.2 4-.4 2.6-.9 4.3-1.5 7.3l-5.5-.4c-.1 0-.2-.1-.2-.2 0-.2 1-5 1.1-6.3 0-.8.4-2.3 0-3.1-.2-.4-.2-.6-.8-1-.3-.1-.3-.1-.7-.2-.3-.1-6-.1-6-.1h-.3c-.7.1-1.9 1.6-2.3 4.1-1.5 9.3-4.3 24.6-4.3 25.2-.1 1.5 3.4 1.4 5 1.4 1.8 0 5 .3 5.3-1.3l1.5-9.8c0-.1.1-.2.2-.2l5.8-.5c-.9 5.4-1.7 10.1-1.7 10.4C73 42.9 76.4 43 78 43c1.8 0 5 .1 5.3-1.6 0 0 4.2-27.3 4.1-28.1.1-.6-.3-1-.8-1.1zM51.6 0S48-.4 37.9 5.5c0 0-7.2-.7-12.4-.7s-12.3.7-12.3.7C3.2-.4.1 0 .1 0c-.5 4.1 2 15.5 2 15.5-6 19 6.9 25.9 8.5 25.4 1.6-.5 1.6-1 2.3-1 3.8-.1 4.7 10.3 7.3 12.7 2.4 2.4 5.3 2.2 5.5 2.2.2 0 3 .2 5.5-2.2 2.5-2.4 3.4-12.8 7.3-12.7.7 0 .7.5 2.3 1 1.6.5 14.4-6.4 8.5-25.4-.2 0 2.8-11.4 2.3-15.5zm-33 24.8h-1.9v2c0 1-.7 1.7-1.7 1.7-.9 0-1.7-.8-1.7-1.7v-2h-1.9c-1 0-1.7-.7-1.7-1.7 0-.9.8-1.7 1.7-1.7h1.9v-2c0-1 .7-1.7 1.7-1.7.9 0 1.7.8 1.7 1.7v2h1.9c1 0 1.7.7 1.7 1.7 0 .9-.8 1.7-1.7 1.7zm14.4-.2c-1 0-1.8-.8-1.8-1.8S32 21 33 21s1.8.8 1.8 1.8c.1 1-.7 1.8-1.8 1.8zm3.8 3.9c-1 0-1.8-.8-1.8-1.8s.8-1.8 1.8-1.8 1.8.8 1.8 1.8c.1 1-.8 1.8-1.8 1.8zm0-7.5c-1 0-1.8-.8-1.8-1.8s.8-1.8 1.8-1.8 1.8.8 1.8 1.8c.1 1-.8 1.8-1.8 1.8zm4 3.6c-1 0-1.8-.8-1.8-1.8s.8-1.8 1.8-1.8 1.8.8 1.8 1.8-.8 1.8-1.8 1.8z"/>
</symbol><symbol id="logo-hoodie" viewBox="-103.2 338.3 398 91.8">
    <path d="M-15.6 353.4v61.4c1.3 1.2 2.6 2.2 4 3.2v-67.8c-1.4 1-2.8 2.1-4 3.2zm-6.8 72.5h-17.5c-3.7 0-6.8-3-6.8-6.8 0-5.9-4.8-10.8-10.8-10.8s-10.8 4.8-10.8 10.8c0 3.7-3 6.8-6.8 6.8h-17.3c-3.7 0-6.8-3-6.8-6.8v-70c0-3.7 3.1-6.7 6.8-6.7h17.5c3.7 0 6.8 3 6.8 6.8 0 5.9 4.8 10.8 10.8 10.8s10.8-4.8 10.8-10.8c0-3.7 3-6.8 6.8-6.8h17.5c3.4 0 6.2 2.6 6.7 5.9 1.1-.9 2.3-1.7 3.5-2.5-1.6-4.3-5.6-7.4-10.4-7.4h-17.5c-5.9 0-10.8 4.8-10.8 10.8 0 3.7-3 6.8-6.8 6.8s-6.8-3-6.8-6.8c.2-6-4.7-10.8-10.6-10.8h-17.5c-5.9 0-10.8 4.8-10.8 10.8v70c0 5.9 4.8 10.8 10.8 10.8h17.5c5.9 0 10.8-4.8 10.8-10.8 0-3.7 3-6.8 6.8-6.8s6.8 3 6.8 6.8c0 5.9 4.8 10.8 10.8 10.8h17.5c4.7 0 8.8-3.1 10.2-7.3-1.2-.8-2.4-1.6-3.5-2.5-.6 3.2-3.5 5.7-6.9 5.7zm35 0c-9 0-17.4-2.9-24.3-7.8-1.4-1-2.7-2.1-4-3.2-8.3-7.6-13.5-18.6-13.5-30.7s5.3-23.1 13.6-30.8c1.3-1.2 2.6-2.2 4-3.2 6.8-4.9 15.2-7.8 24.3-7.8 13.1 0 24.9 6.1 32.5 15.6.8-1.1 1.6-2.2 2.5-3.3-8.4-10-21-16.3-35-16.3-9.1 0-17.7 2.7-24.8 7.3-1.2.8-2.4 1.6-3.5 2.5-10.6 8.4-17.4 21.4-17.4 35.9s6.8 27.5 17.4 35.9c1.1.9 2.3 1.7 3.5 2.5 7.2 4.6 15.7 7.3 24.8 7.3 14 0 26.6-6.4 35-16.3-.9-1-1.7-2.1-2.5-3.3-7.7 9.6-19.4 15.7-32.6 15.7zM50.1 358c-.9 1.1-1.7 2.3-2.5 3.4 4.3 6.5 6.8 14.4 6.8 22.7 0 8.3-2.5 16.2-6.8 22.7.8 1.2 1.6 2.3 2.5 3.4 5.2-7.4 8.3-16.4 8.3-26.2s-3.1-18.6-8.3-26zm56.8 60.1c-6.8 4.9-15.2 7.8-24.3 7.8-13.1 0-24.9-6.1-32.5-15.6-.9-1.1-1.7-2.3-2.5-3.4-4.3-6.5-6.8-14.3-6.8-22.7s2.5-16.2 6.8-22.7c.8-1.2 1.6-2.3 2.5-3.4 7.7-9.6 19.4-15.7 32.6-15.7 9 0 17.4 2.9 24.3 7.8v-1c0-1.2.3-2.3.7-3.3-7.2-4.7-15.8-7.4-25-7.4-14 0-26.6 6.4-35 16.3-.9 1-1.7 2.1-2.5 3.3-5.2 7.4-8.3 16.4-8.3 26.2s3.1 18.7 8.3 26.2c.8 1.1 1.6 2.2 2.5 3.3 8.4 10 21 16.3 35 16.3 9.2 0 17.8-2.7 25-7.4-.5-1-.7-2.2-.7-3.3l-.1-1.3zm21.5-33.9c0-14.5-6.8-27.5-17.4-35.9-.1.3-.1.6-.1.9v4.2c8.3 7.6 13.5 18.6 13.5 30.7 0 12.1-5.2 23.1-13.5 30.7v4.3c0 .3 0 .6.1.9 10.6-8.4 17.4-21.3 17.4-35.8zm-6.4-41.8c-5.6 0-10.3 2.6-11 5.9-.1.3-.1.6-.1.9V419.1c0 .3 0 .6.1.9.7 3.3 5.5 5.9 11 5.9h30.6c9 0 17.4-2.9 24.3-7.8v1c0 1.2.2 2.3.7 3.3-7.2 4.7-15.7 7.4-24.9 7.4H122c-6.9 0-12.5-3.1-14.4-7.4-.5-1-.7-2.2-.7-3.3v-69.9c0-1.2.3-2.3.7-3.3 1.9-4.4 7.6-7.5 14.4-7.5h30.6c9.2 0 17.7 2.7 24.9 7.4-.4 1.1-.7 2.2-.7 3.4v1c-6.7-4.9-15.1-7.8-24.1-7.8H122zm76.4 41.8c0-14.5-6.8-27.5-17.4-35.9 0 .3-.1.6-.1.9v4.2c8.3 7.6 13.5 18.6 13.5 30.7 0 12.1-5.2 23.1-13.5 30.7v4.3c0 .3 0 .6.1.9 10.6-8.3 17.4-21.3 17.4-35.8zm22.3-30.8v61.4c1.3 1.2 2.6 2.2 4 3.2v-67.8c-1.4 1-2.7 2.1-4 3.2zm-8.9 72.5h-21.9c-4.5 0-8.3-2.6-8.9-5.9 0-.3-.1-.6-.1-.9v-70c0-.3 0-.6.1-.9.6-3.3 4.3-5.9 8.9-5.9h21.9c4.5 0 8.3 2.6 8.9 5.9 1.1-.9 2.2-1.7 3.4-2.5-1.7-4.3-6.6-7.4-12.3-7.4h-21.9c-5.7 0-10.6 3.1-12.3 7.4-.4 1.1-.7 2.2-.7 3.4V419c0 1.2.2 2.3.7 3.3 1.7 4.3 6.6 7.4 12.3 7.4h21.9c5.7 0 10.6-3.1 12.3-7.4-1.2-.8-2.3-1.6-3.4-2.5-.7 3.6-4.4 6.1-8.9 6.1zm82.9-63.6v-13.1c0-6-4.8-10.8-10.7-10.8h-35c-9.2 0-17.7 2.7-24.9 7.4-1.2.8-2.3 1.6-3.4 2.5-10.6 8.4-17.4 21.4-17.4 35.9s6.8 27.5 17.4 35.9c1.1.9 2.2 1.7 3.4 2.5 7.2 4.7 15.7 7.4 24.9 7.4h35c5.9 0 10.8-4.8 10.8-10.8V406c0-3.6-1.8-6.8-4.5-8.7 2.7-1.9 4.5-5.1 4.5-8.8v-8.8c0-3.8-1.9-6.8-4.6-8.7 2.7-1.9 4.5-5.1 4.5-8.7zm-4 0c0 3.7-3 6.8-6.8 6.8v4c3.2 0 6.8 2.8 6.8 6.8v8.8c0 3.8-3 6.8-6.8 6.8v4c3.7 0 6.8 3 6.8 6.8v13.1c0 3.7-3 6.8-6.8 6.8h-35c-9 0-17.4-2.9-24.3-7.8-1.4-1-2.7-2.1-4-3.2-8.3-7.6-13.5-18.6-13.5-30.7s5.2-23.1 13.5-30.7c1.3-1.2 2.6-2.2 4-3.2 6.9-5.3 15.3-8.2 24.4-8.2h35c3.7 0 6.8 3 6.8 6.8v13.1h-.1z"/>
</symbol><symbol id="logo-keycdn" viewBox="0, 0, 2200, 640">
    <path fill="none" d="M0 0h2200v640H0z"/>
    <path d="M66.57 515.08c6.22.25 12.53 1.13 18.4 3.28v-.05l.9.33 77.47-75.58 2.85 3.8c4.02 5.44 8.28 10.4 12.78 15.4l1.66 1.88c1.18 1.2 2.13 2.37 3.32 3.56l1.9 1.88 1.9 1.9 1.64 1.66 1.9 1.9 1.66 1.65 2.13 1.9 1.88 1.65C233 510.8 278 528.1 325.4 529.3c39.1.93 77.24-9.02 110.65-28.68l5.92 6.16c6.87 7.34 13.98 14.7 20.85 22.03-41.23 26.55-89.1 39.82-138.37 38.63C269 566 216.18 546.1 173.77 510.57l.23-.48-49.7 49c1.83 5.8 2.57 11.86 2.64 17.93 0 34.22-27.74 61.97-61.97 61.97S3 611.25 3 577.03s27.75-61.97 61.97-61.97l1.6.02zM540.3 195.45c24.4 40.05 36.48 86.25 35.3 133.16-1.42 57.34-22.98 112.08-60.9 154.96l.24.24 30.57 32.46c12.33-1.66 24.65 2.6 33.18 11.6 14.45 15.4 13.98 39.57-1.42 54.26-15.4 14.45-39.57 13.98-54.26-1.42-8.53-9-12.1-21.56-9.72-33.64-14.2-15.17-39.33-41.94-53.78-57.1l-3.08-3.32 3.56-2.84c9.24-7.35 17.77-15.4 25.58-24.4 32.46-36.5 50.7-82.93 51.9-131.74.94-36.96-7.83-73.2-25.6-105.2l28.43-27zM108.57 50.64c10.9-.16 21.1 4.14 28.7 11.9 8.53 9 12.08 21.57 9.7 33.65l58.77 61.6-3.55 2.85c-9.24 7.34-17.77 15.4-25.6 24.4-32.45 36.5-50.7 82.93-52.12 131.73-.94 36.96 7.82 73.2 25.6 105.44l-28.2 27.48C97.24 409.4 84.92 363.2 86.34 315.8c1.22-57.03 23.45-112.12 60.78-155.05l-32.35-33.77c-12.32 1.66-24.64-2.6-33.17-11.6-14.45-15.4-13.98-39.57 1.42-54.26 6-5.62 13.72-9.25 21.9-10.23 1.2-.15 2.43-.18 3.66-.27zM603 1.43c34.23 0 61.97 27.73 61.97 61.96 0 34.2-27.74 61.96-61.97 61.96-6.58.07-13.06-1.14-19.33-3.1l-.02.08-.95-.33-84.1 79.85-2.85-3.8c-4.5-5.9-9.47-11.84-14.7-17.3l-.94-1.17-2.6-2.6-.46-.48-1.66-1.66-.48-.47-2.13-2.13-1.66-1.42-1.65-1.43-2.13-1.9-1.66-1.42-2.13-1.9c-35.78-30.1-80.56-47.15-127.47-48.33-39.1-.95-77.24 8.76-110.4 28.67l-27.02-28.2C239.87 89.8 287.74 76.52 337 77.7c55.45 1.42 108.28 21.33 150.7 57.1h.47l55.7-52.88c-1.96-5.98-2.76-12.26-2.84-18.53 0-34.24 27.75-61.98 61.97-61.98zM332.9 139.76c7 .03 13.98.57 20.93 1.38 100 12.56 170.83 103.77 158.5 203.76-12.55 99.98-103.77 170.82-203.75 158.5-100-12.55-170.83-103.77-158.5-203.75C162 206.9 239.92 140.07 332.9 139.74zm-2.75 78.3c-40.48 3.24-69.77 33.86-70.8 74.54.74 29 15.6 53.5 41.5 66.85l-14.07 66.22h94.42l-14.07-66.23c25.77-14 41.08-37.14 41.5-66.84-.56-41.98-33.04-73.58-74.64-74.64l-3.85.1zm1.4-.4h-.23.24zm487.33 15.99c-4.6 0-7.82.92-13.34 8.28l-76.36 99.36L762.3 155c1.38-6.9-2.3-9.2-7.82-9.2h-69c-8.28 0-10.58 4.13-11.5 9.2l-59.34 336.25c-1.38 7.36 3.22 10.12 8.28 10.12h69c5.06 0 10.12-5.06 11.04-10.12l18.4-104.88 40.02 104.88c2.76 7.36 6.44 10.12 11.5 10.12h82.8c5.98 0 8.28-5.52 5.98-10.12l-58.88-128.8L907.66 243.3c3.68-3.67 3.22-9.65-3.22-9.65zm320.22 94.76c0-54.73-31.28-98.9-97.98-98.9-76.82 0-129.26 34.05-144.44 125.13L891.62 385c-1.38 8.27-1.84 16.1-1.84 23.45 0 65.32 50.6 97.06 101.66 97.06 38.64 0 69.92-4.6 100.74-14.25 7.82-2.3 10.12-5.52 11.5-12.88l7.36-41.4v-1.84c0-4.14-2.76-5.98-6.9-5.98h-1.84c-17.48 1.84-63.94 3.68-88.32 3.68-23 0-37.72-3.22-37.72-26.22 0-4.13.46-8.73 1.38-14.25h143.06c5.52 0 10.58-4.14 11.5-10.12l4.6-27.6c1.38-8.74 2.3-17.48 2.3-26.22zm-82.8-3.2c0 5.5-.92 11.95-2.3 18.4h-68.08c5.52-26.23 16.56-45.55 42.32-45.55 20.7 0 28.06 11.04 28.06 27.14zm392.44-84.65c0-3.68-4.14-6.9-8.28-6.9h-75.9c-5.06 0-9.66 3.68-11.5 8.74l-65.78 166.5h-3.68c-2.76 0-3.22-2.3-3.68-7.8l-8.28-158.25c-.46-5.06-2.3-9.2-7.36-9.2h-74.06c-7.82 0-11.5 3.68-11.5 8.74v1.37l26.68 218.96c2.76 23.46 14.72 31.74 36.34 31.74h5.98l-6.44 15.18c-5.52 13.34-15.18 17.48-28.06 17.48-17.48 0-45.08-2.76-62.1-3.68h-.46c-5.52 0-11.04 4.6-11.96 9.66l-7.82 44.63v1.38c0 4.15 4.14 5.53 8.74 7.37 11.96 4.6 42.32 8.28 60.72 8.28 72.22 0 98.44-28.52 120.98-77.74l126.5-273.23c.46-.92.92-2.3.92-3.22zm204.4 3.68c0-4.6-2.76-5.98-7.82-7.36-12.42-3.22-34.5-7.36-61.64-7.36-70.84 0-116.38 35.43-131.1 121l-5.98 34.5c-1.38 9.2-2.3 17.93-2.3 26.2 0 53.83 31.28 94.3 90.62 94.3 27.14 0 48.3-3.67 64.4-7.35 6.44-1.38 10.12-3.68 11.04-9.66l9.2-51.53v-1.84c0-4.14-3.22-6.9-7.36-6.9h-.92c-16.1.92-30.82 2.76-53.36 2.76-15.64 0-24.84-5.53-24.84-26.23 0-5.52.46-11.96 1.84-19.78l5.98-34.5c6.44-38.2 19.78-46.47 39.56-46.47 22.54 0 36.34 2.3 51.98 3.22h.92c5.06 0 9.66-3.68 10.58-8.74l9.2-51.97v-2.3zm287.1-90.62c0-4.6-4.14-7.8-8.74-7.8h-68.54c-5.06 0-9.66 4.13-10.58 9.2l-13.8 77.73c-9.2-1.38-24.84-3.22-32.2-3.22-83.72 0-125.58 34.97-140.76 120.07l-6.44 35.88c-1.38 8.28-2.3 16.1-2.3 23.46 0 56.6 39.1 96.6 102.12 96.6 41.4 0 80.5-6.43 105.34-11.5 14.72-3.2 17.02-5.97 18.4-14.7l57.5-324.3v-1.4zM1825.7 304.5l-22.08 126.03c-8.74 1.38-18.4 2.3-31.74 2.3-19.78 0-26.68-11.5-26.68-29.44 0-5.53.46-11.5 1.84-17.95l6.44-35.88c4.6-26.68 15.64-46.92 41.4-46.92 11.04 0 21.62.92 30.82 1.84zm370.82 3.2c0-51.5-21.16-78.2-72.22-78.2-17.02 0-42.32 4.15-74.52 25.3l2.3-11.95c1.38-6.9-1.84-9.2-7.82-9.2h-63.02c-5.06 0-9.66 4.14-10.58 9.2l-44.16 248.4c-.92 6.44 4.14 10.12 10.58 10.12h65.78c6.9 0 11.5-4.6 12.42-10.12l31.28-178.02c8.28-4.6 25.3-10.12 39.1-10.12 15.64 0 21.62 3.7 21.62 17.95 0 7.82-1.84 15.64-3.22 23.46l-25.76 146.75c-.92 4.6 0 10.12 7.82 10.12h69c5.52 0 10.58-5.06 11.5-10.12l25.3-143.52c2.3-12.88 4.6-28.06 4.6-40.02zm-369.86 289.26c0-1.25-.83-2.1-2.22-2.1h-12.37c-1.53 0-3.06 1.12-3.34 2.65l-2.64 15.72v.56c0 1.25.82 2.22 2.2 2.22h12.38c1.53 0 3.06-1.25 3.34-2.78l2.64-15.7v-.56zm78.52-60.33c-18.07 0-32.8 7.5-37.67 33.78l-2.35 12.94c-.42 2.5-.7 4.86-.7 7.1 0 15.83 10.7 26.67 26.55 26.67 8.48 0 14.88-.96 18.2-1.8 2.8-.55 3.07-1.38 3.5-3.6l1.66-9.04c.27-1.8-.42-2.36-2.5-2.1-5 .57-9.18 1-18.22 1-5.7 0-10.84-1.82-10.84-11.27 0-1.96.14-4.32.7-6.96l2.36-12.93c2.64-14.45 10-18.2 16.54-18.2 9.04 0 13.35.42 17.8.97 2.22.42 2.9-.55 3.2-2.08l1.66-9.05c.42-2.36-.14-3.05-2.36-3.6-3.06-.84-9.04-1.82-17.52-1.82zM2017.2 564c0-14.58-8.76-27.37-27.8-27.37-21.82 0-35.17 11.82-39.34 34.6l-2.08 11.27c-.42 2.23-.56 4.45-.56 6.67 0 14.6 8.9 27.94 27.8 27.94 21.82 0 34.9-11.66 39.2-34.6l2.08-11.26c.42-2.36.7-4.86.7-7.22zm-18.5 1.13c0 1.8-.13 3.9-.54 6.1l-2.1 11.27c-2.35 12.93-8.33 18.77-18.06 18.77-8.2 0-12.23-4.45-12.23-12.65 0-1.8.14-3.9.56-6.12l2.08-11.26c2.5-13.76 9.74-18.76 18.22-18.76 8.2 0 12.1 4.45 12.1 12.65zm155.12-8.2c0-12.5-5.98-20.3-19.18-20.3-9.6 0-17.37 2.23-24.46 6.8-2.37-3.6-6.95-6.8-14.88-6.8-8.2 0-14.18 2.92-20.57 6.67l.56-2.9c.26-1.54-.57-2.8-2.38-2.8h-12.1c-1.52 0-2.9 1.26-3.2 2.8l-12.77 72.68c-.28 1.8.55 2.92 2.22 2.92h12.8c2.5 0 3.05-1.4 3.32-2.92l9.86-56.15c6.26-3.06 10.7-4.6 13.62-4.6 5.7 0 7.93 1.54 7.93 6.68 0 1.82-.13 4.04-.7 6.82l-8.33 47.26c-.42 2.1.56 2.92 2.23 2.92h12.78c2.5 0 3.06-1.4 3.34-2.92l8.34-47.26c.56-3.47.83-7.1.7-10 5.55-2.64 11.4-3.48 14.03-3.48 5.97 0 8.33 1.67 8.33 7.1 0 1.66-.28 3.74-.7 6.38l-8.33 47.26c-.28 1.8.55 2.92 2.22 2.92h12.8c2.63 0 3.05-1.4 3.33-2.92l8.34-47.26c.54-3.2.82-6.1.82-8.9z"/>
</symbol><symbol id="logo-mailchimp" viewBox="0 0 408.3 100">
    <style>
        .st0{fill:#010101}
    </style>
    <path class="st0" d="M114.6 48.5zm266.1 22.3l-.7-.5.2.9c2 7.5 3 13.4 2.9 17.5-.1 10.2-6.5 11.3-9.3 11.3h-.1c-5 0-8.3-4.7-8.2-11.8 0-5.4 2.9-15.5 7-24.6l.1-.1v-.1c-.9-3.1-1.9-5.7-2.7-7.7l-.3-.8-.3.9c-4.2 12.3-9 18.6-14.4 18.6-4.1 0-6.5-2.4-6.6-6.7-.1-1.8.1-3.8.3-5.7.2-2.1.4-4.2.3-6.2-.1-1-.2-3.8-3-3.9-3.3 0-5.9 4.5-9.1 15.5-.2.8-.4 1.5-.6 2.1-.9 3.4-1.3 4.8-3.1 4.8-2.3 0-2.5-1.7-2.5-5.4v-.7c-.3-10.7-.6-16.7-3.9-16.7-3.4 0-6.8 6.4-10.7 20.1-.5 1.7-1.5 2.6-3 2.6h-.3c-1.5 0-1.9-1.3-1.9-4.6 0-4.3.2-9.9.4-14.5v-1.7l-.7 1.6c-5.2 12.1-10 17.9-15.6 17.9-6.1 0-8.1-7.6-8.5-9.9l-.2-.9-.4.8c-2.4 4.3-6.9 9-11.2 9-4.2 0-6.5-2.6-7-8-.2-2-.1-4 0-6 .2-3.1.3-5.9-1-7.2-.5-.5-1.2-.8-2.1-.8-5.6 0-9.4 13.7-10.4 17.9l-.2 1c-.8 3.5-1.2 4.9-3.3 4.9-1.2 0-2-.3-2.6-.9-.5-.6-.8-1.7-.7-3.1 0-.7-.1-1.9-.3-3.6-.2-2.6-.6-6.3-.8-10.9v-.9l-.6.8c-9.2 12.5-19.6 20.1-30.1 20.1-14.8 0-25.7-12-25.7-29.4 0-24.6 18.6-39.8 32.4-39.8 9.1 0 14.3 6.3 14.2 12.3 0 5.8-4.1 9.7-6.7 9.7-.9 0-1.7-.3-2-.8-.3-.5-.1-1.1.1-1.5.2-.4.4-.8.7-1.1.9-1.4 1.9-2.9 1.9-5.8 0-2.2-.8-4-2.4-5.3-1.5-1.3-3.6-1.9-6-2h-.1c-11.2 0-26 12.9-26 33.9 0 15.7 8.8 24.5 19.7 24.5 12.1 0 24.5-14.5 30.3-22.9l.1-.1v-.1c0-5.3.3-10.6.9-15.7C249.9 3 258.5 0 262.1 0c4.9 0 7.8 3.8 7.8 10.1-.1 9.9-5.8 21.4-18.5 37.4l-.1.1v.1c.2 4.2.5 7.8.8 10l.2 1.3.5-1.2c2.1-5.2 6.7-13.9 13.5-13.9 3.4 0 5.9 2.7 6.6 6.9.4 2.4.3 5 .3 7.3-.1 4.3-.1 7.7 2.2 8.1h.5c4.3 0 8-8.6 10.9-16.8 1.6-4.6 2.4-6.2 4.1-6.2.2 0 .4 0 .7.1 2.2.4 3 1.2 2.5 5.2l-.1.6c-1.1 8.4-1.9 14.5.1 16.7.5.6 1.3.9 2.2.9 4.7 0 10.5-14.2 12.8-20.3 1.4-3.7 2.3-4.8 4.1-4.9 1-.1 1.8.1 2.1.5.4.5.5 1.3.3 2.5s-.5 5.6-.8 13.1l-.1 1.7.7-1.5c2.6-5.6 7-12.3 12.6-12.3 4.9 0 6.4 5.5 6.8 10.1l.1 1.2.5-1.1c1.7-3.7 5.5-9.9 11.4-9.9 4.6 0 7.5 3.2 7.7 8.4.1 2.7-.1 5.3-.4 7.5-.3 3.1-.5 5.3.4 6.2.3.3.6.5 1.1.5 3.2 0 7-7 11.7-21.4v-.1c.1-.6.4-1.1 1-1.4.6-.4 1.2-.6 1.8-.6 1 0 1.7.5 1.9 1.4 0 .2.2.7.7 1.9.6 1.7 1.7 4.5 2.8 7.9l.2.7.4-.6c4.6-7.9 9.3-11.8 14.4-11.8h.1c3.8 0 7 1.5 9.2 4.4 2.2 2.7 3.3 6.4 3.3 10.5-.1 8.2-5.9 13.9-14.1 13.9h-.1c-2.8.2-5.6-.7-8.2-2.4zM251.3 40.1l.7-1c8.5-12.5 12.8-22.3 12.9-29.1 0-2.8-.9-4.2-2.8-4.2-3.9 0-8.1 10.6-10 25.7-.3 2.3-.5 4.8-.6 7.4l-.2 1.2zm123.5 31.2l-.3-1-.3 1c-.4 1.2-.8 2.4-1.1 3.7-2.9 10.2-3.4 15.9-1.6 18.3.6.9 1.6 1.3 2.8 1.3 1.1 0 2-.4 2.6-1.3 2-2.7 1.3-10.1-2.1-22zm13.8-2.8c2.1 0 4.2-.8 5.7-2.1 1.4-1.1 3-3.3 3.1-7 0-5.6-3-9.6-7.4-9.6-3.9 0-8.3 4.6-12.2 12.6l-.1.1.1.4.1.1c2 2.5 5.5 5.5 10.7 5.5zm1.4-18.4zM120.4 65.5l-.3-.8-.3.8c-1.6 4.3-5.9 8.9-11.1 9.3-3.3.3-6.5-1.1-8.4-3.7l-.2-.3-.3.2c-2.9 2.7-5.8 4-8.6 4h-.1c-2.9 0-5.4-1.1-7.2-3.2-1.7-2-2.6-4.9-2.6-8 0-8.9 4.4-26.4 4.4-35.5 0-3.9-1.9-5.9-4.4-5.9-8.3 0-14.4 19.9-22.8 42.9-.3.7-.5 1.4-.7 2-1.2 3.5-1.9 5.7-4.4 5.7-.7 0-1.2-.2-1.6-.6-1.3-1.3-1.1-4.8-.9-9.2 0-.7.1-1.4.1-2.2.2-5.3.5-10.2.7-14.5 1-20.3.6-29.9-5-29.9-4.9 0-8.6 6.3-13.7 23.4-5.2 17.9-7.9 27.7-9.1 31.3-.8 2.4-2.4 3.4-4.8 3-1.9-.3-1.6-4.2-1.3-9.1.1-1.1.1-2.3.2-3.5.3-7.1.7-13.4 1.1-18.9 1.1-17.2 1.7-26.6-1.6-30.1-1-1-2.3-1.5-4-1.6-4.2 0-7.4 4-9.9 12.3-.2.5-.5 1.4-1.2 1.4-1 0-2.4-2-2.5-4.2-.1-3.7 1.7-7.9 4.5-10.8 1.8-1.8 4.8-4 9.1-4h.1c8.1.1 11.8 5 11.9 16.1.1 10.3-1.8 29.3-2.5 36.9l-.9 1.5c1.5-6 3.8-14.8 4.9-18.7 3.8-12.9 9-31.3 19.9-31.3h.1c2.9 0 5.1.9 6.8 2.6 3.1 3.2 4.5 9.7 4.1 19.7-.2 6.6-.6 13.7-1.3 20.9l-.3 3.2.9-3.1c.6-1.9 1.2-4.1 1.8-6 7-20.7 13.9-30.8 22.8-30.8h.1c6.1 0 9.6 4.3 9.6 12.2 0 7.4-4.6 27.8-4.6 34.6 0 4 1.9 6.4 5.1 6.5 2.1 0 4.2-1.2 6.3-3.4l.1-.1v-.2c0-.3-.1-.6-.1-.9-.5-5.6 1.2-11.2 4.7-15.5 3-3.7 7.1-6.2 10.7-6.5h.9c3.4 0 5.2 1.6 6.1 3l.5.6.1-.8c.7-4 2-4.9 4.1-5.1 1.4-.1 2.4.2 2.9.8.5.6.6 1.7.3 3.2-.2 1-.5 2-.7 3.2-1.5 6.2-3.3 13.8-.9 16.9.7.9 1.8 1.4 3.1 1.4 5 0 9.9-12.1 12.4-19.4 1.2-3.5 1.7-4 4-4h.1c1 0 1.7.3 2.1.8.6.7.4 2 .3 4-.5 9.2-.7 20.2 5.9 20.2 2.7 0 6.2-2.2 9.6-6.3l.1-.1-.1-.2c-1.1-3.2-1.7-6.8-2-10.6-1.1-18.4 2-34.5 7.8-41.1 1.9-2.1 4.1-3.3 6.5-3.4h.5c6.3 0 8 6.9 8.3 12.7.6 12.5-5.9 31.1-15.2 43.3l-.1.1.1.2c1.6 4.2 4.1 6.2 7.5 6.1 2.8-.1 5.3-2.6 6.7-3.9l.3-.3c.6-.5 1.3-.5 1.9.1.4.5.6 1.2.5 1.9-.3 2.9-3.9 7-9.7 7.3-4 .2-7.7-2.3-10.5-6.9l-.2-.4-.3.3c-4.1 4.2-8.2 6.4-11.9 6.4h-.1c-8.4-.1-11-8.3-11.9-13.2l-.2-1-.5.9c-1.8 3.5-6.5 11.7-12.5 12.1-5.4.2-8-3.6-9.1-6.8zm47.7-18.7c.1 2.5.3 5.3.7 8.1l.1.9.5-.8c3.1-5.2 5.8-11.3 7.8-17.9 3.5-11.5 3.5-21.5 1.4-24.3-.4-.6-.9-.9-1.5-.9h-.1c-4.6.4-9.8 17.6-8.9 34.9zM120 52.4v-.1c-.8-2-2.7-4.1-5.3-4.1-2.1 0-4.3 1.2-6.3 3.3-3.1 3.4-4.9 8.3-4.6 12.4.3 3.3 1.7 5 4.3 5h.5c6.2-.5 9.7-9.2 11.5-16.5h-.1zM262 6.1zM148.8 26c-2.3 0-4.1 1.8-4.2 4 0 2.2 1.8 4.1 4.1 4.1v.3-.3c2.3 0 4.1-1.8 4.1-4 .1-2.3-1.7-4.1-4-4.1zm144.3 0c-2.3 0-4.1 1.8-4.2 4 0 2.2 1.8 4.1 4.1 4.1v.3-.3c2.3 0 4.1-1.8 4.1-4 .1-2.3-1.7-4.1-4-4.1zm115.2 45.7c0 1.6-1.3 2.8-2.8 2.8-1.6 0-2.8-1.3-2.8-2.8 0-1.6 1.3-2.8 2.8-2.8 1.5-.1 2.8 1.2 2.8 2.8zm-.4 0c0-1.3-1.1-2.4-2.4-2.4-1.3 0-2.4 1.1-2.4 2.4 0 1.3 1.1 2.4 2.4 2.4 1.3 0 2.4-1.1 2.4-2.4zm-2 .1l1 1.4h-.5l-1-1.4h-.6v1.4h-.4V70h1.2c.7 0 1 .3 1 .9.1.6-.3.9-.7.9zm.4-.9c0-.4-.4-.5-.7-.5h-.7v1.1h.5c.4 0 .9 0 .9-.6z"/>
</symbol><symbol id="logo-namely" viewBox="-61.2 199.5 334.9 105.5">
    <style>
        .st0{fill:#010101}.st1{display:none;fill:none;stroke:#656565;stroke-width:.5;stroke-miterlimit:10}
    </style>
    <path class="st0" d="M-18.2 289.3h-7.7c-1.6 0-2.8-.3-4.1-2.4L-47.7 256c-.3-.5-.5-.6-.7-.6s-.4.2-.4.6v31.7c0 .9-.7 1.6-1.6 1.6h-9.2c-.9 0-1.6-.7-1.6-1.6v-53.6c0-1.6 1.3-3 3-3h7.9c1.6 0 2.3.8 3.3 2.4l18.5 32.2c.3.5.4.6.6.6.2 0 .4-.2.4-.7v-32.9c0-.9.7-1.5 1.6-1.5h9.2c.9 0 1.6.6 1.6 1.5v53.6c0 1.6-1.4 3-3.1 3zM27.2 289.3h-8.8c-.9 0-1.6-.7-1.6-1.6v-1.3c-3 2.2-6.2 3.5-10.9 3.5-6.8 0-13.4-3.3-13.4-13.4v-.7c0-9.1 5.9-13.2 19.2-13.2h4.2v-2.8c0-4.5-2.2-5.4-5.9-5.4-5 0-10.6.3-13 .5h-.4c-.8 0-1.4-.4-1.4-1.4v-6.3c0-.9.5-1.5 1.5-1.7 2.9-.7 8.4-1.6 13.5-1.6 11.3 0 18.3 4.5 18.3 15.9v27.9c.3.9-.4 1.6-1.3 1.6zm-10.8-19.2h-4.5c-5.5 0-6.9 1.9-6.9 5.7v.7c0 3.3 1.6 3.9 4.9 3.9 2.3 0 4.5-.8 6.4-1.7l.1-8.6zM94.8 289.3h-9.5c-.9 0-1.6-.8-1.6-1.6V261c0-5-1.2-6.5-4.8-6.5-1.3 0-3.7.3-6 1.4.2 1.6.2 3.4.2 5.1v26.7c0 .9-.7 1.6-1.6 1.6H62c-.9 0-1.6-.8-1.6-1.6V261c0-5-.9-6.5-4.5-6.5-1.5 0-3.5.8-5.9 2v31.1c0 .9-.7 1.6-1.6 1.6H39c-.9 0-1.6-.8-1.6-1.6V246c0-.9.7-1.6 1.6-1.6h8.9c.9 0 1.6.7 1.6 1.6v1.7c3.3-2.2 7-3.9 11.6-3.9 4.1 0 7 1.2 9.2 3.8 4.5-2.6 7.7-3.8 12.7-3.8 10.3 0 13.4 6.9 13.4 17.1v26.7c0 .9-.8 1.7-1.6 1.7zM141.3 270.8h-24.9v.2c0 4.5 1.9 8.5 8.1 8.5 4.9 0 11.9-.4 15-.7h.2c.9 0 1.5.4 1.5 1.2v5.9c0 1.3-.3 1.8-1.6 2.1-5 1.3-9.2 1.9-16 1.9-9.5 0-19.6-5-19.6-20.1v-5.5c0-12.6 7.3-20.6 19.8-20.6 12.8 0 19.3 8.8 19.3 20.6v4.5c-.2 1.3-.8 2-1.8 2zm-10.7-8.1c0-5.8-2.7-8.7-7-8.7s-7.2 3-7.2 8.7v.3h14.2v-.3zM161.5 289.3H152c-.9 0-1.6-.8-1.6-1.6v-56.8c0-.9.8-1.6 1.6-1.6h9.5c.9 0 1.5.7 1.5 1.6v56.8c0 .8-.6 1.6-1.5 1.6zM211.4 246.3l-13.1 46c-2.4 8.4-5.6 12.7-17.1 12.7-2.9 0-7.5-.6-9.5-1.2-.9-.3-1.6-.5-1.6-1.4v-6.3c0-.9.7-1.5 1.6-1.5h.2c2.6.2 7.2.6 9.8.6 2.8 0 4.2-.9 5.2-4.1l.7-2.4h-1.2c-2.9 0-5.3-.5-7.3-7.3l-10.5-35.1c-.1-.2-.1-.4-.1-.5 0-.8.5-1.3 1.6-1.3h10.4c.8 0 1.3.7 1.5 1.5l7 29.4c.2 1.1.5 1.5.9 1.5h.7l7.3-30.9c.2-.8.8-1.5 1.6-1.5H210c.8 0 1.5.6 1.5 1.4 0 .1-.1.2-.1.4z"/>
    <g>
        <path id="N_stroke_2_" d="M257 199.5l-5.6 11.8c-.2-.3-.3-.4-.5-.6-.9-.9-1.9-1.6-3-2.1s-2.4-.7-3.6-.7c-1.9 0-3.6.5-5.1 1.5s-2.7 2.3-3.5 4l-10.4 23.2 16.8 7.8 5.6-11.8c.2.3.2.4.5.6.9.9 1.9 1.6 3.1 2.1s2.4.7 3.7.7c1.9 0 3.5-.5 5-1.5s2.6-2.4 3.5-4.1l10.2-23.1-16.7-7.8z"/>
    </g>
    <path class="st1" d="M-61.2 191.3h340.4"/>
</symbol><symbol id="logo-sinnerschrader" viewBox="-58 369.056 413.987 55.742">
    <path d="M-44.424 424.798c-8.785 0-13.336-4.712-13.576-14.215 0-.479.16-.799.639-.879l6.708-1.118c.559-.079.878.239.878.719.24 5.75 1.917 7.986 5.59 7.986 3.434 0 5.111-1.837 5.111-7.747 0-5.829-1.118-7.746-5.351-9.423l-3.274-1.278c-7.507-2.954-9.743-6.867-9.743-15.333.001-9.344 4.234-14.454 13.178-14.454 8.945 0 12.858 4.791 13.337 13.256 0 .479-.24.719-.719.879l-6.389.959c-.479.079-.878-.16-.878-.64-.16-4.472-1.598-6.948-5.111-6.948-3.354 0-4.951 2.077-4.951 6.549 0 5.031.958 6.549 5.271 8.227l3.274 1.277c7.107 2.795 9.903 6.628 9.903 15.893-.001 10.7-3.595 16.29-13.897 16.29zm16.452-54.225c0-.479.319-.798.798-.798h6.948c.479 0 .799.318.799.798v52.708c0 .479-.32.799-.799.799h-6.948c-.479 0-.798-.319-.798-.799v-52.708zm13.018 0c0-.479.319-.798.798-.798h8.465c.639 0 .958.239 1.118.798L5.49 408.107h.399v-37.534c0-.479.32-.798.799-.798h5.91c.479 0 .798.318.798.798v52.708c0 .479-.319.799-.798.799H4.692c-.639 0-.958-.239-1.118-.799l-10.542-37.535h-.479v37.534c0 .479-.32.799-.799.799h-5.91c-.479 0-.798-.319-.798-.799v-52.707zm32.824 0c0-.479.319-.798.798-.798h8.465c.639 0 .958.239 1.118.798l10.062 37.534h.399v-37.534c0-.479.32-.798.799-.798h5.91c.479 0 .798.318.798.798v52.708c0 .479-.319.799-.798.799h-7.906c-.639 0-.958-.239-1.118-.799l-10.542-37.535h-.479v37.534c0 .479-.319.799-.799.799h-5.91c-.479 0-.798-.319-.798-.799l.001-52.707zm32.823 0c0-.479.32-.798.799-.798h22.281c.479 0 .799.318.799.798v6.149c0 .479-.319.799-.799.799H59.718c-.319 0-.479.16-.479.479v14.294c0 .32.16.479.479.479h12.139c.479 0 .799.319.799.799v6.149c0 .479-.319.799-.799.799H59.718c-.319 0-.479.16-.479.479v14.854c0 .319.16.479.479.479h14.055c.479 0 .799.318.799.799v6.148c0 .479-.319.799-.799.799H51.492c-.479 0-.799-.319-.799-.799v-52.706zm48.636 53.506c-.479 0-.719-.16-.878-.559l-6.628-21.643h-4.074c-.318 0-.479.16-.479.479v20.923c0 .479-.319.799-.799.799h-6.948c-.479 0-.798-.319-.798-.799v-52.706c0-.479.319-.798.798-.798h10.941c9.663 0 15.493 4.232 15.493 16.131 0 7.108-2.396 11.58-6.469 13.896l7.666 23.479c.16.399 0 .799-.398.799h-7.427v-.001zm-1.916-38.173c0-6.389-2.076-8.385-6.868-8.385h-2.796c-.318 0-.479.16-.479.479v15.812c0 .32.16.479.479.479h2.796c4.792 0 6.868-1.917 6.868-8.385zm25.555 38.892c-8.783 0-13.336-4.712-13.575-14.215 0-.479.159-.799.639-.879l6.708-1.118c.559-.079.879.239.879.719.239 5.75 1.916 7.986 5.59 7.986 3.434 0 5.111-1.837 5.111-7.747 0-5.829-1.118-7.746-5.352-9.423l-3.273-1.278c-7.507-2.954-9.743-6.867-9.743-15.333 0-9.344 4.233-14.454 13.177-14.454 8.945 0 12.857 4.791 13.337 13.256 0 .479-.239.719-.719.879l-6.389.959c-.479.079-.878-.16-.878-.64-.16-4.472-1.598-6.948-5.111-6.948-3.354 0-4.951 2.077-4.951 6.549 0 5.031.958 6.549 5.27 8.227l3.275 1.277c7.107 2.795 9.902 6.628 9.902 15.893-.001 10.7-3.594 16.29-13.897 16.29zm17.092-27.871c0-15.094.319-17.33 1.038-19.566 1.677-5.19 5.67-8.305 12.298-8.305 7.748 0 12.619 3.992 13.098 13.017.08.479-.08.879-.559.958l-6.469 1.119c-.479.079-.879-.16-.879-.719-.24-4.633-1.836-6.629-4.951-6.629-2.396 0-3.674 1.038-4.312 3.035-.399 1.277-.559 2.396-.559 17.09s.159 15.812.559 17.09c.639 1.996 1.916 3.035 4.312 3.035 3.115 0 4.711-1.997 4.951-6.629 0-.559.4-.799.879-.719l6.469 1.118c.479.08.639.479.559.958-.479 9.024-5.35 13.018-13.098 13.018-6.628 0-10.621-3.114-12.298-8.306-.719-2.235-1.038-4.471-1.038-19.565zm31.066-26.354c0-.479.32-.798.799-.798h6.947c.48 0 .799.318.799.798v21.403c0 .318.16.479.479.479h9.186c.318 0 .479-.16.479-.479v-21.403c0-.479.318-.798.799-.798h6.947c.479 0 .799.318.799.798v52.708c0 .479-.32.799-.799.799h-6.947c-.48 0-.799-.319-.799-.799v-22.6c0-.32-.16-.479-.479-.479h-9.186c-.318 0-.479.159-.479.479v22.6c0 .479-.318.799-.799.799h-6.947c-.479 0-.799-.319-.799-.799v-52.708zm52.309 53.506c-.479 0-.717-.16-.879-.559l-6.627-21.643h-4.072c-.32 0-.48.16-.48.479v20.923c0 .479-.318.799-.799.799h-6.947c-.48 0-.799-.319-.799-.799v-52.706c0-.479.318-.798.799-.798h10.941c9.662 0 15.492 4.232 15.492 16.131 0 7.108-2.395 11.58-6.469 13.896l7.668 23.479c.158.399 0 .799-.4.799h-7.428v-.001zm-1.916-38.173c0-6.389-2.076-8.385-6.869-8.385h-2.793c-.32 0-.48.16-.48.479v15.812c0 .32.16.479.48.479h2.793c4.792 0 6.869-1.917 6.869-8.385zm23.798-15.333c.16-.479.4-.798.879-.798h6.709c.479 0 .799.318.877.798l11.5 52.708c.08.479-.158.799-.639.799h-6.787c-.561 0-.799-.319-.879-.799l-2.156-10.94H244.04l-2.156 10.94c-.08.479-.32.799-.879.799h-6.787c-.48 0-.719-.319-.641-.799l11.74-52.708zm8.147 34.58l-3.834-20.205h-.24l-3.992 20.205h8.066zm14.615-34.58c0-.479.318-.798.799-.798h12.537c7.107 0 11.262 2.875 13.178 8.704.959 2.955 1.357 6.629 1.357 18.448s-.398 15.493-1.357 18.447c-1.916 5.83-6.07 8.705-13.178 8.705h-12.537c-.48 0-.799-.319-.799-.799v-52.707zm9.024 45.76h3.434c3.035 0 4.793-1.198 5.75-3.913.639-1.997.959-4.632.959-15.493s-.32-13.496-.959-15.493c-.957-2.716-2.715-3.913-5.75-3.913h-3.434c-.318 0-.479.16-.479.479v37.854c0 .319.16.479.479.479zm22.361-45.76c0-.479.32-.798.799-.798h22.281c.48 0 .799.318.799.798v6.149c0 .479-.318.799-.799.799h-14.055c-.32 0-.48.16-.48.479v14.294c0 .32.16.479.48.479h12.139c.479 0 .797.319.797.799v6.149c0 .479-.318.799-.797.799h-12.139c-.32 0-.48.16-.48.479v14.854c0 .319.16.479.48.479h14.055c.48 0 .799.318.799.799v6.148c0 .479-.318.799-.799.799h-22.281c-.479 0-.799-.319-.799-.799v-52.706zm48.637 53.506c-.48 0-.719-.16-.879-.559l-6.629-21.643h-4.072c-.32 0-.479.16-.479.479v20.923c0 .479-.32.799-.799.799h-6.949c-.479 0-.797-.319-.797-.799v-52.706c0-.479.318-.798.797-.798h10.941c9.662 0 15.492 4.232 15.492 16.131 0 7.108-2.395 11.58-6.469 13.896l7.668 23.479c.16.399 0 .799-.398.799h-7.427v-.001zm-1.918-38.173c0-6.389-2.076-8.385-6.867-8.385h-2.795c-.32 0-.479.16-.479.479v15.812c0 .32.158.479.479.479h2.795c4.79 0 6.867-1.917 6.867-8.385z"/>
</symbol><symbol id="logo-springernature" viewBox="0 0 175 17">
    <path fill="#1A2D59" d="M6.544 6.834c-1.27-.599-2.367-1.115-2.367-2.114 0-.819.529-1.646 1.708-1.646.856 0 1.871.285 3.193.897l1.317-2.64C8.866.435 7.299 0 5.605 0 2.318 0 .356 1.773.356 4.741s2.295 4.113 4.139 5.035c1.338.668 2.493 1.246 2.493 2.334 0 .938-.832 1.568-2.069 1.568-.992 0-2.203-.365-3.601-1.088L0 15.418c1.767 1.007 3.381 1.456 5.226 1.456 3.414 0 5.453-1.9 5.453-5.083 0-3.01-2.293-4.09-4.135-4.957zm11.014-4.935c-1.429 0-3.579 0-4.819.042v14.614h3.626v-4.458h1.102c1.65 0 5.489-.534 5.489-5.486 0-3.039-1.917-4.712-5.398-4.712zm-.114 7.455c-.456 0-.757 0-1.033-.023l-.047-.004V4.665l.047-.003c.321-.022.741-.022 1.077-.022 1.678 0 2.015.969 2.015 2.532.002 1.51-.634 2.182-2.059 2.182zm16.034 1.545l.036-.027c1.209-.966 1.875-2.461 1.875-4.209 0-3.513-2.992-4.764-5.793-4.764-1.429 0-3.58 0-4.818.042v14.614h3.626v-4.458h1.102c.22 0 .428-.012.619-.024l.03-.003.016.025c.602.965 1.369 2.519 1.616 4.46h3.967c-.336-2.234-1.552-4.477-2.251-5.619l-.025-.037zm-3.996-1.545c-.456 0-.756 0-1.032-.021l-.047-.004V4.667l.047-.003c.321-.023.741-.023 1.077-.023 1.678 0 2.015.97 2.015 2.534 0 1.507-.635 2.179-2.06 2.179zm8.565 7.201l3.622.002V1.922h-3.622v14.633zm15.115-5.058L48.82 1.921h-3.964v14.633h3.191V7.323l4.503 9.231h3.821V1.921h-3.209v9.576zm11.938-.448h1.509v2.99l-.034.012c-.364.131-1.233.2-1.595.2-1.915 0-2.662-1.419-2.662-5.062 0-3.2 1.102-4.756 3.369-4.756.757 0 1.862.339 3.039.932l.982-2.44c-1.316-.83-3.029-1.325-4.592-1.325-2.198 0-3.782.619-4.844 1.893-1.053 1.265-1.566 3.142-1.566 5.739 0 5.671 1.645 7.779 6.066 7.779 1.408 0 3.528-.366 5.107-1.183V8.554H65.1v2.495zm10.722-.562h4.701V7.658h-4.701V4.773h5.134V1.921h-8.603v12.045c0 .013-.021 1.158.735 1.942.472.491 1.146.741 2.002.746 2.638.015 5.527-.082 5.934-.097v-2.858h-5.203v-3.212h.001zm16.594.45l-.024-.038.036-.027c1.209-.966 1.875-2.461 1.875-4.209 0-3.513-2.992-4.764-5.792-4.764-1.429 0-3.58 0-4.818.042v14.614h3.626v-4.458h1.102c.22 0 .427-.012.619-.024l.03-.003.016.025c.602.965 1.369 2.519 1.616 4.46h3.967c-.338-2.233-1.554-4.476-2.253-5.618zm-4.02-1.583c-.456 0-.756 0-1.032-.021l-.047-.004V4.667l.047-.003c.321-.023.741-.023 1.077-.023 1.678 0 2.016.97 2.016 2.534 0 1.507-.635 2.179-2.061 2.179z"/>
    <path fill="#DB1830" d="M109.153 11.595L103.82.15h-4.23v16.405h3.328l.001-11.321 5.292 11.321h4.288V.15h-3.346v11.445zm18.261-6.691h3.267v11.651h3.778V4.904h2.784V1.92h-9.829v2.984zm19.386 6.762c0 1.498-.085 2.415-1.753 2.415-1.599 0-1.869-.752-1.869-2.437V1.921h-3.754v9.92c0 3.491 1.685 5.048 5.463 5.048 3.867 0 5.668-1.771 5.668-5.574V1.921H146.8v9.745zm22.997 2.033v-3.213h4.7V7.657h-4.7V4.772h5.134V1.921h-8.602v12.045c0 .013-.021 1.158.735 1.942.472.491 1.146.741 2.002.746a162.69 162.69 0 0 0 5.934-.097v-2.858h-5.203zm-51.67-11.778l-3.544 14.634h3.699l.521-2.324h4.055l.521 2.324h3.901l-3.498-14.634h-5.655zm1.103 9.545l1.507-6.364h.151l1.542 6.364h-3.2zm42.706-.567l.035-.027c1.208-.966 1.875-2.461 1.875-4.209 0-3.513-2.992-4.764-5.793-4.764-1.429 0-3.58 0-4.818.042v14.614h3.626v-4.458h1.102c.22 0 .427-.012.619-.024l.03-.003.016.025c.602.965 1.369 2.519 1.617 4.46h3.967c-.336-2.234-1.552-4.477-2.251-5.619l-.025-.037zm-3.995-1.545c-.456 0-.756 0-1.033-.021l-.047-.004V4.667l.047-.003c.321-.023.74-.023 1.077-.023 1.678 0 2.015.97 2.015 2.534.001 1.507-.634 2.179-2.059 2.179z"/>
</symbol><symbol id="logo-travis" viewBox="0 0 141.266 45.248">
    <g fill="#353635">
        <path d="M55.841 19.234H50.62v-2.707h13.618v2.707h-5.193v15.359h-3.204V19.234zM63.951 21.03h2.625l.221 2.403h.111c.967-1.769 2.403-2.733 3.84-2.733.69 0 1.132.082 1.547.276l-.553 2.762c-.47-.139-.829-.221-1.409-.221-1.077 0-2.375.746-3.204 2.789v8.287h-3.177l-.001-13.563zM80.967 25.92c-.026-1.437-.635-2.651-2.458-2.651-1.354 0-2.624.608-3.812 1.325l-1.16-2.127c1.491-.939 3.397-1.768 5.552-1.768 3.397 0 5.057 2.071 5.057 5.854v8.039h-2.599l-.248-1.492h-.083c-1.216 1.022-2.597 1.824-4.197 1.824-2.376 0-4.033-1.604-4.033-3.979-.002-2.898 2.429-4.419 7.981-5.025zm-2.955 6.519c1.104 0 1.961-.553 2.954-1.492v-3.038c-3.674.471-4.889 1.438-4.889 2.791.001 1.214.802 1.739 1.935 1.739zM85.053 21.03h3.231l2.154 7.044c.358 1.325.772 2.707 1.133 4.089h.11c.387-1.382.772-2.764 1.159-4.089l2.154-7.044h3.066l-4.61 13.563h-3.674L85.053 21.03zM99.254 16.859c0-1.077.829-1.823 1.962-1.823s1.961.746 1.961 1.823c0 1.049-.828 1.795-1.961 1.795s-1.962-.746-1.962-1.795zm.359 4.171h3.177v13.563h-3.177V21.03zM106.102 31.002c1.216.939 2.377 1.521 3.758 1.521 1.464 0 2.154-.69 2.154-1.629 0-1.134-1.466-1.631-2.9-2.184-1.796-.663-3.812-1.685-3.812-3.95 0-2.376 1.906-4.06 4.945-4.06 1.878 0 3.397.773 4.502 1.629l-1.463 1.935c-.938-.69-1.906-1.161-2.984-1.161-1.354 0-1.987.635-1.987 1.492 0 1.05 1.354 1.492 2.816 2.017 1.852.691 3.896 1.574 3.896 4.117 0 2.319-1.852 4.198-5.276 4.198-1.85 0-3.812-.802-5.138-1.879l1.489-2.046zM130.604 16.196c2.21 0 4.005 1.077 5.138 2.293l-1.768 1.989c-.939-.912-1.961-1.492-3.344-1.492-2.956 0-5.083 2.486-5.083 6.547 0 4.114 1.961 6.602 4.974 6.602 1.602 0 2.79-.662 3.812-1.796l1.769 1.961c-1.465 1.685-3.344 2.625-5.636 2.625-4.586 0-8.204-3.316-8.204-9.31 0-5.911 3.701-9.419 8.342-9.419zM138.061 16.527h3.204v18.066h-3.204V16.527z"/>
    </g>
    <path fill="#EAEAEA" d="M44.668 15.986a11.447 11.447 0 0 0-.048-.458 5.516 5.516 0 0 0-.049-.325 9.377 9.377 0 0 0-1.357-.928 17.548 17.548 0 0 0-1.634-.836c-.556-.263-1.127-.5-1.702-.731a31.527 31.527 0 0 0-.865-.337c-.289-.113-.582-.219-.875-.325.614.102 1.224.242 1.827.397.394.101.784.215 1.173.337C38.375 5.56 31.771.857 24.559.857S10.742 5.559 7.98 12.78c.388-.122.778-.236 1.171-.337a21.2 21.2 0 0 1 1.829-.397c-.294.106-.585.212-.876.325-.289.107-.578.22-.866.337-.575.231-1.145.469-1.702.731-.559.255-1.106.528-1.632.836a9.307 9.307 0 0 0-1.358.928 10.128 10.128 0 0 0-.136 1.709 13.605 13.605 0 0 0 .478 3.664c.082.295.175.586.282.868a6.673 6.673 0 0 0 .269.611l.04.075c.045.022.093.047.138.068l.275.131c.152.07.364.171.54.249l.027-.026-.51-1.941a44.142 44.142 0 0 1 2.745-.598 8.547 8.547 0 0 1-1.522-.443 5 5 0 0 1-.526-.255 1.808 1.808 0 0 1-.464-.354c1.833.599 5.619.328 8.985-.021 3.079-.317 6.166-.522 9.269-.529 3.103.007 6.188.212 9.267.529 3.368.349 7.155.619 8.988.021a1.813 1.813 0 0 1-.464.354 5.114 5.114 0 0 1-.527.255 8.352 8.352 0 0 1-1.118.356c-.056.014-.111.025-.169.038 1.829.339 2.895.615 3.008.646l-.487 1.85c.099-.043.197-.086.294-.131l.273-.131c.045-.021.092-.046.14-.068l.038-.075a6.108 6.108 0 0 0 .269-.611 9.36 9.36 0 0 0 .283-.868c.167-.59.278-1.2.363-1.814a13.427 13.427 0 0 0 .074-2.776z"/>
    <path fill="#F4F4F4" d="M26.639 41.664c-.243.036-.486.065-.727.085-.156.008-.32.023-.469.023h-.056c.188-.418.329-.742.438-.988.219.246.498.551.814.88zM27.166 42.202a4.264 4.264 0 0 0 2.716 1.249c-1.727.7-3.354.972-4.606 1.057a11.371 11.371 0 0 1-3.758-.403 2.84 2.84 0 0 1 .271-.043c.103-.014 2.328-.305 3.332-1.795l.094.002.246-.002c.167 0 .318-.015.479-.021a9.633 9.633 0 0 0 1.112-.16l.114.116z"/>
    <path fill="#939393" d="M29.301 19.86a20.197 20.197 0 0 1-2.016 2.275 84.25 84.25 0 0 0-6.83.064c1.896-.786 4.173-1.555 6.641-2.016a25.267 25.267 0 0 1 2.205-.323zM18.207 20.709a16.976 16.976 0 0 0-2.182 1.818c-1.899.19-3.553.42-4.919.641 2.099-.965 4.496-1.854 7.101-2.459zM41.394 24.627l-.772 5.399-3.698 2.592-9.645-1.098-1.452-4.78a.317.317 0 0 0-.253-.222 5.846 5.846 0 0 0-.937-.086c-.266 0-.58.027-.939.086a.318.318 0 0 0-.252.222l-1.416 4.665-9.591 2.134-3.799-2.662-.749-6.061c.164-.092.329-.184.497-.274.234-.051.5-.104.793-.16l.705 5.72c.011.088.06.168.133.219l2.614 1.832a.327.327 0 0 0 .251.05l7.886-1.755a.309.309 0 0 0 .233-.216l1.42-4.674c.382-.099 1.356-.326 2.215-.326.854 0 1.83.229 2.213.326l1.419 4.674a.324.324 0 0 0 .269.225l7.885.897a.327.327 0 0 0 .218-.057l2.615-1.829a.328.328 0 0 0 .132-.216l.697-4.887c.525.096.964.189 1.308.262zM42.368 21.24l-.679 2.575c-1.389-.308-4.438-.907-8.588-1.312 1.355-.578 2.736-1.303 3.999-2.21 2.469.35 4.283.725 5.268.947z"/>
    <g fill="#F4F4F4">
        <path d="M14.562 29.297c.538-.291 1.146-.248 2.096-.246.102.003.207.001.317-.002.094 0 .188-.002.287-.005.979-.01 1.795.083 1.779-1.455-.015-1.538-.698-2.781-1.678-2.771-.979.009-1.928 1.27-1.869 2.807.017.4.075.69.169.896-.853.214-1.088.744-1.101.776zm11.781-6.33c-.38.309-.78.597-1.196.849l-1.392.838a11.47 11.47 0 0 0-1.672.336.325.325 0 0 0-.215.213l-1.416 4.666-7.569 1.684-2.384-1.67-.692-5.617a76.86 76.86 0 0 1 5.34-.781c-.233.279-.459.572-.674.879l-1.296 1.859 1.887-1.258c.027-.02 1.229-.81 3.191-1.771a87.183 87.183 0 0 1 8.088-.227zM34.632 28.666c-.01-.037-.216-.655-1.127-.547.105-.229.152-.537.119-.961-.12-1.535-1.014-2.755-1.992-2.722-.979.035-1.605 1.308-1.552 2.848.054 1.537.876 1.525 1.855 1.49 1.315-.023 2.038-.427 2.697-.108zm4.831-4.422l-.683 4.776-2.404 1.685-7.56-.858-1.41-4.646a.32.32 0 0 0-.215-.214c-.047-.014-.983-.28-1.976-.366l.182-.013c.157-.012 2.764-.33 5.877-1.403 3.449.265 6.265.689 8.189 1.039z"/>
    </g>
    <path fill="#F4F4F4" d="M42.763 26.347c.115.096.208.342.104 1.494-.127 1.412-.721 3.889-1.088 4.288-.406.079-1.256-.015-1.774-.136.091-.355.116-.526.188-.891l.906-.634a.333.333 0 0 0 .133-.215l.633-4.44c.385.209.78.435.898.534zM27.678 32.205l-.034.298s-1.045.971-2.728 1.186c-1.682.219-3.004-.815-3.004-.815.056.181.134.585.515.933a11.837 11.837 0 0 0-1.439-.091c-.184 0-.369.007-.548.015-1.035.055-2.492 1.619-3.517 3.196-.502.159-2.072.658-3.892 1.194-1.697-2.352-2.531-4.754-2.616-5.002l.001-.002a12.262 12.262 0 0 1-.101-.289l.436.305v.001l1.078.755.36.252a.31.31 0 0 0 .181.059c.024 0 .047-.004.07-.008l9.907-2.205c.11-.024.2-.108.232-.217l1.414-4.651c.244-.032.458-.05.643-.05.183 0 .397.017.642.05l1.454 4.789c.037.122.143.21.268.224l.678.073z"/>
    <path fill="#F4F4F4" d="M38.987 31.946l.32-.225c-.054.223-.11.443-.17.661a22.945 22.945 0 0 1-1.553 3.8c-.129.01-.265.014-.411.014-.449 0-.908-.037-1.417-.084-.882-.081-2.282-.241-2.725-.293-.38-.305-1.684-1.34-2.768-2.193a3.236 3.236 0 0 1-.115-.096c-.191-.161-.408-.346-.849-.346-.399 0-.982.146-2.393.572.732-.548.737-1.255.737-1.255l.034-.298 9.294 1.057a.318.318 0 0 0 .218-.056l.934-.654.864-.604z"/>
    <path fill="#686969" d="M35.87 19.952l.007.003c-.076.054-.15.11-.227.164-3.054 2.132-6.586 3.034-8.622 3.399 1.438-1.189 2.56-2.595 3.125-3.358.176-.24.299-.419.359-.508 1.04.043 2.078.093 3.117.151.749.044 1.495.093 2.241.149zM24.437 19.514c.525.002 1.053.008 1.581.015a32.49 32.49 0 0 0-2.565.679 39.408 39.408 0 0 0-6.649 2.763c1.767-1.689 3.644-2.637 3.857-2.741l.021-.012 1.43-.678c.775-.014 1.549-.023 2.325-.026zM19.211 19.621a33.74 33.74 0 0 0-2.694.637c-5.484 1.534-9.927 4.197-12.477 5.97 2.625-3.139 6.446-5.537 7.443-6.134a42.478 42.478 0 0 1 1.466-.138c.764-.058 1.528-.109 2.295-.152 1.32-.075 2.644-.136 3.967-.183z"/>
    <path fill="#969696" d="M32.146 12.395c.027.826.008 2.325-.377 3.728a.276.276 0 0 0 0 .161c-.49-.052-.98-.096-1.471-.136.551-1.152.67-2.38.696-2.812.423-.301.844-.661 1.152-.941zM18.123 13.335c.026.433.146 1.657.695 2.81-.49.039-.98.084-1.469.136a.292.292 0 0 0 0-.158c-.385-1.4-.404-2.899-.377-3.728.308.28.727.64 1.151.94z"/>
    <path fill="#303030" d="M34.632 28.666c-.658-.319-1.382.085-2.697.108-.979.035-1.802.047-1.855-1.49-.054-1.54.573-2.812 1.552-2.848.979-.033 1.872 1.187 1.992 2.722.033.424-.014.731-.119.961.912-.108 1.118.51 1.127.547zm-3.076-2.254a.503.503 0 0 0 .491-.511.5.5 0 1 0-.491.511z"/>
    <circle fill="#F4F4F4" cx="31.547" cy="25.912" r=".501"/>
    <path fill="#303030" d="M19.042 27.589c.016 1.538-.8 1.445-1.779 1.455a9.542 9.542 0 0 1-.287.005c-.11.003-.216.005-.317.002-.951-.002-1.559-.045-2.096.246.013-.032.249-.562 1.102-.776-.095-.207-.153-.496-.169-.896-.059-1.537.891-2.798 1.869-2.807.978-.01 1.662 1.233 1.677 2.771zm-1.513-.806a.5.5 0 1 0-.026-1 .5.5 0 0 0 .026 1z"/>
    <circle fill="#F4F4F4" cx="17.515" cy="26.283" r=".501"/>
    <g fill="#BCBCBC">
        <path d="M11.562 17.143s.151-1.982.463-2.743c.16-.391 1.14-.64 1.887-.818.748-.178 1.941-.534 2.172.517.231 1.051.605 1.816.855 2.155l-.321-4.328-5.146 1.247L11.135 17l.16.303.267-.16M37.602 17.143s-.152-1.982-.463-2.743c-.16-.391-1.141-.64-1.888-.818-.748-.178-1.94-.534-2.173.517-.23 1.051-.604 1.816-.854 2.155l.319-4.328 5.146 1.247L38.03 17l-.16.303-.268-.16"/>
    </g>
    <path fill="#BCBCBC" d="M30.328 4.192s-.136 10.376-2.56 10.376h-3.392-2.909c-2.424 0-2.619-10.372-2.619-10.372l-1.19 3.521.019 4.832.847.672.384 2.075.538 1.21 10.374.02.48-.865.404-1.46.058-.922 1.146-3.271-1.58-5.816zM37.961 13.867s.499 3.579 1.818 4.224c1.32.646 0 0 0 0l-1.848-.557.03-3.667zM11.156 13.867s-.499 3.579-1.819 4.224c-1.319.646 0 0 0 0l1.85-.557-.031-3.667z"/>
    <path fill="#303030" d="M38.316 17.518c.628.206 1.26.424 1.833.758a7.454 7.454 0 0 0-.942-.286 16.343 16.343 0 0 0-.958-.211 30.236 30.236 0 0 0-1.938-.302 43.467 43.467 0 0 0-1.949-.212 74.995 74.995 0 0 0-1.956-.147c-2.611-.16-5.229-.201-7.849-.203-2.619.001-5.237.05-7.85.204-.652.038-1.303.093-1.955.148-.65.055-1.302.125-1.948.21-.649.079-1.296.183-1.939.303a17.63 17.63 0 0 0-.959.21 7.44 7.44 0 0 0-.941.286c.572-.334 1.204-.553 1.834-.759l.16-.049-.009-.039c-.011-.073-.244-1.793.162-4.254a.306.306 0 0 1 .22-.245l.665-.188c.146-5.162 2.271-7.588 2.336-7.663-1.898 3.056-1.881 6.68-1.848 7.524l4.135-1.176c.003 0 .006 0 .01-.002a.467.467 0 0 1 .052-.008l.017-.001a.273.273 0 0 1 .068.006c.003 0 .007.003.012.005a.153.153 0 0 1 .051.017c.008.003.013.007.021.011l.041.025.011.007.007.008.012.01c.003.004.113.113.288.276-.042-1.363.023-5.271 1.885-8.511-.039.113-1.516 4.433-1.007 9.271.166.133.339.263.509.377a.313.313 0 0 1 .134.249c.001.016.036 1.558.718 2.87.01.02.017.041.023.062a75.799 75.799 0 0 1 5.089-.163c1.695.001 3.394.051 5.088.167a.391.391 0 0 1 .024-.065c.682-1.312.717-2.854.717-2.87a.311.311 0 0 1 .135-.249c.169-.114.34-.244.507-.377.51-4.838-.967-9.157-1.006-9.271 1.859 3.239 1.926 7.147 1.885 8.511.173-.163.284-.272.288-.276.003-.003.009-.006.012-.01l.008-.008.012-.007a.58.58 0 0 1 .041-.027l.019-.009a.25.25 0 0 1 .054-.019l.012-.003a.254.254 0 0 1 .067-.006l.017.001c.017.002.036.004.053.008.003.002.006.002.01.002l4.135 1.176c.033-.845.051-4.469-1.849-7.524.066.075 2.191 2.501 2.335 7.663l.667.188c.114.032.2.128.219.245.405 2.461.173 4.181.162 4.254a.301.301 0 0 1-.009.041c.046.013.099.029.152.047zm-.752-.221c.032-.275.18-1.781-.135-3.832l-4.681-1.331c.042.793.062 2.513-.39 4.151a.353.353 0 0 1-.022.059c.046.006.094.009.139.015 1.315.15 2.626.361 3.92.646.392.091.781.186 1.169.292zm-5.795-1.175c.385-1.402.405-2.901.377-3.728-.31.28-.729.641-1.151.94-.026.433-.146 1.66-.696 2.812.49.04.98.084 1.471.136a.28.28 0 0 1-.001-.16zm-12.951.023c-.549-1.152-.669-2.377-.695-2.81-.424-.3-.843-.66-1.151-.94-.027.828-.008 2.327.377 3.728a.292.292 0 0 1 0 .158c.489-.052.979-.097 1.469-.136zm-2.038.197a.354.354 0 0 1-.022-.057c-.45-1.639-.431-3.358-.391-4.151l-4.679 1.331c-.315 2.049-.168 3.554-.137 3.831.39-.105.778-.202 1.171-.293a39.008 39.008 0 0 1 1.951-.374 46.74 46.74 0 0 1 1.968-.271l.139-.016z"/>
    <path fill="#686969" d="M31.68 19.469s-1.983 2.896-5.115 4.164l.276-.675 3.41-3.886 1.429.397zM23.79 19.391s-3.568.752-7.257 3.727l-.198-.119 5.591-3.965 1.864.357zM3.408 26.646s4.877-5.075 10.944-6.979l-3.569.079s-7.097 4.996-7.375 6.9z"/>
    <path fill="#525252" d="M19.331 19.36s-8.518.702-15.725 7.206l.336-.029s8.5-5.634 15.237-6.32l.152-.857zM16.857 23.024s4.151-3.267 11.756-4.214l-2.045 1.283c0 .001-6.718 1.527-9.711 2.931zM26.842 23.544s5.649-1.679 7.939-3.97l1.923.366c.001 0-5.892 3.604-9.862 3.604z"/>
    <path fill="#686969" d="M40.688 35.961l-2.175.612-5.667-.122-3.545-2.757-4.284 1.072-4.956-.43-2.775 3.031-5.207 1.556-2.601-.806.545.438-.303-.14c.546.81 1.244 1.815 1.86 2.604 1.075 1.385 2.428 2.662 5.026 2.662.326 0 .671-.019 1.026-.06 2.643-.299 3.321-.419 3.688-.481a8.31 8.31 0 0 1 .346-.057c.021-.002 2.184-.281 2.792-1.642.625-1.4.752-1.733.757-1.746l.221-.59c-.298.412-.583.789-.91 1.193-.385.465-.771.932-1.219 1.355a3.421 3.421 0 0 1-.178.156c-.063.049-.125.101-.211.146-.162.077-.308.11-.457.153-.299.076-.597.134-.895.188a33.24 33.24 0 0 1-1.791.253c-1.197.127-2.395.232-3.607.238-.15-.001-.303-.004-.456-.011a2.486 2.486 0 0 1-.467-.064 3.177 3.177 0 0 1-.859-.343 4.955 4.955 0 0 1-1.374-1.185 5.67 5.67 0 0 0 1.455 1.023c.267.125.545.223.827.27.143.022.281.035.427.035.146 0 .296-.006.444-.013.593-.03 1.189-.076 1.785-.134a63.103 63.103 0 0 0 1.785-.185c.594-.064 1.188-.14 1.777-.229.295-.043.588-.093.874-.155a2.31 2.31 0 0 0 .398-.12c.102-.049.225-.146.333-.239.222-.189.437-.401.647-.612.212-.211.419-.429.626-.647.349-.365.648-.753.984-1.129l.132-.145.002.001.004.004.209.155c.405.304.825.631 1.229.914.522.367 1.05.733 1.596 1.039.137.076.277.147.412.191.018.007.032.01.045.012a.197.197 0 0 0 .05.012c.026.004.062.007.097.009.073.001.15-.002.226-.007.309-.021.621-.065.935-.114.625-.099 1.25-.21 1.874-.335a61.055 61.055 0 0 0 1.866-.385 48.078 48.078 0 0 0 1.856-.434c.306-.082.612-.158.886-.289.278-.13.537-.308.775-.512a6 6 0 0 0 1.22-1.471 5.356 5.356 0 0 1-1.099 1.606 3.574 3.574 0 0 1-.791.593 2.687 2.687 0 0 1-.457.198 8.799 8.799 0 0 1-.459.152c-1.23.371-2.478.649-3.732.897-.628.117-1.257.231-1.894.314-.319.04-.637.077-.965.091a2.36 2.36 0 0 1-.252-.002 1.095 1.095 0 0 1-.139-.019c-.036-.006-.041-.008-.068-.016a1.062 1.062 0 0 0-.069-.022 3.325 3.325 0 0 1-.45-.229c-.557-.343-1.062-.742-1.562-1.146a30.075 30.075 0 0 1-1.167-1.003l.363.435c.01.011.816.972 1.804 1.951.656.649 1.45.979 2.358.979.312 0 .638-.041.968-.119l.977-.235c1.228-.294 2.619-.627 3.293-.815.134-.037.281-.072.438-.107.897-.208 2.128-.493 2.778-1.799.471-.938 1.096-2.142 1.577-3.062.278-.209.448-.375.448-.375z"/>
    <path opacity=".2" fill="#010101" d="M21.694 31.883s.112.722-.898 1.031c-1.01.31-7.408 2.216-8.139 2.112-.731-.104-2.582-1.34-2.582-1.34l-.449-1.599 2.582 1.392 9.486-1.596z"/>
    <path fill="#303030" d="M29.489 4.328v3.884h-2.752V7.078h-.621v5.241h.937v2.931h-4.815v-2.931h.934V7.078h-.618v1.134h-2.751V4.328z"/>
    <path opacity=".2" fill="#010101" d="M27.426 31.743s-.08.726.942.99c1.022.266 7.499 1.893 8.223 1.758.726-.135 2.521-1.451 2.521-1.451l.379-1.615-2.519 1.502-9.546-1.184z"/>
    <path opacity=".2" fill="#010101" d="M42.779 30.067s-1.449 1.852-2.881 1.236l-.46.297.102.752 2.148.271.58-.341.511-2.215zM20.364 44s5.253 2.647 11.2-.955l-1.91-.131s-4.167 1.649-7.467.737L20.364 44z"/>
    <path fill="#525252" d="M39.305 36.459s-.144.56-.515 1.247l.001-.003a6.028 6.028 0 0 1-1.22 1.469 3.533 3.533 0 0 1-.775.513c-.272.131-.58.207-.886.289-.614.154-1.234.301-1.856.433-.619.138-1.242.266-1.866.385-.623.125-1.249.237-1.874.335-.312.049-.626.094-.934.115a3.428 3.428 0 0 1-.226.006c-.034-.002-.07-.004-.097-.008a.197.197 0 0 1-.05-.012 2.435 2.435 0 0 1-.457-.203c-.546-.307-1.073-.674-1.596-1.039-.404-.283-.824-.611-1.229-.914l-.037.05.079.069c-.169-.129-.274-.207-.274-.207l-.08.103-.036-.033c-.337.377-.636.764-.984 1.129-.207.221-.414.438-.626.647-.211.211-.426.423-.647.612-.108.094-.231.19-.333.24a2.434 2.434 0 0 1-.398.119c-.286.063-.579.112-.874.155-.589.091-1.184.166-1.777.229a67.03 67.03 0 0 1-1.785.186c-.596.059-1.192.104-1.785.134a9.52 9.52 0 0 1-.444.013c-.146 0-.284-.013-.427-.035a3.203 3.203 0 0 1-.827-.27 5.67 5.67 0 0 1-1.455-1.023c.059.074.124.143.187.213a2.773 2.773 0 0 1-.161-.158c-.286-.311-3.69-3.238-3.69-3.238l1.167 2.855s2.643 2.836 4.119 3.168c1.476.334 4.143-.023 6.144-.334 2-.309 3.596-1.022 4.239-2.188.643-1.168.737-1.501.737-1.501s1.905 2.691 3.549 3c1.644.311 6.524-1.357 6.524-1.357s2.978-.81 3.5-1.832c.524-1.025 1.905-4.381 1.905-4.381l-1.93 1.022z"/>
    <path fill="#686969" d="M27.463 5.154H20.628v2.233h1.098V6.253h2.273v6.893h-.936v1.28h3.163v-1.28h-.935V6.253h2.272v1.134h1.099V5.154z"/>
    <path fill="#303030" d="M25.689 39.12l.362.434c.009.01.817.973 1.804 1.95.657.651 1.45.979 2.358.979.312 0 .638-.041.967-.118.306-.075.637-.154.978-.236 1.228-.293 2.619-.626 3.293-.814.133-.039.282-.072.439-.108.896-.207 2.128-.493 2.778-1.799a190.81 190.81 0 0 1 1.643-3.185c-.426.194-.871.407-1.188.573-.488.257-1.126.382-1.952.382-.49 0-.973-.041-1.506-.09-1.065-.098-2.871-.311-2.89-.312l-.138-.016-.109-.088c-.016-.011-1.597-1.271-2.875-2.275l-.142-.116c-.136-.115-.136-.115-.216-.115-.409 0-1.601.37-4.211 1.179l-.16.051-.156-.06c-.018-.005-1.73-.64-3.782-.64-.168 0-.335.004-.499.012-.205.011-1.359.559-2.834 2.893l-.095.149-.169.056c-.025.008-2.564.826-5.257 1.596l-.175.051-.165-.077c-.017-.006-1.07-.495-2.073-.955.547.808 1.245 1.814 1.86 2.604 1.075 1.384 2.429 2.662 5.026 2.662.326 0 .672-.021 1.026-.061 2.643-.299 3.322-.42 3.688-.482.124-.021.222-.039.348-.055.021-.002 2.184-.281 2.79-1.645.625-1.398.752-1.732.757-1.745l.221-.589-.061-.057.132-.145.001.002.005.004.209.154-.032.052zM9.237 12.707c-.574.231-1.144.47-1.701.732a18.4 18.4 0 0 0-1.632.834 9.397 9.397 0 0 0-1.358.93c-.018.104-.033.218-.048.325-.017.152-.036.304-.047.458-.028.308-.038.616-.042.926-.006.618.037 1.237.114 1.85.085.615.197 1.225.364 1.814.083.295.175.587.283.867.054.143.112.281.175.415.029.067.061.134.094.197l.039.074c.046.023.094.048.138.068l.275.132c.152.07.364.171.54.249.011-.009.02-.019.027-.026l-.508-1.941a44.142 44.142 0 0 1 2.745-.598 6.929 6.929 0 0 1-.405-.085 8.533 8.533 0 0 1-1.117-.356 5.008 5.008 0 0 1-.526-.256 1.782 1.782 0 0 1-.464-.353c1.833.6 5.619.328 8.985-.02 3.08-.318 6.165-.523 9.267-.531 3.102.008 6.19.213 9.268.531 3.369.348 7.156.619 8.988.02a1.787 1.787 0 0 1-.464.353 5.106 5.106 0 0 1-.526.256 8.3 8.3 0 0 1-1.287.394c1.829.339 2.895.615 3.007.646l-.486 1.85c.098-.044.196-.086.293-.131l.274-.132.14-.068.038-.074a6.044 6.044 0 0 0 .27-.612 9.44 9.44 0 0 0 .282-.867c.167-.59.28-1.199.362-1.814a13.447 13.447 0 0 0 .075-2.776 11.447 11.447 0 0 0-.048-.458 6.68 6.68 0 0 0-.049-.325 9.524 9.524 0 0 0-1.357-.93 17.903 17.903 0 0 0-1.634-.834 31.316 31.316 0 0 0-1.701-.732 50.641 50.641 0 0 0-1.741-.661c.614.102 1.225.242 1.827.397.394.101.786.215 1.174.337C38.375 5.56 31.771.857 24.559.857S10.742 5.559 7.98 12.78c.388-.122.778-.236 1.171-.337a21.14 21.14 0 0 1 1.83-.397 50.852 50.852 0 0 0-1.744.661zm36.365 4.178a12.27 12.27 0 0 1-.06 1.992 12.43 12.43 0 0 1-.37 1.963c-.091.322-.195.641-.319.957a8.01 8.01 0 0 1-.203.473 3.691 3.691 0 0 1-.119.234l-.064.116a2.541 2.541 0 0 1-.079.131l-.067.104-.105.054c-.112.058-.205.101-.307.149l-.296.132c-.199.086-.398.166-.598.244-.14.055-.263.105-.38.153l-.328 1.251c-.009-.002-.108-.027-.293-.07l-.019.131c.363.188 1.078.574 1.321.774.49.405.523 1.048.416 2.245-.057.615-.26 1.812-.543 2.912-.489 1.893-.749 2.115-1.084 2.2-.17.044-.433.088-.687.088-.517 0-1.221.015-1.694-.101a18.194 18.194 0 0 1-1.156 2.957c.034-.018.068-.031.099-.049.849-.443 2.479-1.154 2.546-1.186l1.287-.561-.66 1.24a238.88 238.88 0 0 0-2.294 4.421c-.858 1.72-2.471 2.095-3.436 2.315a8.233 8.233 0 0 0-.396.098c-.692.194-2.094.528-3.33.826-.015.004-.029.008-.045.01-.76.471-1.59.889-2.499 1.234-3.322 1.259-6.824 1.188-10 .021-.516.065-1.193.146-2.097.25-.393.043-.773.066-1.137.066-3.025 0-4.629-1.538-5.799-3.041-1.253-1.611-2.785-4.003-2.852-4.104l-.888-1.387 1.502.676c.719.323 2.856 1.313 3.468 1.598l.146-.043a18.34 18.34 0 0 1-2.439-4.936 7.307 7.307 0 0 1-1.872.27c-.219 0-.416-.018-.565-.053-.336-.076-.719-.4-1.239-2.233-.302-1.065-.528-2.228-.593-2.826-.13-1.168-.107-1.794.378-2.196.293-.246 1.279-.764 1.483-.869l-.044-.36c-3.136 1.844-5.016 3.472-5.054 3.505L0 30.633l1.599-2.521a24.667 24.667 0 0 1 4.068-4.854c-.056-.021-.107-.045-.162-.066l-.296-.133a11.776 11.776 0 0 1-.306-.149l-.105-.054-.068-.105c-.038-.057-.055-.088-.079-.131l-.067-.116c-.041-.08-.082-.156-.118-.234a9.677 9.677 0 0 1-.522-1.43c-.176-.648-.3-1.303-.37-1.963a12.5 12.5 0 0 1-.059-1.992 11.397 11.397 0 0 1 .177-1.487 6.39 6.39 0 0 1 .118-.507l.035-.129.092-.072c.522-.411 1.088-.722 1.662-.996.473-.223.955-.418 1.44-.597 1.355-3.763 3.687-7.099 6.749-9.423C16.956 1.271 20.68 0 24.559 0s7.604 1.271 10.771 3.674c3.063 2.324 5.395 5.66 6.749 9.422.486.18.967.374 1.441.598.572.274 1.138.585 1.661.996l.092.072.035.129c.052.183.085.339.117.507a10.95 10.95 0 0 1 .177 1.487zm-2.736 10.956c.104-1.152.013-1.4-.103-1.494-.117-.1-.514-.322-.899-.531l-.633 4.438a.327.327 0 0 1-.133.215l-.907.636c-.072.362-.099.535-.188.891.518.12 1.369.214 1.773.135.37-.401.964-2.878 1.09-4.29zm-1.177-4.026l.679-2.575a65.975 65.975 0 0 0-5.269-.946c-1.262.907-2.643 1.632-3.999 2.21 4.151.404 7.201 1.006 8.589 1.311zm-1.067 6.211l.772-5.398a60.752 60.752 0 0 0-1.308-.268l-.697 4.887a.332.332 0 0 1-.132.216l-2.615 1.829a.327.327 0 0 1-.217.057l-7.886-.896a.316.316 0 0 1-.268-.223l-1.42-4.676c-.38-.098-1.356-.326-2.211-.326-.859 0-1.834.229-2.215.326l-1.421 4.676a.319.319 0 0 1-.233.216L12.885 32.2a.313.313 0 0 1-.251-.051l-2.615-1.83a.325.325 0 0 1-.134-.221l-.704-5.718c-.293.057-.559.11-.794.16-.167.093-.333.186-.496.275l.749 6.061 3.802 2.662 9.591-2.133 1.415-4.665a.32.32 0 0 1 .253-.223 5.87 5.87 0 0 1 .939-.086c.263 0 .577.027.936.086.121.02.219.104.253.223l1.452 4.779 9.644 1.098 3.697-2.591zm-1.841-1.005l.683-4.776a79.888 79.888 0 0 0-8.188-1.039c-3.113 1.073-5.72 1.393-5.877 1.403l-.183.013c.993.086 1.929.352 1.976.366a.32.32 0 0 1 .215.214l1.411 4.646 7.559.858 2.404-1.685zm.525 2.703l-.32.225-.862.604-.934.654a.333.333 0 0 1-.217.057l-9.294-1.058-.678-.076a.32.32 0 0 1-.267-.226l-1.455-4.788a5.051 5.051 0 0 0-.641-.05c-.185 0-.4.018-.643.05l-1.413 4.651a.319.319 0 0 1-.233.215l-9.907 2.207c-.024.004-.047.008-.069.008a.32.32 0 0 1-.182-.059l-.36-.25-1.078-.756v-.002l-.436-.304c.031.098.065.194.101.289l-.001.002c.083.248.918 2.649 2.615 5.001 1.817-.535 3.389-1.034 3.891-1.193 1.024-1.576 2.481-3.143 3.518-3.195.178-.01.364-.016.548-.016.506 0 .99.037 1.438.09-.381-.346-.459-.752-.515-.932 0 0 1.321 1.033 3.004.816 1.684-.217 2.728-1.188 2.728-1.188s-.005.708-.738 1.256c1.41-.427 1.993-.572 2.393-.572.44 0 .657.185.849.347.037.028.073.062.115.095 1.084.854 2.388 1.891 2.769 2.193.442.052 1.842.212 2.725.293.509.046.969.085 1.417.085.146 0 .281-.007.41-.015a22.967 22.967 0 0 0 1.554-3.799c.058-.217.116-.439.168-.659zm-3.429-11.769l-.007-.002a110.97 110.97 0 0 0-2.242-.149 217.246 217.246 0 0 0-3.116-.152c-.061.09-.184.268-.359.509-.565.765-1.687 2.168-3.125 3.359 2.036-.365 5.566-1.269 8.622-3.4.076-.055.151-.112.227-.165zm-6.815.211c.086-.107.167-.211.237-.306-.749.075-1.484.185-2.206.321-2.467.462-4.744 1.229-6.64 2.016a88.73 88.73 0 0 1 4.229-.104c.891 0 1.758.016 2.601.04a19.379 19.379 0 0 0 1.779-1.967zm.819 23.285a4.251 4.251 0 0 1-2.715-1.249l-.114-.117a9.856 9.856 0 0 1-1.112.16c-.16.007-.312.021-.478.021l-.247.002-.094-.002c-1.002 1.49-3.229 1.781-3.332 1.795-.092.01-.167.022-.271.043 1.24.34 2.508.486 3.758.402a14.983 14.983 0 0 0 4.605-1.055zm-3.969-1.702c.241-.02.483-.05.727-.085a33.731 33.731 0 0 1-.814-.88c-.107.246-.25.57-.438.988h.056c.149 0 .313-.015.469-.023zm-.765-17.935c.417-.252.816-.539 1.196-.848a86.032 86.032 0 0 0-8.09.226c-1.963.959-3.165 1.75-3.191 1.77l-1.887 1.258 1.296-1.857c.214-.311.439-.604.674-.881a76.726 76.726 0 0 0-5.339.781l.692 5.617 2.384 1.67 7.569-1.683 1.417-4.667a.32.32 0 0 1 .144-.182.188.188 0 0 1 .071-.031c.043-.012.801-.229 1.674-.334l1.39-.839zm.871-4.285a119.37 119.37 0 0 0-1.582-.016h-.001c-.773.002-1.548.011-2.324.025l-1.43.678-.021.012c-.215.104-2.093 1.052-3.859 2.741 1.583-.831 3.911-1.92 6.65-2.763.82-.251 1.68-.482 2.567-.677zm-9.995 2.998a17.03 17.03 0 0 1 2.182-1.818c-2.603.605-5 1.493-7.1 2.459a82.125 82.125 0 0 1 4.918-.641zm.493-2.269a33.82 33.82 0 0 1 2.693-.638c-1.321.048-2.646.109-3.967.184-.768.042-1.531.095-2.295.153-.382.028-.763.06-1.142.101-.108.011-.216.022-.323.036-.997.597-4.819 2.996-7.443 6.134 2.55-1.773 6.992-4.436 12.477-5.97zM9.479 32.619c-.05-.158-.098-.318-.143-.479l-1.176-.825a.318.318 0 0 1-.134-.222l-.574-4.663c-.425.228-.917.508-1.047.616-.113.095-.2.333-.077 1.444.152 1.371.847 3.953 1.22 4.33.45.079 1.444-.057 1.931-.201zm-.87-11.714c-.665.128-1.207.244-1.608.335l.189.713a24.025 24.025 0 0 1 1.419-1.048z"/>
</symbol><symbol id="nav-dots" viewBox="0 0 9 38">
    
    <title>
        nav-dots
    </title>
    <circle class="cls-1" cx="4.5" cy="4.5" r="4.5"/>
    <circle class="cls-1" cx="4.5" cy="19" r="4.5"/>
    <circle class="cls-1" cx="4.5" cy="33.5" r="4.5"/>
</symbol><symbol id="start-arc-1" viewBox="0 0 181 181">
    <title>
        Path 4 Copy
    </title>
    <path d="M2 10.578s177.692-32.09 170.805 170.137" stroke="#2B2B2B" stroke-width="15.68" fill="none" fill-rule="evenodd"/>
</symbol><symbol id="start-arc-2" viewBox="0 0 374 362">
    <title>
        Path 3 Copy
    </title>
    <path d="M8.711 1s-58.23 363.938 365.063 354.42" stroke="#2B2B2B" stroke-width="11.2" fill="none" fill-rule="evenodd"/>
</symbol><symbol id="start-blue-arc" viewBox="0 0 132 132">
    <title>
        Artboard 1
    </title>
    <path d="M66 100a34 34 0 0 1-34-34H0a66 66 0 0 0 132 0h-32a34 34 0 0 1-34 34z" fill="#2176ff"/>
</symbol><symbol id="start-blue-finger" viewBox="0 0 188 199">
    <title>
        start-blue-finger
    </title>
    <path d="M181.75 128.91q-.69-1.19-1.44-2.33h.07L107.32 0H0l99.89 173h.07q.61 1.22 1.3 2.41a46.47 46.47 0 1 0 80.49-46.47z" fill="#2176ff"/>
    <path d="M145.65 113.35L105 136.84l14.83 25.91c.24.39.45.79.68 1.19a23.19 23.19 0 0 0 31.84 8.52 23.6 23.6 0 0 0 8.83-32q-.34-.6-.71-1.17z" fill="#34198c"/>
</symbol><symbol id="start-circle" viewBox="0 0 47 47">
    <title>
        Oval 4 Copy 22
    </title>
    <ellipse cx="1217.5" cy="363.5" rx="23.5" ry="23.5" transform="translate(-1194 -340)" fill="#FBC227" fill-rule="evenodd"/>
</symbol><symbol id="start-donut" viewBox="0 0 101 101">
    <title>
        Combined Shape
    </title>
    <path d="M28.913 63.386a25.002 25.002 0 0 1-3.584-12.939c0-13.872 11.246-25.118 25.118-25.118 13.873 0 25.12 11.246 25.12 25.118 0 13.873-11.247 25.12-25.12 25.12a25.005 25.005 0 0 1-12.187-3.15 6.674 6.674 0 1 1-9.347-9.03zm3.453 34.26A50.38 50.38 0 0 0 50.5 101c27.89 0 50.5-22.61 50.5-50.5S78.39 0 50.5 0c-.733 0-1.463.016-2.189.047a7.935 7.935 0 0 1-15.47 3.127C13.658 10.334 0 28.822 0 50.5c0 16.156 7.587 30.54 19.393 39.784a7.935 7.935 0 0 1 12.973 7.362zM17.814 47.715a5.097 5.097 0 1 0 0-10.195 5.097 5.097 0 0 0 0 10.195zm42.04-28.797a5.097 5.097 0 1 0 0-10.195 5.097 5.097 0 0 0 0 10.195zm26.8 12.927a5.097 5.097 0 1 0 0-10.195 5.097 5.097 0 0 0 0 10.195zm.053 28.587a5.15 5.15 0 1 0 0-10.3 5.15 5.15 0 0 0 0 10.3zM64.899 94.589a6.148 6.148 0 1 0 0-12.297 6.148 6.148 0 0 0 0 12.297z" fill="#3EC446" fill-rule="evenodd"/>
</symbol><symbol id="start-green-gradient" viewBox="0 0 62 151">
    <title>
        Combined Shape Copy 4
    </title>
    
    <path d="M1120.792 791.483h.036V664.324h-41.434v127.16h.035c-.023.4-.035.803-.035 1.209 0 11.358 9.275 20.566 20.717 20.566 11.441 0 20.717-9.208 20.717-20.566 0-.406-.012-.81-.036-1.21z" transform="rotate(-9 -3639.643 7192.905)" fill="url(#start-green-gradient-a)" fill-rule="evenodd"/>
</symbol><symbol id="start-red-thumb" viewBox="0 0 76 74">
    <title>
        Artboard 1
    </title>
    <path d="M6 0L.79 31.9c-.09.66-.22 1.32-.33 2A34.09 34.09 0 0 0 28.72 73H29a34.68 34.68 0 0 0 39.74-28.3q.17-1 .27-2L76 0z" fill="#ea3a3a"/>
</symbol><symbol id="start-tiny-triangle" viewBox="0 0 45 47">
    <title>
        Triangle Copy 3
    </title>
    <path d="M0 46.127L29.955 0l14.376 42.126z" fill="#42CDB2" fill-rule="evenodd"/>
</symbol><symbol id="start-triangle-group" viewBox="0 0 182 89">
    <title>
        Group 3
    </title>
    
    <g fill="none" fill-rule="evenodd">
        <path fill="#FA99B4" d="M112.633 44.465H43.767L78.2.5zM43.764 44.465H.654L22.21 16.944z"/>
        <path fill="url(#start-triangle-group-a)" d="M181.195 44.465h-68.866L146.762.5z"/>
        <path fill="#34198C" d="M181.586 88.697H112.72l34.433-43.963z"/>
    </g>
</symbol><symbol id="thumb-pink" viewBox="0 0 123 142">
    <path d="M123 0H.32L.028 77.743c.027 1.181-.017 2.371-.025 3.57C-.24 114.829 27.028 142 60.905 142c33.877 0 61.535-27.17 61.776-60.687a60.953 60.953 0 0 0-.079-3.57L123 0z" fill="#FA99B4" fill-rule="evenodd"/>
</symbol><symbol id="tri-triangles-a" viewBox="0 0 240 158">
    <title>
        Group 10
    </title>
    <g fill="none" fill-rule="evenodd">
        <path fill="#FA99B4" d="M123 79H0L61.5 0z"/>
        <path fill="#544EBF" d="M123 158H0l61.5-79z"/>
        <path fill="#544EBF" d="M240 158H117l61.5-79z"/>
    </g>
</symbol><symbol id="tri-triangles-b" viewBox="0 0 256 181">
    <title>
        shape15
    </title>
    <g fill="#2176FF" fill-rule="evenodd">
        <path d="M253 94H128l62.5-80zM253 178H128l62.5-80z"/>
        <path d="M129 94H4l62.5-80z"/>
    </g>
</symbol><symbol id="triangle-green" viewBox="0 0 162 104">
    <path d="M162 103.951H.152L81.076 0z" fill="#3EC446" fill-rule="evenodd"/>
</symbol><symbol id="triangle-yellow" viewBox="0 0 62 40">
    <path d="M62.06 39.885H0L31.03 0z" fill="#FBC227" fill-rule="evenodd"/>
</symbol></svg>